<svg width="20" height="21" viewBox="0 0 20 21" fill="none" xmlns="http://www.w3.org/2000/svg">
<path d="M16.9167 13.71V19C16.9167 19.6904 16.357 20.25 15.6667 20.25H12.4167V16.102C12.4167 15.1355 11.6332 14.352 10.6667 14.352H9.33333C8.36683 14.352 7.58333 15.1355 7.58333 16.102V20.25H4.33333C3.64298 20.25 3.08333 19.6904 3.08333 19V13.71C3.08333 13.2643 2.72206 12.9031 2.27642 12.9031H2.25219C1.42255 12.9031 0.75 12.2305 0.75 11.4009C0.75 11.0151 0.898378 10.6442 1.1644 10.3649L9.10259 2.02978C9.59338 1.51446 10.4147 1.51225 10.9083 2.02493L18.8091 10.2321C19.092 10.5259 19.25 10.918 19.25 11.3259V11.3766C19.25 12.2197 18.5666 12.9031 17.7236 12.9031C17.2779 12.9031 16.9167 13.2643 16.9167 13.71Z" stroke="#1B3037" stroke-width="1.5"/>
</svg>
