<svg width="16" height="20" viewBox="0 0 16 20" fill="none" xmlns="http://www.w3.org/2000/svg">
<path fill-rule="evenodd" clip-rule="evenodd" d="M4.5 4.75C4.5 2.95507 5.95507 1.5 7.75 1.5C9.54493 1.5 11 2.95507 11 4.75C11 6.54493 9.54493 8 7.75 8C5.95507 8 4.5 6.54493 4.5 4.75ZM7.75 0C5.12665 0 3 2.12665 3 4.75C3 7.37335 5.12665 9.5 7.75 9.5C10.3734 9.5 12.5 7.37335 12.5 4.75C12.5 2.12665 10.3734 0 7.75 0ZM1.5 16.75C1.5 14.9551 2.95507 13.5 4.75 13.5H10.75C12.5449 13.5 14 14.9551 14 16.75C14 17.4404 13.4404 18 12.75 18H2.75C2.05964 18 1.5 17.4404 1.5 16.75ZM4.75 12C2.12665 12 0 14.1266 0 16.75C0 18.2688 1.23122 19.5 2.75 19.5H12.75C14.2688 19.5 15.5 18.2688 15.5 16.75C15.5 14.1266 13.3734 12 10.75 12H4.75Z" fill="#1B3037"/>
</svg>
