<?xml version="1.0" encoding="UTF-8"?><svg id="Layer_1" xmlns="http://www.w3.org/2000/svg" viewBox="0 0 273.94 271.98"><g><g><path d="m191.72,0h-120.05c-6.73,0-12.1,5.48-12.1,12.32v247.05c0,6.85,5.48,12.32,12.1,12.32h120.05c6.73,0,12.1-5.59,12.1-12.32V12.44c0-6.85-5.48-12.44-12.1-12.44Zm4.56,251.84c0,6.5-4.91,11.75-10.84,11.75h-107.38c-6.05,0-10.84-5.25-10.84-11.75V21.8c0-13.24,4.91-13.92,10.84-13.92h21.45c1.26,0,2.28,1.37,2.28,3.2v.8c0,4.11,2.28,4.11,5.02,4.11h49.75c2.85,0,5.02,0,5.02-4.11v-.8c0-1.71,1.03-3.2,2.28-3.2h21.45c6.05,0,10.84,1.71,10.84,13.92v230.05h.13Z"/><g><path d="m196.29,21.8v230.05c0,6.5-4.91,11.75-10.84,11.75h-107.38c-6.05,0-10.84-5.25-10.84-11.75V21.8c0-13.24,4.91-13.92,10.84-13.92h21.45c1.26,0,2.28,1.37,2.28,3.2v.8c0,4.11,2.28,4.11,5.02,4.11h49.75c2.85,0,5.02,0,5.02-4.11v-.8c0-1.71,1.03-3.2,2.28-3.2h21.45c6.05,0,10.95,1.83,10.95,13.92h.02Z" fill="#fff"/><g><path d="m196.29,21.8v25.9H67.11v-25.9c0-13.24,4.91-13.92,10.84-13.92h21.57c1.26,0,2.28,1.37,2.28,3.2v.8c0,4.11,2.28,4.11,5.02,4.11h49.75c2.85,0,5.02,0,5.02-4.11v-.8c0-1.71,1.03-3.2,2.28-3.2h21.45c6.05,0,10.95,1.83,10.95,13.92h.02Z" fill="#007cff"/><g><g id="u5Zjqx"><g><path d="m95.87,13.01c-.08.08-.15.15-.23.23l-.11.11c-.57-.57-1.26-.8-2.05-.8s-1.48.34-2.05.8l-.11-.11-.23-.23h0c.11-.11.23-.11.23-.23.23-.11.34-.23.57-.34.23-.11.57-.23.8-.23h1.03c.23,0,.46.11.68.23.23.11.34.11.46.23.11.11.34.23.46.34.34-.11.46,0,.57,0h-.02Z" fill="#fff"/><path d="m92.1,14.04c-.11-.11-.23-.23-.34-.34.34-.34.8-.57,1.37-.68.8-.11,1.48.11,2.05.68-.11.11-.23.23-.34.34-.34-.34-.8-.57-1.37-.57-.46,0-.91.23-1.37.57Z" fill="#fff"/><path d="m94.5,14.38c-.11.11-.23.23-.34.34-.23-.23-.46-.34-.68-.23-.23,0-.46.11-.68.34-.11-.11-.23-.23-.34-.34.57-.68,1.48-.68,2.05-.11h-.01Z" fill="#fff"/></g><path d="m93.82,14.95c0,.11-.11.34-.34.34-.11,0-.34-.11-.34-.34,0-.11.11-.34.34-.34.23.11.34.23.34.34Z" fill="#fff"/></g><g><path d="m75.56,13.69c0-.46.34-.8.8-.8s.8.34.8.8-.34.8-.8.8-.8-.34-.8-.8Z" fill="#fff"/><path d="m78.3,13.69c0-.46.34-.8.8-.8s.8.34.8.8-.34.8-.8.8-.8-.34-.8-.8Z" fill="#fff"/><path d="m80.92,13.69c0-.46.34-.8.8-.8s.8.34.8.8-.34.8-.8.8c-.34,0-.8-.34-.8-.8Z" fill="#fff"/><path d="m83.66,13.69c0-.46.34-.8.8-.8s.8.34.8.8-.34.8-.8.8-.8-.34-.8-.8Z" fill="#fff"/><path d="m86.28,13.69c0-.46.34-.8.8-.8s.8.34.8.8-.34.8-.8.8c-.34,0-.8-.34-.8-.8Z" fill="#fff"/></g><g><path d="m186.59,15.52h-6.96v-3.2h6.96v3.2Zm-6.62-.34h6.28v-2.51h-6.28v2.51Z" fill="#fff"/><rect x="180.2" y="12.89" width="4.45" height="2.17" fill="#fff"/><rect x="186.59" y="13.12" width=".57" height="1.71" fill="#fff"/></g></g><g><polygon points="78.87 40.4 75.1 36.86 78.87 33.21 79.55 33.89 76.36 36.86 79.55 39.82 78.87 40.4" fill="#fff"/><polygon points="184.53 33.21 188.3 36.86 184.53 40.4 183.85 39.82 187.04 36.86 183.85 33.89 184.53 33.21" fill="#fff"/><g isolation="isolate"><g isolation="isolate"><path d="m104.56,40.17h-1.53v-2.88h-2.95v2.88h-1.52v-7h1.52v2.81h2.95v-2.81h1.53v7Z" fill="#fff"/><path d="m105.52,40.17l2.55-7h1.81l2.5,7h-1.67l-.49-1.49h-2.57l-.48,1.49h-1.65Zm2.47-2.69h1.88l-.79-2.48c-.03-.09-.06-.17-.08-.24-.02-.07-.03-.16-.05-.27h-.04c-.02.09-.03.18-.05.25s-.04.15-.07.23l-.81,2.5Z" fill="#fff"/><path d="m112.82,39.7l.63-1.19c.35.21.66.36.92.43.26.08.54.11.83.11.37,0,.66-.07.84-.22.19-.15.28-.35.28-.62,0-.24-.07-.43-.22-.57-.15-.13-.42-.25-.82-.34-.77-.18-1.34-.44-1.69-.76-.35-.33-.53-.78-.53-1.37s.23-1.09.68-1.5c.45-.41,1.09-.62,1.91-.62.34,0,.68.04,1.01.12s.65.19.95.35l-.58,1.2c-.27-.15-.52-.26-.76-.33-.24-.07-.46-.1-.67-.1-.32,0-.57.06-.75.19-.18.13-.27.31-.27.55,0,.22.08.39.25.5s.46.23.89.33c.75.18,1.3.43,1.63.77.34.34.5.82.5,1.43,0,.66-.23,1.19-.69,1.6-.46.41-1.13.61-2.01.61-.39,0-.8-.05-1.21-.16s-.79-.25-1.12-.44Z" fill="#fff"/><path d="m120.61,40.17h-1.52v-7h1.52v7Z" fill="#fff"/><path d="m126.45,40.17h-4.13v-7h1.52v5.76h2.61v1.24Z" fill="#fff"/><path d="m133.2,40.29c-1,0-1.81-.33-2.44-.98-.63-.65-.94-1.5-.94-2.55,0-1.11.32-2,.96-2.69s1.49-1.03,2.55-1.03c1,0,1.8.33,2.42.98s.92,1.52.92,2.59-.32,1.99-.96,2.66c-.64.67-1.47,1.01-2.5,1.01Zm.03-1.32c.56,0,1.01-.2,1.33-.6s.49-.95.49-1.67-.16-1.31-.48-1.72-.75-.62-1.31-.62-1.01.21-1.35.63c-.34.42-.5.98-.5,1.68s.17,1.26.5,1.67.77.62,1.31.62Z" fill="#fff"/><path d="m144.18,40.17h-1.55l-2.93-4.48c-.08-.13-.15-.24-.21-.33s-.1-.18-.14-.24h-.02c.01.12.02.27.03.46,0,.19,0,.41,0,.66v3.93h-1.44v-7h1.66l2.83,4.34c.06.1.12.19.18.29.06.1.12.19.16.28h.02c-.01-.08-.02-.2-.03-.36,0-.16,0-.36,0-.6v-3.95h1.44v7Z" fill="#fff"/><path d="m150.03,40.17h-4.13v-7h1.52v5.76h2.61v1.24Z" fill="#fff"/><path d="m152.6,40.17h-1.52v-7h1.52v7Z" fill="#fff"/><path d="m160.56,40.17h-1.55l-2.93-4.48c-.08-.13-.15-.24-.21-.33s-.1-.18-.14-.24h-.02c.01.12.02.27.03.46,0,.19,0,.41,0,.66v3.93h-1.44v-7h1.66l2.83,4.34c.06.1.12.19.18.29.06.1.12.19.16.28h.02c-.01-.08-.02-.2-.03-.36,0-.16,0-.36,0-.6v-3.95h1.44v7Z" fill="#fff"/><path d="m166.45,40.17h-4.17v-7h4v1.25h-2.48v1.61h2.31v1.25h-2.31v1.66h2.64v1.24Z" fill="#fff"/></g></g></g></g><path d="m138.43,10.84h-13.58c-.46,0-.8-.34-.8-.8h0c0-.46.34-.8.8-.8h13.58c.46,0,.8.34.8.8h0c.11.46-.34.8-.8.8Z" fill="#1a2e35"/></g></g><g><g><g><rect x="78.86" y="57.38" width="103.41" height="141.59" rx="3.33" ry="3.33" fill="#fff"/><path d="m178.93,198.97s.44.05,1.22-.25c.38-.15.84-.41,1.24-.87.41-.45.75-1.11.83-1.9.02-3.22,0-7.98,0-14.11,0-12.26-.02-29.98-.04-51.89,0-10.95,0-22.95,0-35.83v-33.06c.06-.88-.19-1.75-.76-2.42-.56-.66-1.39-1.09-2.26-1.14-.88-.02-1.8,0-2.7,0h-94.24c-1.01,0-2.01.49-2.6,1.31-.3.4-.5.88-.58,1.37-.08.49-.04,1.02-.05,1.54v88.02c0,14.49,0,28.25-.01,41.13v4.79c0,.77.29,1.53.79,2.1.49.58,1.2.97,1.95,1.08.37.06.76.04,1.15.04h25.18c21.91.02,39.64.03,51.89.04,6.12,0,10.88.02,14.11.02,1.61,0,2.84,0,3.67,0,.83,0,1.25,0,1.25,0,0,0-.42,0-1.25,0-.83,0-2.06,0-3.67,0-3.23,0-7.98,0-14.11.02-12.25,0-29.98.02-51.89.04h-25.18c-.38,0-.78.02-1.18-.04-.79-.12-1.54-.53-2.06-1.14-.53-.61-.84-1.41-.84-2.23v-4.79c0-12.88,0-26.65-.01-41.13V61.68c.01-.52-.03-1.03.05-1.58.08-.53.3-1.04.62-1.48.63-.88,1.71-1.41,2.79-1.41h94.24c.91,0,1.8,0,2.71,0,.93.05,1.82.51,2.41,1.22.61.7.87,1.67.81,2.56v33.06c0,12.88,0,24.88,0,35.83-.02,21.91-.03,39.64-.04,51.89,0,6.13,0,10.88-.04,14.11-.09.81-.44,1.48-.85,1.92-.41.46-.88.72-1.26.87-.39.16-.7.19-.91.21h-.32l-.04.08Z" fill="#1a2e35"/></g><g><rect x="114.59" y="99.49" width="51.68" height="6.12" rx="3.06" ry="3.06" fill="#e1e1e1"/><g><rect x="94.85" y="95.84" width="14.17" height="14.17" rx="5.14" ry="5.14" fill="#ff735d"/><polygon points="97.04 103.13 98.47 101.7 101.22 104.15 105.82 99.53 107.15 100.96 101.02 106.9 97.04 103.13" fill="#fff"/></g></g><g><rect x="114.59" y="121.47" width="51.68" height="6.12" rx="3.06" ry="3.06" fill="#e1e1e1"/><g><rect x="94.85" y="117.82" width="14.17" height="14.17" rx="5.14" ry="5.14" fill="#ff735d"/><polygon points="97.04 125.11 98.47 123.69 101.22 126.13 105.82 121.52 107.15 122.95 101.02 128.89 97.04 125.11" fill="#fff"/></g></g><g><path d="m117.65,143.45h45.56c1.69,0,3.06,1.37,3.06,3.06h0c0,1.69-1.37,3.06-3.06,3.06h-45.56c-1.69,0-3.06-1.37-3.06-3.06h0c0-1.69,1.37-3.06,3.06-3.06Z" fill="#e1e1e1"/><g><rect x="94.85" y="139.81" width="14.17" height="14.17" rx="5.14" ry="5.14" fill="#ff735d"/><polygon points="97.04 147.1 98.47 145.67 101.22 148.12 105.82 143.5 107.15 144.93 101.02 150.87 97.04 147.1" fill="#fff"/></g></g><g><path d="m117.65,165.44h45.56c1.69,0,3.06,1.37,3.06,3.06h0c0,1.69-1.37,3.06-3.06,3.06h-45.56c-1.69,0-3.06-1.37-3.06-3.06h0c0-1.69,1.37-3.06,3.06-3.06Z" fill="#e1e1e1"/><g><rect x="94.85" y="161.79" width="14.17" height="14.17" rx="5.14" ry="5.14" fill="#ff735d"/><polygon points="97.04 169.08 98.47 167.65 101.22 170.1 105.82 165.48 107.15 166.91 101.02 172.85 97.04 169.08" fill="#fff"/></g></g></g><g><path d="m99.4,210.1h64.6c6.21,0,11.24,5.03,11.24,11.24h0c0,6.21-5.03,11.24-11.24,11.24h-64.6c-6.21,0-11.24-5.03-11.24-11.24h0c0-6.21,5.03-11.24,11.24-11.24Z" fill="#007cff"/><g isolation="isolate"><g isolation="isolate"><path d="m108.55,224.16v-5.6h1.98c1.99,0,2.98.91,2.98,2.73,0,.87-.27,1.57-.81,2.09s-1.27.78-2.17.78h-1.98Zm1.26-4.57v3.55h.62c.55,0,.98-.16,1.29-.49s.47-.77.47-1.34c0-.53-.15-.95-.46-1.26s-.74-.46-1.3-.46h-.62Z" fill="#fff"/></g><g isolation="isolate"><path d="m116.82,224.26c-.8,0-1.46-.26-1.96-.78s-.76-1.2-.76-2.04c0-.89.26-1.6.77-2.15s1.19-.82,2.04-.82c.8,0,1.45.26,1.94.79s.74,1.21.74,2.07-.26,1.59-.77,2.13-1.18.81-2,.81Zm.05-4.71c-.44,0-.79.17-1.05.5s-.39.77-.39,1.32.13.99.39,1.32.6.48,1.02.48.78-.16,1.04-.47.38-.75.38-1.31-.12-1.03-.37-1.36-.59-.48-1.02-.48Z" fill="#fff"/></g><g isolation="isolate"><path d="m127.65,218.56l-1.48,5.6h-1.4l-.93-3.59c-.05-.19-.08-.4-.09-.63h-.02c-.02.25-.06.46-.1.63l-.95,3.59h-1.46l-1.47-5.6h1.38l.79,3.73c.03.16.06.37.07.64h.02c.01-.2.05-.42.11-.66l1.02-3.71h1.35l.92,3.76c.03.14.06.34.09.6h.02c.01-.21.04-.41.08-.62l.77-3.74h1.27Z" fill="#fff"/><path d="m133.4,224.16h-1.27l-2.31-3.52c-.14-.21-.23-.36-.28-.46h-.02c.02.2.03.5.03.91v3.08h-1.19v-5.6h1.36l2.22,3.41c.1.15.2.31.28.46h.02c-.02-.13-.03-.39-.03-.77v-3.1h1.19v5.6Z" fill="#fff"/></g><g isolation="isolate"><path d="m138.02,224.16h-3.34v-5.6h1.26v4.58h2.07v1.02Z" fill="#fff"/></g><g isolation="isolate"><path d="m140.87,224.26c-.8,0-1.46-.26-1.96-.78-.51-.52-.76-1.2-.76-2.04,0-.89.26-1.6.77-2.15.51-.55,1.19-.82,2.04-.82.8,0,1.45.26,1.94.79.49.52.74,1.21.74,2.07s-.26,1.59-.77,2.13-1.18.81-2,.81Zm.05-4.71c-.44,0-.79.17-1.05.5-.26.33-.39.77-.39,1.32s.13.99.39,1.32c.26.32.6.48,1.02.48s.78-.16,1.04-.47c.25-.31.38-.75.38-1.31s-.12-1.03-.37-1.36c-.25-.32-.59-.48-1.02-.48Z" fill="#fff"/></g><g isolation="isolate"><path d="m149.3,224.16h-1.38l-.4-1.25h-1.99l-.39,1.25h-1.37l2.04-5.6h1.5l1.99,5.6Zm-2.06-2.21l-.6-1.88c-.04-.14-.08-.31-.09-.5h-.03c-.01.16-.05.33-.1.49l-.61,1.9h1.43Z" fill="#fff"/><path d="m150,224.16v-5.6h1.98c1.99,0,2.98.91,2.98,2.73,0,.87-.27,1.57-.81,2.09s-1.27.78-2.17.78h-1.98Zm1.26-4.57v3.55h.62c.55,0,.98-.16,1.29-.49.31-.33.47-.77.47-1.34,0-.53-.15-.95-.46-1.26s-.74-.46-1.3-.46h-.62Z" fill="#fff"/></g></g></g></g></g><g><g><g><path d="m69.6,271.02H18.02c-3.56,0-6.45-2.89-6.45-6.45v-71.4c0-3.56,2.89-6.45,6.45-6.45h32.71l25.32,26.1v51.75c0,3.56-2.89,6.45-6.45,6.45h0Z" fill="#ececec"/><path d="m50.73,186.72v20.09c0,3.32,2.69,6,6,6h19.32l-25.32-26.1h0Z" fill="#f5f5f5"/><path d="m51,208.58s-.25,4.87,5.29,6.48c.21.06.42.11.64.14,2.52.45,19.13,3.41,19.13,3.02v-5.4h-19.32s-4.82-.16-5.74-4.24Z" fill="#e1e1e1"/></g><path d="m69.6,271.02s.39,0,1.11-.13,1.81-.46,2.93-1.36c1.08-.9,2.2-2.46,2.31-4.55.03-2.08,0-4.5,0-7.19-.02-10.81-.04-26.28-.08-44.96l.05.13c-7.67-7.89-16.22-16.69-25.34-26.08l.15.06h-31.26c-.84,0-1.68-.04-2.48.09-1.61.26-3.1,1.19-4.05,2.53-.66.93-1.07,2.04-1.14,3.18-.05,1.14-.01,2.34-.02,3.5v20.58c0,8.93,0,17.54-.01,25.74v20.53c.01.93-.06,1.85.12,2.72.34,1.75,1.46,3.27,2.92,4.15.73.44,1.55.73,2.38.84.82.1,1.7.05,2.54.07,3.39,0,6.63,0,9.74.01,12.4.03,22.43.05,29.38.07,3.46.02,6.15.03,7.99.04.9,0,1.6.02,2.08.02s.71.02.71.02c0,0-.24.01-.71.02-.48,0-1.17.01-2.08.02-1.84,0-4.53.02-7.99.04-6.95.02-16.98.04-29.38.07-3.1,0-6.35,0-9.74.01-.85-.01-1.69.04-2.58-.06-.88-.12-1.74-.42-2.51-.88-1.55-.92-2.74-2.53-3.1-4.38-.19-.93-.11-1.87-.13-2.79v-20.53c0-8.2,0-16.81-.01-25.74v-20.58c.01-1.18-.02-2.33.02-3.53.07-1.21.51-2.41,1.22-3.4,1.02-1.43,2.61-2.43,4.33-2.7.87-.14,1.72-.08,2.55-.1h31.35l.06.06c9.11,9.4,17.65,18.22,25.3,26.12l.05.05v.07c-.03,18.69-.06,34.15-.08,44.96-.02,2.7,0,5.1-.05,7.2-.13,2.14-1.29,3.73-2.4,4.63-1.15.91-2.26,1.22-2.99,1.33-.37.06-.65.08-.84.08h-.28l-.04.02Z" fill="#1a2e35"/><path d="m76.06,212.82s-.17.03-.5.04c-.37,0-.84.02-1.42.04-1.29.02-3.07.04-5.23.07-2.23,0-4.85.03-7.76.05h-4.59c-1.65-.03-3.33-.79-4.48-2.1-.58-.65-1.01-1.42-1.27-2.24-.27-.8-.3-1.68-.28-2.46,0-1.59,0-3.12,0-4.58.02-2.91.03-5.54.05-7.76.03-2.17.05-3.94.07-5.23.02-.58.03-1.05.04-1.42,0-.33.03-.5.04-.5s.03.17.04.5c0,.37.02.84.04,1.42.02,1.29.04,3.07.07,5.23,0,2.23.03,4.85.05,7.76,0,1.46,0,3,0,4.58-.02.81.02,1.57.27,2.33.24.75.64,1.47,1.18,2.08,1.07,1.23,2.64,1.93,4.17,1.97,1.59,0,3.12.02,4.58.02,2.91.02,5.53.03,7.76.05,2.17.03,3.94.05,5.23.07.58.02,1.05.03,1.42.04.33,0,.5.03.5.04h0Z" fill="#1a2e35"/></g><path d="m49.76,204.65c0,.12-6.09.22-13.61.22s-13.61-.1-13.61-.22,6.09-.22,13.61-.22,13.61.1,13.61.22Z" fill="#1a2e35"/><path d="m62.67,214.67c0,.12-8.98.22-20.06.22s-20.06-.1-20.06-.22,8.98-.22,20.06-.22,20.06.1,20.06.22Z" fill="#1a2e35"/><path d="m62.67,224.7c0,.12-8.98.22-20.06.22s-20.06-.1-20.06-.22,8.98-.22,20.06-.22,20.06.1,20.06.22Z" fill="#1a2e35"/><path d="m62.67,234.72c0,.12-8.98.22-20.06.22s-20.06-.1-20.06-.22,8.98-.22,20.06-.22,20.06.1,20.06.22Z" fill="#1a2e35"/><path d="m62.67,244.75c0,.12-8.98.22-20.06.22s-20.06-.1-20.06-.22,8.98-.22,20.06-.22,20.06.1,20.06.22Z" fill="#1a2e35"/><path d="m62.67,254.77c0,.12-8.98.22-20.06.22s-20.06-.1-20.06-.22,8.98-.22,20.06-.22,20.06.1,20.06.22Z" fill="#1a2e35"/><path d="m4.22,237.42h35.37c2.33,0,4.22,1.89,4.22,4.22v11.24c0,2.33-1.89,4.22-4.22,4.22H4.22c-2.33,0-4.22-1.88-4.22-4.21v-11.24c0-2.33,1.89-4.22,4.22-4.22h0Z" fill="#ff735d"/><g><path d="m17.15,246.53c0,1.66-1.24,2.69-3.23,2.69h-1.5v2.05h-1.72v-7.44h3.22c1.99,0,3.23,1.03,3.23,2.7Zm-1.74,0c0-.82-.53-1.3-1.58-1.3h-1.4v2.58h1.4c1.05,0,1.58-.48,1.58-1.29h0Z" fill="#fff"/><path d="m18.37,243.83h3.38c2.43,0,4.1,1.47,4.1,3.72s-1.67,3.72-4.1,3.72h-3.38s0-7.44,0-7.44Zm3.29,6.02c1.48,0,2.44-.88,2.44-2.31s-.97-2.31-2.44-2.31h-1.57v4.61h1.57Z" fill="#fff"/><path d="m28.87,245.21v1.97h3.44v1.38h-3.44v2.71h-1.72v-7.44h5.62v1.38h-3.9Z" fill="#fff"/></g></g><g><g><g><path d="m89.13,271.42h-29.38c-2.03,0-3.68-1.65-3.68-3.68v-40.66c0-2.03,1.65-3.68,3.68-3.68h18.63l14.42,14.87v29.47c0,2.03-1.65,3.68-3.68,3.68h.01Z" fill="#ececec"/><path d="m78.38,223.4v11.44c0,1.89,1.53,3.42,3.42,3.42h11l-14.42-14.86Z" fill="#f5f5f5"/><path d="m78.53,235.85s-.14,2.78,3.02,3.69c.12.03.24.06.36.08,1.44.26,10.9,1.94,10.9,1.72v-3.08h-11s-2.75-.09-3.27-2.42h-.01Z" fill="#e1e1e1"/></g><path d="m89.13,271.42s.22,0,.63-.07c.41-.08,1.03-.26,1.67-.78.62-.51,1.25-1.4,1.32-2.59.02-1.19,0-2.56,0-4.1-.01-6.16-.03-14.97-.04-25.61l.03.07c-4.37-4.49-9.24-9.51-14.43-14.85l.09.04h-17.8c-.48,0-.96-.02-1.41.05-.92.15-1.77.68-2.31,1.44-.38.53-.61,1.16-.65,1.81-.03.65,0,1.33,0,1.99v38.08c0,.53-.03,1.05.07,1.55.19.99.83,1.86,1.66,2.36.42.25.88.41,1.36.48.47.06.97.03,1.45.04h5.55c7.06.02,12.78.03,16.73.04,1.97.01,3.5.02,4.55.02.52,0,.91,0,1.18.01.27,0,.4.01.4.01,0,0-.14,0-.4.01-.27,0-.67,0-1.18.01-1.05,0-2.58.01-4.55.02-3.96,0-9.67.02-16.73.04h-5.55c-.48,0-.97.02-1.47-.04-.5-.07-.99-.24-1.43-.5-.88-.53-1.56-1.44-1.76-2.49-.11-.53-.06-1.06-.07-1.59v-38.08c0-.67,0-1.33,0-2.01.04-.69.29-1.37.7-1.94.58-.82,1.49-1.38,2.47-1.54.5-.08.98-.05,1.45-.05h17.85l.03.04c5.19,5.36,10.05,10.38,14.41,14.88l.03.03v.04c-.02,10.64-.03,19.45-.04,25.61,0,1.54,0,2.91-.03,4.1-.07,1.22-.74,2.13-1.37,2.64-.65.52-1.29.69-1.7.76-.21.04-.37.04-.48.04h-.16l-.07.03Z" fill="#1a2e35"/><path d="m92.8,238.27s-.1.02-.28.02c-.21,0-.48,0-.81.02-.74,0-1.75.02-2.98.04-1.27,0-2.76.02-4.42.03h-2.61c-.94-.02-1.9-.45-2.55-1.2-.33-.37-.58-.81-.72-1.27-.15-.46-.17-.96-.16-1.4v-2.61c0-1.66.02-3.15.03-4.42.02-1.23.03-2.24.04-2.98,0-.33.02-.6.02-.81,0-.19.02-.28.02-.28,0,0,.02.1.02.28,0,.21.01.48.02.81,0,.74.02,1.75.04,2.98,0,1.27.02,2.76.03,4.42v2.61c0,.46,0,.89.15,1.33.14.43.37.84.67,1.18.61.7,1.5,1.1,2.37,1.12.9,0,1.77,0,2.61,0,1.66,0,3.15.02,4.42.03,1.23.02,2.24.03,2.98.04.33,0,.6.02.81.02.19,0,.28.02.28.02h.02Z" fill="#1a2e35"/></g><path d="m77.83,233.61c0,.07-3.47.12-7.75.12s-7.75-.06-7.75-.12,3.47-.12,7.75-.12,7.75.06,7.75.12Z" fill="#1a2e35"/><path d="m85.18,239.32c0,.07-5.12.12-11.43.12s-11.43-.06-11.43-.12,5.12-.12,11.43-.12,11.43.06,11.43.12Z" fill="#1a2e35"/><path d="m85.18,245.03c0,.07-5.12.12-11.43.12s-11.43-.06-11.43-.12,5.12-.12,11.43-.12,11.43.06,11.43.12Z" fill="#1a2e35"/><path d="m85.18,250.74c0,.07-5.12.12-11.43.12s-11.43-.06-11.43-.12,5.12-.12,11.43-.12,11.43.06,11.43.12Z" fill="#1a2e35"/><path d="m85.18,256.45c0,.07-5.12.12-11.43.12s-11.43-.06-11.43-.12,5.12-.12,11.43-.12,11.43.06,11.43.12Z" fill="#1a2e35"/><path d="m85.18,262.16c0,.07-5.12.12-11.43.12s-11.43-.06-11.43-.12,5.12-.12,11.43-.12,11.43.06,11.43.12Z" fill="#1a2e35"/><path d="m53.71,252.28h16.51c2.33,0,4.22,1.89,4.22,4.22v2.77c0,2.33-1.89,4.22-4.22,4.22h-16.51c-2.33,0-4.22-1.89-4.22-4.22v-2.77c0-2.33,1.89-4.22,4.22-4.22Z" fill="#ff735d"/><g><path d="m59.26,257.47c0,.94-.71,1.53-1.84,1.53h-.85v1.17h-.98v-4.24h1.83c1.13,0,1.84.59,1.84,1.54Zm-.99,0c0-.47-.3-.74-.9-.74h-.8v1.47h.8c.6,0,.9-.27.9-.73Z" fill="#fff"/><path d="m59.95,255.93h1.92c1.39,0,2.34.84,2.34,2.12s-.95,2.12-2.34,2.12h-1.92v-4.24h0Zm1.88,3.43c.84,0,1.39-.5,1.39-1.31s-.55-1.31-1.39-1.31h-.9v2.63h.9Z" fill="#fff"/><path d="m65.93,256.71v1.12h1.96v.79h-1.96v1.54h-.98v-4.24h3.2v.79s-2.22,0-2.22,0Z" fill="#fff"/></g></g><g><g><g><path d="m252.23,242.59l10.61,13.95,5.21,13.45c.38.97,1.49,1.42,2.44.98h0c.53-.25.9-.73,1-1.3.66-3.65,3.02-17.07,2.19-18.05-.97-1.13-10.21-15.46-10.21-15.46l-11.23,6.43h-.01Z" fill="#ff735d"/><g opacity=".6"><path d="m270.48,270.97l2.5-20.31.44.6c.38.52.56,1.15.51,1.79-.13,1.71-.6,6.43-2.39,16.58-.1.59-.5,1.09-1.05,1.33h-.01Z" fill="#fff"/></g><g opacity=".6"><path d="m266.75,248.19c-.18.5.1,1.13.59,1.32.5.2,1.13-.08,1.32-.58s-.12-1.26-.63-1.4-1.24.22-1.3.75" fill="#fff"/></g><path d="m269.23,262.42c-.05.1-.91-.41-2.04-.2-1.14.18-1.78.95-1.86.87-.04-.03.06-.27.36-.55.29-.29.81-.59,1.43-.7.63-.11,1.21,0,1.58.18.38.17.55.37.52.4h.01Z" fill="#1a2e35"/><path d="m269.59,265.05c-.02.11-.81-.02-1.7.3-.89.3-1.43.9-1.51.83-.09-.04.37-.84,1.39-1.19,1.01-.36,1.87-.03,1.83.06h0Z" fill="#1a2e35"/><path d="m269.34,258.62c-.02.12-1.23-.09-2.65.29-1.43.36-2.39,1.13-2.46,1.04-.08-.06.83-1.02,2.36-1.41,1.53-.4,2.79,0,2.75.08Z" fill="#1a2e35"/><path d="m266.47,254.11c.02.11-1,.35-2.04,1.06-1.06.69-1.68,1.53-1.77,1.47-.09-.04.43-1.05,1.56-1.79,1.13-.75,2.25-.83,2.26-.73h-.01Z" fill="#1a2e35"/><path d="m263.46,249.94c.02.11-1.12.21-2.16,1.04-1.06.81-1.43,1.88-1.54,1.84-.04,0-.02-.3.17-.73.19-.42.57-.97,1.13-1.41.57-.44,1.19-.67,1.64-.75.46-.08.75-.03.75,0h0Z" fill="#1a2e35"/><path d="m260.76,250.17s-.19-.15-.41-.52c-.22-.37-.48-.94-.59-1.71-.04-.37-.12-.83.14-1.3.13-.24.45-.41.75-.35s.52.26.69.48c.64.91.5,2.34-.42,3.21-.94.85-2.28.94-3.24.45-.23-.14-.47-.34-.54-.66s.15-.63.38-.74c.47-.24.91-.19,1.29-.19.77.04,1.38.23,1.77.4.39.17.58.31.57.33-.02.07-.86-.44-2.35-.46-.36,0-.79,0-1.12.19-.16.09-.24.24-.21.4.03.15.19.31.38.41.8.39,2.03.31,2.81-.42.78-.72.9-1.98.4-2.72-.12-.18-.3-.32-.47-.35-.17-.04-.33.04-.42.19-.2.31-.16.74-.14,1.1.16,1.48.8,2.24.73,2.27h0Z" fill="#1a2e35"/></g><g><g><path d="m241.18,250.03l-1.08,14.25s14.14,4.84,14.2,7.5l-27.72-.06.77-22.27,13.83.59h0Z" fill="#ff735d"/><g opacity=".6"><path d="m231.59,262.73c-.54.13-.94.71-.83,1.26.1.55.7.95,1.24.84.54-.12,1.04-.81.88-1.34-.16-.53-.89-.97-1.39-.73" fill="#fff"/></g><g opacity=".6"><path d="m226.58,271.71l.08-2.24,26.77.99s.89.39,1.02,1.52l-27.86-.26h-.01Z" fill="#fff"/></g><path d="m240.56,264.15c0,.14-.69.17-1.37.58-.69.39-1.06.96-1.18.9-.12-.03.11-.83.95-1.31.83-.49,1.64-.29,1.61-.17h-.01Z" fill="#1a2e35"/><path d="m243.42,265.47c.03.13-.57.34-1.05.89-.5.54-.64,1.15-.77,1.14-.13.02-.19-.78.42-1.46s1.4-.71,1.4-.58h0Z" fill="#1a2e35"/><path d="m244.93,269.01c-.12.02-.29-.66.09-1.39.37-.73,1.02-1,1.07-.88.07.11-.35.5-.65,1.1-.31.59-.38,1.16-.51,1.17h0Z" fill="#1a2e35"/><path d="m240.44,260.88c-.06.12-.67-.09-1.44-.07-.77,0-1.37.24-1.44.12-.07-.1.53-.58,1.43-.59.9-.02,1.52.44,1.45.54h0Z" fill="#1a2e35"/></g><g opacity=".3"><polygon points="240.97 252.85 240.78 255.39 227.17 254.72 227.24 252.43 240.97 252.85"/></g><path d="m240.61,258c0,.06-.54.12-1.39-.06-.42-.09-.92-.25-1.43-.5-.26-.13-.52-.28-.78-.45-.12-.09-.27-.18-.41-.34-.14-.15-.22-.51-.03-.72.15-.21.4-.29.61-.29s.37.05.52.09c.31.09.59.2.85.33.52.26.94.58,1.25.89.62.62.82,1.13.77,1.16-.06.04-.36-.39-.99-.91-.32-.26-.72-.53-1.21-.75-.24-.11-.51-.2-.79-.28-.29-.09-.54-.1-.62.03-.03.05-.03.07.02.16.06.08.18.16.3.25.24.17.48.32.72.45.47.26.93.44,1.32.57.78.25,1.31.31,1.3.38h-.01Z" fill="#1a2e35"/><path d="m240.42,258.19s-.3-.48-.31-1.35c0-.44.06-.96.25-1.51.1-.27.22-.55.39-.83.17-.27.39-.63.91-.67.27,0,.49.22.56.41.08.19.1.35.12.51.04.33.02.64-.04.93-.11.59-.37,1.07-.65,1.41-.57.7-1.14.84-1.15.79-.04-.07.44-.31.88-.99.22-.33.42-.77.49-1.29.04-.26.04-.53,0-.8-.03-.3-.13-.54-.24-.51-.14,0-.38.2-.5.44-.15.24-.28.49-.37.74-.19.49-.29.97-.32,1.37-.07.81.05,1.32-.02,1.34h0Z" fill="#1a2e35"/></g><g><path d="m250.15,128.16s6.52,12.51,6.52,22.64c0,2.14-12.37,103.4-12.37,103.4l-18.74-1.57,8.21-93.19-2.94-19.94,19.31-11.34h.01Z"/><path d="m208.43,139.24s4.38,36.57,6.43,50.66c2.15,14.75,6.38,17.54,6.38,17.54l33.86,43.33,13.26-11.95-29.67-43.35s-5.79-56.87-5.51-55.45c.28,1.43-24.76-.79-24.76-.79h0Z"/><path d="m221.9,208.05s.1.16.32.45c.24.31.56.73.96,1.25.87,1.11,2.07,2.67,3.56,4.58,2.99,3.92,7.09,9.28,11.61,15.2,4.53,5.95,8.65,11.31,11.7,15.14,1.52,1.92,2.78,3.45,3.65,4.5.42.5.76.9,1.02,1.2.24.27.37.41.38.4,0,0-.1-.16-.32-.45-.24-.31-.56-.73-.96-1.25-.87-1.11-2.07-2.67-3.56-4.58-2.99-3.92-7.09-9.28-11.61-15.2-4.52-5.94-8.65-11.31-11.7-15.13-1.52-1.92-2.78-3.45-3.65-4.5-.42-.5-.76-.9-1.02-1.2-.24-.27-.37-.41-.38-.4h0Z" fill="#fff"/></g><g><path d="m241.04,66.35s6.55,3.93,8.52,7.42,12.45,29.04,12.01,33.19c-.44,4.15-10.26,6.77-10.26,6.77l-10.27-13.32,6.11-4.15-6.11-7.64v-22.27h0Z" fill="#ff735d"/><path d="m230.46,62.95l10.58,3.39s4.8,45.64,7.21,52.19c2.4,6.55,3.06,14.19,3.06,14.19,0,0-1.36,12.76-16.21,14.51s-26.66-7.06-26.66-7.06c0,0-8.89-22.52-11.51-41.73-2.62-19.22-.81-30.18-.81-30.18l16.28-5.84,18.06.53Z" fill="#ff735d"/><path d="m199.11,69.62c.45.47,6.99,4.8,9.17,12.23,2.18,7.42,4.59,15.07,4.59,15.07l8.52,1.09-4.8,19.65s-10.26-1.09-15.94-10.48c-5.68-9.39-9.17-20.96-9.17-20.96,0,0,.72-23.8,7.64-16.6h0Z" fill="#ff735d"/><path d="m251.31,113.73s-23.79,4.75-32.43-5.48l2.5-8.69s15.72,3.72,20.63,2.12l9.3,12.06h0Z" fill="#fff"/><g><path d="m218.47,97.64s-3.62-8.09-4.1-8.19c-.48-.11-7.46-2.56-7.46-2.56,0,0-.37.96,0,1.76l-2.5.32s.37,1.55,1.23,1.76l-.91.8s.75,1.02,1.71,1.44c.96.42,1.65,0,1.65,0,0,0-.32.58,1.12,1.49,1.44.91,3.89,2.24,3.89,2.24l5.38.95h0Z" fill="#fff"/><path d="m213.09,96.71h0s-2.47-1.34-3.89-2.24c-1.22-.77-1.19-1.3-1.14-1.46-.17.08-.8.34-1.62-.02-.95-.42-1.71-1.44-1.71-1.45h0l.89-.8c-.83-.24-1.19-1.7-1.21-1.76v-.02l2.5-.32c-.35-.79,0-1.74,0-1.75v-.02h.02c.07.02,6.98,2.45,7.46,2.56.48.11,3.96,7.87,4.11,8.2v.03l-5.4-.95h0Zm-6.16-8.07v.02l-2.5.32c.05.18.43,1.53,1.21,1.73h.03l-.92.82c.09.12.81,1.04,1.69,1.43.94.41,1.63,0,1.63,0l.06-.03-.03.06s-.29.58,1.11,1.46,3.79,2.19,3.89,2.24l5.34.94c-1.25-2.8-3.7-8.07-4.07-8.15-.46-.1-7.06-2.42-7.44-2.55-.05.13-.33,1,0,1.73v-.02Z" fill="#ff9a6c"/></g><path d="m207.13,88.67c-.03.1,2.01.9,4.57,1.78.63.23,1.27.4,1.77.64.5.23.82.63,1.04.99.42.75.57,1.3.64,1.27.03-.01-.02-.56-.4-1.4-.2-.41-.55-.89-1.12-1.18-.55-.28-1.17-.46-1.81-.69-2.56-.88-4.66-1.52-4.69-1.42h0Z"/><path d="m205.5,90.72s.46.25,1.26.46c.8.22,1.93.4,3.12.72s2.2.83,2.83,1.33c.64.49.92.93.97.89.04-.02-.17-.52-.8-1.09-.62-.58-1.67-1.16-2.9-1.49-1.23-.33-2.36-.47-3.17-.62-.81-.14-1.3-.25-1.32-.2h.01Z"/><path d="m211.9,94.41c.07-.07-.59-.75-1.67-1.13-1.08-.39-2.02-.28-2.01-.18,0,.11.88.17,1.89.54,1.01.35,1.73.86,1.8.78h-.01Z"/><g><path d="m220.66,100.12l19.93-5.57,5.94,6.47s-20.28,15.89-29.55,15.64" fill="#fff"/><path d="m216.97,116.65s.9.11,2.48-.18c1.59-.28,3.82-1,6.43-2.19,5.23-2.38,12-6.58,19.02-11.8.59-.44,1.17-.89,1.74-1.32l.16-.12-.14-.15c-2.09-2.27-4.09-4.44-5.95-6.46l-.07-.08-.1.03c-5.8,1.65-10.77,3.06-14.32,4.08-1.73.51-3.12.91-4.11,1.2-.45.14-.81.25-1.09.33-.25.08-.37.12-.37.13,0,0,.13-.02.39-.08.28-.07.65-.16,1.1-.28,1-.27,2.39-.64,4.13-1.1,3.56-.98,8.54-2.35,14.36-3.94l-.18-.05c1.85,2.02,3.85,4.2,5.93,6.48l.02-.28c-.57.43-1.15.87-1.73,1.32-7,5.21-13.73,9.43-18.9,11.86-2.58,1.22-4.78,1.97-6.35,2.29-.39.09-.74.15-1.04.18-.3.04-.56.08-.77.08-.42.02-.64.04-.64.05h0Z"/></g><path d="m207.61,77.4c-.05.01.06.62.29,1.59.23.97.56,2.3.96,3.76.4,1.46.77,2.78,1.07,3.73s.5,1.53.55,1.52-.06-.62-.29-1.59-.56-2.3-.96-3.76c-.4-1.46-.77-2.78-1.07-3.73-.29-.95-.5-1.53-.55-1.52Z" fill="#1a2e35"/><path d="m208.54,104.07c.07.02.26-.99.76-2.52.26-.76.63-1.66,1.29-2.48.65-.81,1.6-1.57,2.78-1.76,1.18-.17,2.34.2,3.4.39,1.03.2,1.98.39,2.81.56.4.08.76.14,1.03.27.28.13.45.33.52.53.15.41-.06.64-.03.65,0,.03.3-.19.17-.69-.06-.24-.26-.51-.56-.67-.3-.17-.68-.25-1.08-.34-.83-.19-1.77-.4-2.8-.64-1.05-.2-2.22-.6-3.53-.42-1.31.21-2.34,1.05-3,1.92-.68.88-1.03,1.83-1.27,2.62-.23.79-.35,1.45-.43,1.9-.07.45-.1.7-.07.71v-.03Z" fill="#1a2e35"/><path d="m205.61,99.76c.11.06.67-1.55,2.32-2.68,1.62-1.14,3.3-1.31,3.27-1.44,0-.05-.42-.06-1.08.08s-1.56.45-2.41,1.05c-.85.6-1.45,1.36-1.75,1.96-.31.6-.39,1.02-.35,1.03Z" fill="#1a2e35"/><path d="m191.47,86.22s.03.15.12.42c.1.31.23.7.4,1.18.37,1.07.87,2.53,1.48,4.31.64,1.82,1.38,3.99,2.44,6.32,1.11,2.3,2.32,4.82,3.83,7.37,1.52,2.54,3.38,4.71,5.35,6.35,1.96,1.66,3.98,2.84,5.76,3.59,1.79.75,3.33,1.1,4.4,1.24.54.07.95.11,1.24.11.28.01.43.01.43,0,0-.04-.59-.07-1.65-.26-1.05-.19-2.57-.56-4.32-1.34-3.49-1.52-7.92-4.82-10.89-9.9-1.5-2.51-2.72-5.04-3.84-7.32-1.07-2.3-1.84-4.46-2.51-6.27-.66-1.81-1.2-3.27-1.6-4.27-.19-.47-.34-.85-.46-1.15-.11-.26-.17-.4-.19-.39h.01Z" fill="#1a2e35"/><path d="m197.63,70.13c-.04.11,1.64.7,3.51,1.82,1.88,1.1,3.21,2.28,3.29,2.2.07-.06-1.17-1.4-3.09-2.52-1.91-1.14-3.68-1.58-3.7-1.49h0Z" fill="#1a2e35"/><path d="m241.82,86.6c.1-.02-.16-1.68-.59-3.71s-.85-3.65-.96-3.63c-.1.02.16,1.68.59,3.71s.85,3.65.96,3.63Z" fill="#1a2e35"/><path d="m213.92,122.31s.38.22,1.1.55c.36.17.8.37,1.33.57.52.21,1.12.46,1.79.68,1.34.48,2.96.96,4.79,1.39,1.83.41,3.87.75,6.03.95,2.16.18,4.23.2,6.11.12,1.88-.1,3.56-.28,4.96-.53.7-.1,1.33-.24,1.88-.36.55-.11,1.02-.23,1.41-.33.77-.2,1.19-.33,1.18-.35,0-.03-.44.05-1.21.21-.39.08-.86.18-1.41.27s-1.18.22-1.88.3c-1.4.21-3.07.36-4.93.44-1.86.06-3.92.03-6.06-.15-2.14-.2-4.17-.53-5.99-.91-1.82-.41-3.44-.85-4.78-1.3-.68-.2-1.27-.44-1.8-.62s-.98-.36-1.35-.51c-.73-.29-1.15-.44-1.16-.42h0Z" fill="#1a2e35"/><path d="m231.36,133.47c.02.1,2-.3,4.35-1.08s4.17-1.65,4.13-1.74c-.04-.1-1.91.61-4.25,1.38-2.33.78-4.25,1.34-4.23,1.44h0Z" fill="#1a2e35"/><g opacity=".3"><path d="m223.11,115.49c1.41-.59,2.76-1.39,4.27-1.62,1.84-.28,3.37.27,5.21.55,5.47.86,9.55.2,14.71-.02l.28,1.58c-2.27,1.77-5.12,2.33-8,2.28-2.61-.05-5.17-.9-7.78-.83-2.06.06-4.05.69-6.04,1.21-3.33.88-6.81,1.5-10.21.91-3.39-.59-6.7-2.57-8.13-5.7,4.51,3.12,10.64,3.76,15.7,1.62v.02Z"/></g><g opacity=".3"><path d="m239.25,131.37c-2.18,3.69-6.2,6.23-10.46,6.61-.92.08-1.88.07-2.76-.23-.88-.29-1.69-.89-2.08-1.73.95-.7,2.11-1.03,3.25-1.34,3.97-1.09,7.95-2.18,11.92-3.27"/></g></g><g><path d="m245.68,100.86l7.69.28c.77.03,1.49-.67,1.81-1.77l5.85-19.75c.56-1.88-.25-3.98-1.57-4.07l-11.06-.69c-.83-.05-1.61.76-1.9,1.99l-3.96,16.7c-.84,3.54.74,7.22,3.14,7.31Z"/><path d="m251.09,92.58c.86.89,5.68-3.02,7.1-2.73,1.42.29,2.28,1.11,1.49,1.72-.79.6-2.78,2.6-3.09,3.43,0,0-.15-3.5.23-2.94.38.57,1.01,1.47.09,1.87-.92.4.5,3.49-.18,3.87-.68.39-3.06,1.21-3.55,1.23-.26.01-2.05.72-3.7,1.38-1.86.75-3.93.8-5.82.13l-.96-.34c-1.5-.53-2.5-1.95-2.48-3.54l.03-3.19-1.15-2.58,2.05-4.33,3.36-1.12-1.29,4.02c1.32.64,3.57,1.09,4.71.46s5.6-5.07,6.44-4.64,1.59,1.44.82,2.42c-.77.97-4.95,3.99-4.09,4.89" fill="#fff"/></g><path d="m268.27,238.62s-.03-.07-.12-.2c-.09-.14-.22-.34-.37-.58-.35-.52-.84-1.26-1.46-2.19-1.3-1.92-3.15-4.66-5.44-8.03-4.63-6.78-11.01-16.12-18.05-26.43-1.36-1.99-2.7-3.94-3.98-5.81l.03.08c-.9-10.79-1.69-20.31-2.26-27.15-.3-3.39-.54-6.12-.7-8.03-.09-.92-.16-1.65-.21-2.16-.03-.23-.05-.42-.06-.56-.02-.13-.03-.19-.03-.19v.19c0,.14.02.33.03.56.03.52.08,1.24.15,2.17.14,1.91.35,4.64.6,8.04.54,6.84,1.29,16.36,2.15,27.16v.05l.03.04c1.28,1.87,2.62,3.82,3.98,5.81,7.08,10.29,13.48,19.61,18.14,26.37,2.33,3.35,4.21,6.07,5.53,7.97.65.92,1.16,1.65,1.52,2.16.17.23.3.42.4.56.09.12.14.19.15.18h-.03Z" fill="#fff"/><path d="m228.72,151.97c-.05.09,1.66,1.16,3.55,2.76,1.9,1.59,3.25,3.09,3.33,3.02.03-.03-.26-.44-.8-1.06-.54-.62-1.34-1.42-2.3-2.23s-1.89-1.45-2.59-1.88c-.7-.43-1.16-.65-1.18-.61h-.01Z" fill="#fff"/><path d="m235.45,157.53c0,.09,1.06-.07,2.14-.74,1.09-.66,1.71-1.51,1.64-1.56-.08-.07-.78.64-1.82,1.26-1.03.64-1.99.94-1.96,1.04h0Z" fill="#fff"/><path d="m209.91,148.97c.02.1,1.85-.12,4.12-.25,2.27-.13,4.12-.11,4.12-.22,0-.09-1.85-.27-4.14-.14s-4.12.51-4.1.6h0Z" fill="#fff"/><path d="m249.37,140.97s.26.2.76.32c.49.12,1.21.18,1.99.05.77-.14,1.43-.45,1.85-.73.42-.29.63-.53.6-.56-.06-.09-1.04.7-2.51.95-1.46.28-2.66-.13-2.68-.02h-.01Z" fill="#fff"/><path d="m193.15,84.4s.18.13.54.31c.36.19.9.41,1.58.64.68.23,1.53.43,2.47.56.95.12,2,.17,3.11.1,1.1-.08,2.14-.28,3.06-.54.92-.27,1.72-.58,2.37-.9s1.15-.61,1.48-.85c.33-.23.51-.37.49-.39-.04-.06-.77.44-2.07,1.01-.65.29-1.45.57-2.35.82-.91.23-1.92.41-3,.5-1.08.07-2.11.03-3.04-.07-.93-.12-1.76-.28-2.44-.48-1.37-.38-2.17-.77-2.2-.71h0Z" fill="#fff"/><path d="m245.53,81.32c-.03-.1-.88.12-1.94.19-1.06.08-1.93-.02-1.95.08-.02.09.86.35,1.97.27,1.12-.08,1.95-.46,1.91-.54h0Z" fill="#fff"/><path d="m208.97,81.14c0,.1,7.18.8,16.04,1.57,8.87.77,16.07,1.32,16.08,1.22,0-.1-7.17-.8-16.05-1.57-8.87-.77-16.07-1.32-16.07-1.22Z" fill="#fff"/></g><g><g><g><path d="m213.92,65.32h0c-.31-.62-.47-1.31-.45-2l.81-26.23c-.31-7.3,3.68-13.57,10.99-13.68l.68.03c6.8.3,12.24,5.77,12.49,12.57.23,6.33.41,13.33.22,16.71-.39,7-7.45,7.79-7.45,7.79l-.23,2.73s.55,4.73-4.94,6.34c-4.22,1.24-8.85-1.42-10.76-2.72-.58-.39-1.04-.92-1.36-1.55h0Z" fill="#fff" stroke="#231f20" stroke-miterlimit="10" stroke-width=".5"/><path d="m231.27,60.5s-4.49.07-9.06-3.09c0,0,1.94,5.14,8.96,4.81l.11-1.72h-.01Z"/><path d="m234.53,41.67c0,.53-.46.96-1.01.97-.55,0-1-.42-.99-.95,0-.53.46-.96,1.01-.97.55,0,1,.42.99.95Z" fill="#231f20"/><path d="m236.78,39.37c-.13.13-.86-.47-1.94-.51-1.08-.06-1.89.46-2,.32-.05-.06.08-.29.44-.53.35-.23.94-.45,1.61-.42.67.03,1.22.3,1.54.57.32.27.42.51.36.57h0Z" fill="#231f20"/><path d="m224.1,41.67c0,.53-.46.96-1.01.97-.55,0-1-.42-.99-.95,0-.53.46-.96,1.01-.97.55,0,1,.42.99.95Z" fill="#231f20"/><path d="m226.19,39.11c-.13.13-.86-.47-1.94-.51-1.07-.06-1.89.46-2,.32-.05-.06.08-.29.44-.53.35-.23.94-.45,1.61-.42.67.03,1.22.3,1.54.57.32.27.42.51.36.57h0Z" fill="#231f20"/><path d="m229.75,47.27c0-.06.67-.15,1.76-.24.28-.02.54-.06.59-.25.07-.2-.03-.5-.15-.82-.23-.68-.47-1.39-.72-2.13-1-3.03-1.71-5.52-1.59-5.56.12-.04,1.03,2.39,2.03,5.42.24.75.47,1.46.69,2.14.09.32.25.68.1,1.09-.08.2-.29.34-.47.38-.18.05-.33.04-.47.04-1.09,0-1.77,0-1.77-.07Z" fill="#1a2e35"/><path d="m226.65,34.9c-.12.29-1.19.1-2.46.2-1.27.07-2.31.4-2.46.13-.07-.13.12-.4.54-.66.42-.27,1.08-.51,1.85-.56.76-.05,1.45.1,1.9.31.46.21.68.45.63.58h0Z" fill="#231f20"/><path d="m236.52,36.24c-.2.24-.93-.05-1.82-.1-.89-.08-1.65.09-1.82-.17-.07-.13.06-.37.4-.58.34-.22.89-.38,1.5-.34.61.05,1.13.29,1.43.55.3.27.4.52.31.64h0Z" fill="#231f20"/><path d="m215.11,43.95c0-1.08-.89-1.98-1.97-1.92-1.31.07-2.8.75-2.83,3.45-.06,4.8,4.77,3.86,4.78,3.73,0-.09.02-3.25.02-5.25h0Z" fill="#fff" stroke="#231f20" stroke-miterlimit="10" stroke-width=".5"/><path d="m214.06,47.39s-.08.06-.23.12c-.14.06-.38.1-.62,0-.5-.19-.92-1-.94-1.87,0-.44.09-.85.25-1.19.15-.35.38-.59.64-.63.25-.06.43.1.49.23.06.13.03.23.06.24,0,0,.1-.08.07-.28-.02-.1-.07-.21-.19-.3-.11-.1-.28-.14-.46-.13-.37.02-.71.36-.88.73-.19.38-.31.84-.31,1.33.02.97.5,1.88,1.2,2.09.34.09.62,0,.77-.12.15-.12.18-.22.16-.23h-.01Z"/></g><path d="m238.43,35.81c.07.97,1.31-2.31.81-3.14,1.38.38,2.97-.67,3.17-2.09.2-1.42-1.04-2.86-2.47-2.88.51-.86.32-2.08-.42-2.75-.26-.23-.79-.42-1.41-.55.02-.59-.14-1.18-.41-1.71-.59-1.15-1.73-1.99-2.99-2.23-1.27-.24-2.63.14-3.6.99-.81-1.1-2.18-1.76-3.54-1.71s-2.68.8-3.41,1.95c-1.23-.75-2.87-.77-4.11-.05-.79.46-1.4,1.2-1.73,2.04-1.18-.64-2.82-.45-3.72.57-.38.42-.63.95-1.07,1.31-.5.42-1.17.56-1.74.86-1.76.95-2.18,3.69-.78,5.12-.66.54-1.33,1.1-1.79,1.82-.45.72-.66,1.66-.32,2.44.41.94,1.48,1.47,1.88,2.41.18.44.2.93.37,1.37.29.75.93,1.2,1.69,1.5.45,1.93,1.8,2.46,1.84,3.03.4,5.97,2.85,2.5,4.09-10.07.29-2.95-.79-4.46,1.54-6.28.33.35.56.79.86,1.18,1.36,1.79,4.4,1.89,5.88.21.54.92,1.53,1.55,2.59,1.66s2.15-.32,2.87-1.1c.86.77,2.87,2.07,4.39.68,0,0,1.33,2.13,1.57,5.41h-.04Z"/></g><g><path d="m230.05,49.68c-.17.44-.35.89-.64,1.26s-.72.67-1.19.69c-.5.02-.99-.27-1.27-.69s-.38-.94-.35-1.44c.02-.45.23-1,.68-1.05.19-.02.37.05.55.12.79.32,1.58.64,2.38.96"/><path d="m229.1,51.63c0-.07-.53.14-1.27-.16-.36-.14-.74-.43-.96-.87-.21-.44-.26-1.03-.03-1.55.05-.13.13-.25.21-.36.09-.1.08-.09.18-.08.1.03.25.1.38.15.13.05.26.11.39.16.51.21.97.39,1.36.53.78.29,1.27.44,1.29.39.02-.05-.43-.3-1.18-.67-.37-.18-.82-.39-1.32-.61-.13-.06-.25-.11-.38-.17-.14-.06-.24-.12-.43-.18-.09-.03-.22-.04-.35,0s-.2.14-.26.21c-.11.14-.2.29-.27.45-.28.65-.21,1.37.07,1.9.29.54.79.85,1.21.98.43.13.8.1,1.03.04.24-.06.35-.14.34-.17h0Z" fill="#1a2e35"/></g></g></g><g><path d="m116.87,81.13h-1.39l-.76-1.39c-.12-.23-.24-.4-.37-.51s-.26-.18-.42-.19h-.36v2.1h-1.22v-5.6h1.97c.67,0,1.17.13,1.51.39s.51.66.51,1.19c0,.37-.11.69-.33.96s-.52.47-.89.6v.02c.16.05.31.16.46.32s.26.33.36.51l.92,1.61Zm-3.29-4.68v1.65h.57c.28,0,.5-.08.67-.25s.25-.37.25-.62-.07-.45-.22-.58-.37-.2-.67-.2h-.59Z"/><path d="m122.54,81.13h-3.33v-5.6h3.2v1h-1.98v1.29h1.85v1h-1.85v1.33h2.11v.99Z"/><path d="m126.35,79.28v1.85h-1.22v-5.6h1.95c.7,0,1.23.15,1.58.46s.53.76.53,1.37c0,.58-.2,1.04-.6,1.39s-.94.53-1.61.53h-.61Zm0-2.8v1.87h.51c.34,0,.6-.08.78-.24s.26-.39.26-.71-.09-.54-.26-.7-.43-.23-.78-.23h-.51Z"/><path d="m134.05,81.23c-.8,0-1.45-.26-1.96-.78s-.76-1.2-.76-2.04c0-.89.26-1.6.77-2.15s1.19-.82,2.04-.82c.8,0,1.44.26,1.93.79s.74,1.21.74,2.07-.26,1.59-.77,2.13-1.18.81-2,.81Zm.02-1.06c.45,0,.81-.16,1.07-.48s.39-.76.39-1.33-.13-1.05-.38-1.38-.6-.49-1.04-.49-.81.17-1.08.51-.4.78-.4,1.34.13,1.01.4,1.34.62.49,1.05.49Z"/><path d="m143.94,81.13h-1.39l-.76-1.39c-.12-.23-.24-.4-.37-.51-.12-.11-.26-.18-.42-.19h-.36v2.1h-1.22v-5.6h1.97c.67,0,1.17.13,1.51.39.34.26.51.66.51,1.19,0,.37-.11.69-.33.96-.22.27-.51.47-.89.6v.02c.16.05.31.16.46.32.14.16.26.33.36.51l.92,1.61Zm-3.29-4.68v1.65h.57c.28,0,.5-.08.67-.25s.25-.37.25-.62-.07-.45-.22-.58-.37-.2-.67-.2h-.59Z"/><path d="m149.81,76.52h-1.6v4.61h-1.22v-4.61h-1.59v-1h4.42v1Z"/></g></svg>