<?xml version="1.0" encoding="UTF-8"?><svg id="Layer_1" xmlns="http://www.w3.org/2000/svg" viewBox="0 0 269.86 293.89"><g><path d="m0,136.37v32.93c0,5.96,4.83,10.79,10.79,10.79h118.09c5.96,0,10.79-4.83,10.79-10.79v-27.83l14.7-15.45-143.54-.45c-5.97-.02-10.82,4.82-10.82,10.79Z" fill="#f5f5f5"/><polygon points="122.26 145.53 15.1 145.04 15.11 141.74 122.27 142.24 122.26 145.53" fill="#e0e0e0"/><polygon points="122.26 156.37 15.1 155.87 15.11 152.58 122.27 153.07 122.26 156.37" fill="#e0e0e0"/><rect x="99.42" y="143.98" width="3.29" height="42.4" transform="translate(-64.61 265.43) rotate(-89.72)" fill="#e0e0e0"/></g><g><path d="m109.42,250.16v32.93c0,5.96,4.83,10.79,10.79,10.79h118.09c5.96,0,10.79-4.83,10.79-10.79v-27.83l14.7-15.45-143.54-.45c-5.97-.02-10.82,4.82-10.82,10.79Z" fill="#f5f5f5"/><polygon points="232.19 258.47 125.03 257.98 125.05 254.68 232.2 255.18 232.19 258.47" fill="#e0e0e0"/><polygon points="232.19 269.31 125.03 268.81 125.05 265.52 232.2 266.01 232.19 269.31" fill="#e0e0e0"/><rect x="209.35" y="256.92" width="3.29" height="42.4" transform="translate(-68.15 487.74) rotate(-89.72)" fill="#e0e0e0"/></g><path d="m63.12,12.31h69.65c3.45,0,6.24,2.79,6.24,6.24v34.07c0,3.45-2.8,6.24-6.24,6.24h-59.1c-3.45,0-6.24-2.79-6.24-6.24V16.62l-4.3-4.3Z" fill="#f5f5f5"/><g><path d="m103.5,45.43v21.84c0,3.95-3.2,7.16-7.16,7.16H18.02c-3.95,0-7.16-3.2-7.16-7.16v-18.46L1.11,38.57l95.21-.3c3.96-.01,7.18,3.19,7.18,7.16Z" fill="#e0e0e0"/><polygon points="22.41 51.51 93.48 51.18 93.47 48.99 22.4 49.32 22.41 51.51" fill="#f5f5f5"/><polygon points="22.41 58.69 93.48 58.37 93.47 56.18 22.4 56.51 22.41 58.69" fill="#f5f5f5"/><rect x="22.4" y="63.44" width="28.12" height="2.18" transform="translate(-.32 .18) rotate(-.28)" fill="#f5f5f5"/></g><g><path d="m251.86,146.72v21.84c0,3.95-3.2,7.16-7.16,7.16h-78.32c-3.95,0-7.16-3.2-7.16-7.16v-18.46l-9.75-10.24,95.21-.3c3.96-.01,7.18,3.19,7.18,7.16Z" fill="#e0e0e0"/><polygon points="170.78 152.8 241.85 152.47 241.84 150.28 170.77 150.61 170.78 152.8" fill="#f5f5f5"/><polygon points="170.78 159.98 241.85 159.65 241.84 157.47 170.77 157.8 170.78 159.98" fill="#f5f5f5"/><rect x="170.77" y="164.73" width="28.12" height="2.18" transform="translate(-.81 .91) rotate(-.28)" fill="#f5f5f5"/></g><g><path d="m184.77,255.15c-11.71-11.4-11.9-29.03-8.85-44.35.51-2.56.67-5.32,2.26-7.37,1.59-2.06,4.7-3.13,6.83-1.67,1.76,1.21,2.23,3.57,3,5.58,1.02,2.68,2.81,5.05,5.09,6.75,1.5,1.12,3.44,1.97,5.2,1.34,2.42-.86,3.18-3.88,3.59-6.44.75-4.77,1.5-9.55,2.25-14.32.4-2.56.82-5.17,2.02-7.47,1.19-2.3,3.32-4.26,5.87-4.55,2.55-.28,5.32,1.61,5.43,4.2.04,1.08-.35,2.12-.45,3.2-.1,1.07.2,2.33,1.16,2.79.97.47,2.11-.09,3-.71,3.06-2.15,5.4-5.18,7.62-8.22,2.22-3.03,4.4-6.16,7.25-8.58,2.86-2.42,6.54-4.11,10.23-3.72,3.7.39,7.23,3.29,7.57,7.04.34,3.76-2.37,7.07-5.13,9.62-4.11,3.78-8.75,6.95-13.74,9.39-.9.44-1.88.92-2.34,1.81-.83,1.61.5,3.57,2.1,4.41,1.8.95,3.9,1.09,5.86,1.65,1.96.56,3.97,1.8,4.42,3.8.62,2.79-2.02,5.17-4.46,6.61-4.9,2.89-10.28,4.92-15.84,5.99-1.99.38-4.07.66-5.81,1.73-1.73,1.07-3.03,3.22-2.4,5.17.62,1.95,2.88,2.92,4.91,2.87,2.03-.04,3.97-.82,5.96-1.22,3.73-.75,8.23.23,9.99,3.64,1.15,2.24.83,5.04-.31,7.3-1.14,2.26-2.99,4.06-4.91,5.69-6.72,5.69-14.8,9.83-23.42,11.32-8.62,1.49-16.3,1.02-23.92-3.27" fill="#a9c250"/><path d="m182.7,266.54c1.56-6.01,4.08-13,7.63-20.4,3.54-7.4,8.1-15.2,13.14-23.19,1.27-1.99,2.52-3.96,3.76-5.9,1.24-1.93,2.46-3.85,3.78-5.65,2.62-3.62,5.41-6.89,8.16-9.92,2.75-3.03,5.46-5.81,8.02-8.38,2.57-2.57,5-4.92,7.31-6.97,4.61-4.12,8.72-6.99,11.62-8.85,1.45-.93,2.6-1.62,3.38-2.08.38-.22.67-.39.89-.51.2-.11.31-.17.31-.16,0,0-.09.08-.29.2-.22.14-.5.32-.87.55-.77.48-1.9,1.19-3.33,2.15-2.86,1.9-6.93,4.81-11.5,8.95-2.29,2.06-4.71,4.42-7.26,7-2.55,2.59-5.25,5.37-7.98,8.4-2.73,3.03-5.5,6.3-8.1,9.9-1.31,1.79-2.52,3.7-3.76,5.64-1.23,1.94-2.49,3.91-3.75,5.9-5.04,7.98-9.59,15.75-13.15,23.12-3.56,7.36-6.11,14.31-7.7,20.29" fill="#263238"/><path d="m211.14,211.41s-.06-.4-.07-1.13c-.02-.73-.01-1.78.02-3.09.06-2.61.25-6.2.49-10.17.23-3.97.38-7.56.4-10.15.01-1.3.01-2.35,0-3.08,0-.73,0-1.13.04-1.13.03,0,.08.4.15,1.12.07.73.12,1.78.15,3.08.07,2.61-.02,6.21-.26,10.18-.24,3.91-.46,7.45-.63,10.15-.07,1.22-.12,2.25-.17,3.08-.04.73-.08,1.13-.11,1.13Z" fill="#263238"/><path d="m245.04,210.64s-.48.01-1.34-.06c-.86-.06-2.09-.16-3.63-.23-3.07-.17-7.31-.25-11.99-.14-4.69.12-8.92.41-11.98.71-1.53.14-2.77.28-3.62.38-.85.1-1.33.14-1.34.1,0-.03.46-.13,1.31-.29.85-.15,2.08-.35,3.61-.53,3.06-.39,7.31-.73,12.01-.85,4.7-.11,8.96.03,12.03.28,1.54.12,2.77.27,3.63.39.85.13,1.32.21,1.32.24Z" fill="#263238"/><path d="m190.84,245.61s-.07-.15-.16-.44c-.1-.35-.22-.77-.37-1.28-.31-1.11-.73-2.74-1.21-4.75-.97-4.03-2.13-9.63-3.34-15.84-1.2-6.21-2.31-11.81-3.2-15.86-.44-1.97-.79-3.58-1.06-4.78-.11-.52-.21-.95-.28-1.3-.06-.3-.08-.46-.07-.46.02,0,.07.15.16.44.1.35.22.77.37,1.28.31,1.11.73,2.74,1.21,4.75.97,4.03,2.13,9.63,3.34,15.84,1.2,6.2,2.31,11.81,3.2,15.85.44,1.97.79,3.58,1.06,4.78.11.52.21.95.28,1.3.06.3.08.46.07.46Z" fill="#263238"/><path d="m236.84,238.68s-.16.05-.46.11c-.36.06-.8.13-1.34.22-1.23.19-2.9.44-4.93.75-4.16.63-9.9,1.58-16.24,2.63-6.34,1.05-12.09,1.94-16.27,2.49-2.09.27-3.78.48-4.95.6-.54.05-.99.09-1.35.13-.31.02-.47.03-.47.01,0-.02.16-.05.46-.11.36-.06.8-.13,1.34-.22,1.23-.19,2.9-.44,4.93-.75,4.16-.63,9.9-1.58,16.24-2.63,6.34-1.05,12.09-1.94,16.26-2.49,2.09-.28,3.78-.48,4.95-.6.54-.05.99-.09,1.35-.13.31-.02.47-.03.47-.01Z" fill="#263238"/></g><g><path d="m68.47,99.7c-2.14-1.66-3.09-4.59-2.65-7.26.45-2.67,2.17-5.03,4.4-6.56,1.03-.71,2.31-1.27,3.51-.91,1.12.33,1.9,1.42,2.13,2.57.23,1.15-.02,2.34-.4,3.44-1.31,3.79-3.28,7.21-6.99,8.72" fill="#bed17b"/><path d="m64.97,106.17c-4.21-3.84-10.36-5.45-15.91-4.16-1.41.33-3.01,1.07-3.24,2.51-.23,1.44,1.05,2.65,2.31,3.38,5.24,3.03,12.33,2.46,17.01-1.37" fill="#bed17b"/><path d="m44.67,76.21c2.33-.64,4.89-.06,6.96,1.2,2.07,1.26,3.68,3.15,4.98,5.2,2.51,3.96,3.39,9.28,3.5,13.96-5.2-.21-9.64-4.3-11.76-6.51-3.36-3.5-7.3-11.86-3.67-13.85" fill="#bed17b"/><path d="m72.83,113.24c-.3-.55-.8-.94-1.3-1.96-.98-2.03-2.29-4.91-2.93-8.35-.63-3.44-.2-6.68.65-8.8.42-1.07.88-1.87,1.26-2.39.37-.52.62-.77.64-.75.09.06-.83,1.15-1.55,3.26-.74,2.09-1.1,5.23-.48,8.58.62,3.35,1.86,6.22,2.75,8.28" fill="#263238"/><path d="m72.88,113.3c-.7-.9-1.61-2.07-2.71-3.49-2.28-2.95-5.43-7.02-8.98-11.47-3.55-4.45-6.81-8.43-9.18-11.31-1.14-1.39-2.08-2.54-2.8-3.42-.66-.81-1.01-1.27-.98-1.3.03-.02.43.39,1.13,1.16.7.77,1.71,1.9,2.93,3.31,2.44,2.82,5.76,6.77,9.31,11.23,3.55,4.46,6.66,8.57,8.87,11.58,1.1,1.51,1.98,2.73,2.57,3.59" fill="#263238"/><path d="m52.3,105.08s.31-.13.9-.28c.29-.08.66-.16,1.09-.21.43-.05.91-.15,1.46-.16,1.09-.08,2.39-.04,3.82.15,1.43.21,2.97.59,4.53,1.18,1.55.61,2.94,1.39,4.14,2.19,1.18.83,2.17,1.68,2.91,2.47.39.38.69.77.97,1.1.28.33.5.63.66.89.34.51.29.74.26.76-.08.06-.61-1-2.15-2.49-.76-.75-1.76-1.55-2.92-2.34-1.18-.76-2.55-1.5-4.06-2.1-1.52-.58-3.03-.96-4.41-1.19-1.39-.21-2.66-.29-3.73-.25-2.14.05-3.44.37-3.46.27Z" fill="#263238"/></g><path d="m101.06,147.61c1.3.19,79.63,15.55,79.63,15.55v-15.55h-79.63Z" fill="#ebebeb"/><path d="m76.42,246.33s85.21-12.06,84.47-11.68c-.74.37-84.47,0-84.47,0v11.68Z" fill="#ebebeb"/><path d="m192.1,11.44c.1,0,.18,4.31.18,9.62s-.08,9.62-.18,9.62-.18-4.31-.18-9.62.08-9.62.18-9.62Z" fill="#263238"/><path d="m226.2,33.58c.04.09-3.87,1.9-8.73,4.05-4.86,2.15-8.84,3.81-8.88,3.72-.04-.09,3.87-1.9,8.73-4.05,4.86-2.15,8.83-3.81,8.87-3.72Z" fill="#263238"/><path d="m225.34,0s-.05.13-.19.37c-.15.27-.35.6-.59,1.02-.52.88-1.29,2.15-2.26,3.7-1.94,3.11-4.72,7.33-7.88,11.93-3.16,4.61-5.97,8.8-7.96,11.87-.97,1.51-1.77,2.74-2.35,3.64-.26.4-.48.73-.65.98-.15.22-.24.34-.25.33-.01,0,.05-.13.19-.37.15-.27.35-.6.59-1.02.52-.88,1.29-2.15,2.26-3.7,1.94-3.11,4.72-7.33,7.88-11.93,3.16-4.6,5.97-8.8,7.96-11.86.97-1.51,1.77-2.74,2.35-3.64.26-.4.48-.73.65-.98.15-.22.24-.34.25-.33Z" fill="#263238"/><g><path d="m188.86,34.45h-105.2c-5.9,0-10.6,4.8-10.6,10.8v216.5c0,6,4.8,10.8,10.6,10.8h105.2c5.9,0,10.6-4.9,10.6-10.8V45.35c0-6-4.8-10.9-10.6-10.9Zm4,220.7c0,5.7-4.3,10.3-9.5,10.3h-94.1c-5.3,0-9.5-4.6-9.5-10.3V53.55c0-11.6,4.3-12.2,9.5-12.2h18.8c1.1,0,2,1.2,2,2.8v.7c0,3.6,2,3.6,4.4,3.6h43.6c2.5,0,4.4,0,4.4-3.6v-.7c0-1.5.9-2.8,2-2.8h18.8c5.3,0,9.5,1.5,9.5,12.2v201.6h.1Z"/><g><path d="m192.86,53.55v201.6c0,5.7-4.3,10.3-9.5,10.3h-94.1c-5.3,0-9.5-4.6-9.5-10.3V53.55c0-11.6,4.3-12.2,9.5-12.2h18.8c1.1,0,2,1.2,2,2.8v.7c0,3.6,2,3.6,4.4,3.6h43.6c2.5,0,4.4,0,4.4-3.6v-.7c0-1.5.9-2.8,2-2.8h18.8c5.3,0,9.6,1.6,9.6,12.2h0Z" fill="#fff"/><g><path d="m192.86,53.55v22.7h-113.2v-22.7c0-11.6,4.3-12.2,9.5-12.2h18.9c1.1,0,2,1.2,2,2.8v.7c0,3.6,2,3.6,4.4,3.6h43.6c2.5,0,4.4,0,4.4-3.6v-.7c0-1.5.9-2.8,2-2.8h18.8c5.3,0,9.6,1.6,9.6,12.2h0Z" fill="#007cff"/><g><g id="u5Zjqx"><g><path d="m104.86,45.85c-.07.07-.13.13-.2.2l-.1.1c-.5-.5-1.1-.7-1.8-.7s-1.3.3-1.8.7l-.1-.1-.2-.2h0c.1-.1.2-.1.2-.2.2-.1.3-.2.5-.3.2-.1.5-.2.7-.2h.9c.2,0,.4.1.6.2.2.1.3.1.4.2.1.1.3.2.4.3.3-.1.4,0,.5,0h0Z" fill="#fff"/><path d="m101.56,46.75c-.1-.1-.2-.2-.3-.3.3-.3.7-.5,1.2-.6.7-.1,1.3.1,1.8.6-.1.1-.2.2-.3.3-.3-.3-.7-.5-1.2-.5-.4,0-.8.2-1.2.5Z" fill="#fff"/><path d="m103.66,47.05c-.1.1-.2.2-.3.3-.2-.2-.4-.3-.6-.2-.2,0-.4.1-.6.3-.1-.1-.2-.2-.3-.3.5-.6,1.3-.6,1.8-.1h0Z" fill="#fff"/></g><path d="m103.06,47.55c0,.1-.1.3-.3.3-.1,0-.3-.1-.3-.3,0-.1.1-.3.3-.3.2.1.3.2.3.3Z" fill="#fff"/></g><g><path d="m87.06,46.45c0-.4.3-.7.7-.7s.7.3.7.7-.3.7-.7.7-.7-.3-.7-.7Z" fill="#fff"/><path d="m89.46,46.45c0-.4.3-.7.7-.7s.7.3.7.7-.3.7-.7.7-.7-.3-.7-.7Z" fill="#fff"/><path d="m91.76,46.45c0-.4.3-.7.7-.7s.7.3.7.7-.3.7-.7.7c-.3,0-.7-.3-.7-.7Z" fill="#fff"/><path d="m94.16,46.45c0-.4.3-.7.7-.7s.7.3.7.7-.3.7-.7.7-.7-.3-.7-.7Z" fill="#fff"/><path d="m96.46,46.45c0-.4.3-.7.7-.7s.7.3.7.7-.3.7-.7.7c-.3,0-.7-.3-.7-.7Z" fill="#fff"/></g><g><path d="m184.36,48.05h-6.1v-2.8h6.1v2.8Zm-5.8-.3h5.5v-2.2h-5.5v2.2Z" fill="#fff"/><rect x="178.76" y="45.75" width="3.9" height="1.9" fill="#fff"/><rect x="184.36" y="45.95" width=".5" height="1.5" fill="#fff"/></g></g><g><polygon points="89.96 69.85 86.66 66.75 89.96 63.55 90.56 64.15 87.76 66.75 90.56 69.35 89.96 69.85" fill="#fff"/><polygon points="182.56 63.55 185.86 66.75 182.56 69.85 181.96 69.35 184.76 66.75 181.96 64.15 182.56 63.55" fill="#fff"/><g><path d="m101.75,69.24h-1.57l-1.63-2.39s-.04-.06-.06-.11-.05-.12-.09-.2h-.02v2.7h-1.26v-5.6h1.26v2.6h.02s.04-.08.06-.13.06-.11.09-.18l1.55-2.29h1.46l-1.93,2.64,2.11,2.96Z" fill="#fff"/><path d="m104.32,69.34c-.8,0-1.46-.26-1.96-.78-.51-.52-.76-1.2-.76-2.04,0-.89.26-1.6.77-2.15.51-.55,1.19-.82,2.04-.82.8,0,1.45.26,1.94.79.49.52.74,1.21.74,2.07s-.26,1.59-.77,2.13-1.18.81-2,.81Zm.02-1.09c.43,0,.78-.16,1.04-.47.25-.31.38-.75.38-1.31s-.12-1.03-.37-1.36c-.25-.32-.59-.48-1.02-.48s-.79.17-1.05.5c-.26.33-.39.77-.39,1.32s.13.99.39,1.32c.26.32.6.48,1.02.48Z" fill="#fff"/><path d="m113.06,69.24h-1.27l-2.31-3.52c-.07-.1-.12-.19-.17-.27s-.08-.14-.11-.19h-.02c.01.1.02.22.02.38s0,.33,0,.53v3.08h-1.19v-5.6h1.36l2.22,3.41c.05.08.1.15.15.23s.09.15.13.23h.02c-.01-.06-.02-.16-.02-.29s0-.29,0-.48v-3.1h1.19v5.6Z" fill="#fff"/><path d="m113.88,68.87l.52-.98c.28.17.53.28.73.34s.42.09.65.09c.3,0,.52-.06.67-.17s.21-.27.21-.47-.06-.34-.17-.44-.33-.19-.63-.26c-.62-.14-1.08-.35-1.36-.61s-.43-.63-.43-1.1.18-.88.55-1.21.88-.5,1.54-.5c.28,0,.55.03.81.09s.52.15.76.27l-.47,1c-.22-.12-.42-.21-.61-.26s-.37-.08-.53-.08c-.25,0-.45.05-.59.15s-.21.24-.21.43c0,.17.06.3.19.39s.36.17.69.25c.61.14,1.05.34,1.32.62s.41.66.41,1.16c0,.53-.19.96-.56,1.29s-.92.49-1.63.49c-.31,0-.63-.04-.97-.12s-.64-.2-.9-.35Z" fill="#fff"/><path d="m123.39,66.82c0,.84-.2,1.47-.59,1.89s-.98.63-1.76.63-1.33-.21-1.71-.62-.57-1.03-.57-1.86v-3.22h1.27v3.25c0,.45.09.79.27,1.02s.44.34.8.34.61-.11.78-.33.26-.55.26-.98v-3.3h1.26v3.18Z" fill="#fff"/><path d="m127.95,69.24h-3.34v-5.6h1.26v4.58h2.07v1.02Z" fill="#fff"/><path d="m132.08,64.67h-1.6v4.57h-1.27v-4.57h-1.59v-1.03h4.45v1.03Z" fill="#fff"/><path d="m131.69,69.24l2.04-5.6h1.5l1.99,5.6h-1.38l-.38-1.17h-2.03l-.38,1.17h-1.37Zm2.02-2.15h1.46l-.62-1.95c-.02-.08-.04-.14-.06-.2s-.03-.12-.04-.21h-.03c-.01.08-.03.15-.04.2s-.03.12-.06.19l-.62,1.96Z" fill="#fff"/><path d="m137.46,68.87l.52-.98c.28.17.53.28.73.34s.42.09.65.09c.3,0,.52-.06.67-.17s.21-.27.21-.47-.06-.34-.17-.44-.33-.19-.63-.26c-.62-.14-1.08-.35-1.36-.61s-.43-.63-.43-1.1.18-.88.55-1.21.88-.5,1.54-.5c.28,0,.55.03.81.09s.52.15.76.27l-.47,1c-.22-.12-.42-.21-.61-.26s-.37-.08-.53-.08c-.25,0-.45.05-.59.15s-.21.24-.21.43c0,.17.06.3.19.39s.36.17.69.25c.61.14,1.05.34,1.32.62s.41.66.41,1.16c0,.53-.19.96-.56,1.29s-.92.49-1.63.49c-.31,0-.63-.04-.97-.12s-.64-.2-.9-.35Z" fill="#fff"/><path d="m143.66,69.24h-1.26v-5.6h1.26v5.6Z" fill="#fff"/><path d="m149.51,69.34c-.8,0-1.46-.26-1.96-.78s-.76-1.2-.76-2.04c0-.89.26-1.6.77-2.15s1.19-.82,2.04-.82c.8,0,1.45.26,1.94.79s.74,1.21.74,2.07-.26,1.59-.77,2.13-1.18.81-2,.81Zm.02-1.09c.43,0,.78-.16,1.04-.47s.38-.75.38-1.31-.12-1.03-.37-1.36-.59-.48-1.02-.48-.79.17-1.05.5-.39.77-.39,1.32.13.99.39,1.32.6.48,1.02.48Z" fill="#fff"/><path d="m158.25,69.24h-1.27l-2.31-3.52c-.07-.1-.12-.19-.17-.27s-.08-.14-.11-.19h-.02c.01.1.02.22.02.38s0,.33,0,.53v3.08h-1.19v-5.6h1.36l2.22,3.41c.05.08.1.15.15.23s.09.15.13.23h.02c-.01-.06-.02-.16-.02-.29s0-.29,0-.48v-3.1h1.19v5.6Z" fill="#fff"/><path d="m162.87,69.24h-3.34v-5.6h1.26v4.58h2.07v1.02Z" fill="#fff"/><path d="m164.88,69.24h-1.26v-5.6h1.26v5.6Z" fill="#fff"/><path d="m171.2,69.24h-1.27l-2.31-3.52c-.07-.1-.12-.19-.17-.27s-.08-.14-.11-.19h-.02c.01.1.02.22.02.38s0,.33,0,.53v3.08h-1.19v-5.6h1.36l2.22,3.41c.05.08.1.15.15.23s.09.15.13.23h.02c-.01-.06-.02-.16-.02-.29s0-.29,0-.48v-3.1h1.19v5.6Z" fill="#fff"/><path d="m175.84,69.24h-3.36v-5.6h3.23v1.03h-1.97v1.25h1.83v1.02h-1.83v1.28h2.1v1.02Z" fill="#fff"/></g></g></g><path d="m142.16,43.95h-11.9c-.4,0-.7-.3-.7-.7h0c0-.4.3-.7.7-.7h11.9c.4,0,.7.3.7.7h0c.1.4-.3.7-.7.7Z" fill="#1a2e35"/></g></g><g><path d="m256.42,88.15H100.56c-3.37,0-6.1,2.73-6.1,6.1v48.35c0,3.37,2.73,6.1,6.1,6.1h11.61c.94,5.05,2.03,11.42,2.03,11.42l10.51-11.42h131.71c3.37,0,6.1-2.73,6.1-6.1v-48.35c0-3.37-2.73-6.1-6.1-6.1Z" fill="#007cff"/><g><path d="m192.11,114.38c0,.1-18.55.18-41.43.18s-41.43-.08-41.43-.18,18.55-.18,41.43-.18,41.43.08,41.43.18Z" fill="#f5f5f5"/><path d="m192.11,106.95c0,.1-18.55.18-41.43.18s-41.43-.08-41.43-.18,18.55-.18,41.43-.18,41.43.08,41.43.18Z" fill="#f5f5f5"/><path d="m192.11,121.73c0,.1-18.55.18-41.43.18s-41.43-.08-41.43-.18,18.55-.18,41.43-.18,41.43.08,41.43.18Z" fill="#f5f5f5"/><path d="m163.53,129.34c0,.1-12.15.18-27.14.18s-27.14-.08-27.14-.18,12.15-.18,27.14-.18,27.14.08,27.14.18Z" fill="#f5f5f5"/></g></g><g><path d="m185.99,175.07H28.86c-2.36,0-4.26,1.91-4.26,4.26v51.15c0,2.36,1.91,4.26,4.26,4.26h114.13l10.39,11.29s1.09-6.34,2.01-11.29h30.62c2.36,0,4.26-1.91,4.26-4.26v-51.15c0-2.36-1.91-4.26-4.26-4.26Z" fill="#455a64"/><g><path d="m179.83,201.45c0,.1-18.55.18-41.43.18s-41.43-.08-41.43-.18,18.55-.18,41.43-.18,41.43.08,41.43.18Z" fill="#f5f5f5"/><path d="m179.83,194.02c0,.1-18.55.18-41.43.18s-41.43-.08-41.43-.18,18.55-.18,41.43-.18,41.43.08,41.43.18Z" fill="#f5f5f5"/><path d="m179.83,208.8c0,.1-18.55.18-41.43.18s-41.43-.08-41.43-.18,18.55-.18,41.43-.18,41.43.08,41.43.18Z" fill="#f5f5f5"/><path d="m151.24,216.41c0,.1-12.15.18-27.14.18s-27.14-.08-27.14-.18,12.15-.18,27.14-.18,27.14.08,27.14.18Z" fill="#f5f5f5"/></g></g><g><g><path d="m217.23,67.65c.09-1.27-1.04-3.02-2.09-4.03-1.05-1.01-1.7-2.37-1.15-4.4.42-1.57,1.42-1.45,1.81-2.38.29-.68.17-1.46.23-2.2.21-2.54,3-4.53,5.47-3.9.7-2.42,2.95-4.31,5.45-4.57,2.5-.26,5.1,1.12,6.27,3.35,1.43-.74,3.23-.72,4.63.07s2.38,2.3,2.5,3.9c1.39-1.01,3.53-.62,4.63.7s1.17,3.33.33,4.83c-.84,1.5-2.46,2.48-4.15,2.74s-3.45-.14-4.99-.91c-1.54-.77-2.87-1.88-4.09-3.09"/><ellipse cx="228.54" cy="117.86" rx="29.93" ry="29.23" fill="#e0e0e0"/><g><g><path d="m258.59,117.89l-3.31-8.49-11.87,7.46,10.58,16.31s4.3-5.59,4.61-15.28Z" fill="#fff" stroke="#231f20" stroke-miterlimit="10" stroke-width=".5"/><g><g><g><g><path d="m225.81,99.5h0c4.27,0,7.79-3.31,8-7.53.18-3.52.32-6.9.32-6.9,0,0,6.53-.47,7.13-6.86.6-6.38.69-21.15.69-21.15h0c-7.2-3.78-15.91-3.4-22.75.99l-.62.4-.75,33.04c-.05,4.41,3.54,8.01,7.99,8.02Z" fill="#fff" stroke="#231f20" stroke-miterlimit="10" stroke-width=".5"/><g><path d="m229.56,66.88c.49.16.76.69.6,1.18-.16.49-.69.75-1.19.59-.49-.16-.76-.69-.6-1.18.16-.49.69-.75,1.19-.59Z"/><path d="m231.35,67.21c-.11.1-.71-.42-1.6-.47-.89-.07-1.56.36-1.65.24-.05-.05.07-.25.36-.44.29-.19.78-.37,1.33-.33.55.04,1.01.28,1.27.52.26.24.35.44.29.49Z"/></g><g><path d="m239.31,66.88c.49.16.76.69.6,1.18-.16.49-.69.75-1.19.59-.49-.16-.76-.69-.6-1.18.16-.49.69-.75,1.19-.59Z"/><path d="m241.22,67.23c-.11.1-.71-.42-1.6-.47-.89-.07-1.56.36-1.65.24-.05-.05.07-.25.36-.44.29-.19.78-.37,1.33-.33.55.04,1.01.28,1.27.52.26.24.35.44.29.49Z"/></g><path d="m234.51,74.13c0-.07.56-.14,1.46-.19.23,0,.42-.04.45-.17.05-.14-.02-.39-.11-.67-.18-.6-.36-1.21-.56-1.85-.76-2.63-1.27-4.79-1.14-4.82.13-.04.86,2.06,1.62,4.69.18.64.35,1.25.52,1.86.06.27.2.6.05.97-.08.19-.27.31-.43.34-.16.03-.29.02-.4.02-.9-.04-1.46-.1-1.46-.17Z"/><path d="m234.15,84.73s-4.1,0-8.21-3.05c0,0,1.61,4.76,8.09,4.7l.12-1.66Z"/></g><g><path d="m218.42,67.82c0-.52-.39-.96-.91-.99-1.44-.07-3.79.36-3.43,3.67.5,4.69,4.24,3.62,4.25,3.48.01-.11.07-4.34.09-6.17Z" fill="#fff" stroke="#231f20" stroke-miterlimit="10" stroke-width=".5"/><path d="m217.32,72.11s-.09.05-.23.1c-.14.05-.38.08-.62-.03-.49-.22-.85-1.04-.81-1.89.02-.43.14-.83.32-1.16.17-.33.41-.56.67-.58.26-.04.42.12.47.26.05.14.02.23.04.24.01.01.11-.07.08-.27-.01-.09-.06-.21-.16-.31-.11-.1-.27-.16-.45-.15-.37,0-.72.31-.92.66-.22.36-.36.81-.39,1.29-.04.95.38,1.87,1.05,2.12.33.11.61.03.77-.07.16-.11.19-.21.17-.22Z"/></g></g><path d="m227.14,64.7c.23.3,1.05.16,2.11.12,1.06-.09,1.89-.04,2.08-.37.22-.34-.81-1.12-2.17-1.01-1.37.06-2.29.96-2.02,1.27Z"/><path d="m237.49,64.39c.13.41.91.53,1.77.53.86-.02,1.64-.16,1.76-.57.12-.4-.66-.98-1.78-.96-1.11.01-1.88.61-1.75,1.01Z"/></g><path d="m242.86,59.08s-3.87,1.88-8.92-.64c-3.31-1.65-7.17-2.46-8.02-1.79-.85.67-1.03,4.07-4.31,5.07,0,0,.23,6.5-2.37,6.27-2.59-.23-.97-10.31-.97-10.31l6.34-3.1,6.92-1.31,6.52.92,5.05,1.38-.26,3.5Z" fill="#0a0d0e"/></g><g><g><path d="m199.44,96.72c6.78-6.97,18.71-6.21,18.71-6.21l9.89,7.08,5.61-6.53s5.89.65,11.42,3.53l.38.12v.08c4.33,2.36,10.48,8.01,16.33,13.49l-7,6.5-7.75,6.88s.03.05.01.14c-.08.42,1.08,9.88,2.26,17.08-7.06,6.74-16.06,9.62-26.05,7.87-3.17-.56-4.71-1.33-7.64-2.1-4.34-1.14-7.49-4.9-7.88-9.37h0c-.53-6.03-.93-13.49-.93-13.49" fill="#e8505b"/><path d="m239.85,92.27s.17.39.43,1.11c.25.72.6,1.78,1.01,3.08.82,2.62,1.86,6.26,2.84,10.32.98,4.07,1.72,7.78,2.18,10.48.23,1.35.41,2.44.51,3.2.11.76.15,1.18.13,1.18s-.12-.41-.27-1.16c-.16-.81-.37-1.88-.62-3.18-.53-2.68-1.31-6.39-2.28-10.44-.98-4.06-1.98-7.7-2.73-10.33-.37-1.27-.67-2.32-.9-3.12-.21-.74-.32-1.15-.29-1.15Z" fill="#263238"/><path d="m246.22,117.2c-.06-.08,2.89-2.59,6.6-5.61,3.71-3.02,6.77-5.41,6.83-5.33.06.08-2.89,2.59-6.61,5.61-3.71,3.02-6.77,5.41-6.83,5.33Z" fill="#263238"/><path d="m208.39,106.29l-6.07,19.96,2.26,1.17,2.23-5.65s2.29-11.86,1.58-15.49Z" opacity=".2"/><g opacity=".2"><path d="m239.2,92.28c3.27,1.72-4.93,5.87-8.63,5.76l2.69-7.09s4.84.75,5.94,1.33Z"/></g></g><path d="m217.18,90.95v-5.29s10.32,2.66,10.7,8.83c0,0,1.31-6.83,6.63-7.16l.75,9.61-6.19,5.39h-6.27l-4.97-4.29-.65-6.67" fill="#e8505b"/><path d="m230.2,124.13s-.03-.41-.02-1.14c.02-.73.03-1.79.03-3.09,0-2.61-.07-6.22-.4-10.19-.33-3.97-.85-7.54-1.29-10.11-.22-1.24-.4-2.26-.54-3.04-.13-.72-.19-1.12-.17-1.12.02,0,.13.38.31,1.1.18.71.4,1.74.66,3.03.5,2.57,1.06,6.15,1.39,10.13.33,3.98.37,7.6.3,10.22-.04,1.31-.09,2.37-.15,3.1-.06.73-.1,1.13-.12,1.13Z" fill="#263238"/><path d="m227.4,92.72s-.23-.09-.61.06c-.39.13-.75.62-1.04,1.32-.63,1.37-1.42,3.35-1.96,5.71l-.05.24-.21-.13c-.62-.37-1.25-.78-1.89-1.21-1.23-.84-2.36-1.7-3.35-2.54-.5-.43-.91-.94-1.14-1.49-.23-.55-.32-1.1-.35-1.59-.04-.99.12-1.78.23-2.31.12-.53.2-.82.23-.82.03,0-.02.3-.09.84-.06.54-.18,1.32-.11,2.27.04.47.14.99.37,1.49.23.5.6.96,1.09,1.36.98.82,2.11,1.66,3.33,2.49.63.43,1.26.83,1.87,1.2l-.26.11c.57-2.38,1.41-4.37,2.1-5.73.17-.34.34-.65.54-.89.2-.24.45-.39.66-.45.44-.12.67.05.65.06Z" fill="#263238"/><path d="m234.51,87.34s.06.29.1.83c.04.61.1,1.36.16,2.25.08.95.19,2.07.39,3.31.08.61.29,1.28.12,2.03-.21.74-.77,1.29-1.36,1.73-.83.61-1.69,1.07-2.27,1.73l-.28.31-.03-.41c-.14-2.18-.87-3.98-1.53-5.15-.66-1.18-1.2-1.78-1.15-1.82.01-.01.16.13.41.41.24.28.58.72.94,1.3.72,1.16,1.51,2.99,1.68,5.23l-.3-.1c.63-.72,1.52-1.19,2.31-1.78.56-.42,1.06-.94,1.23-1.54.15-.61-.04-1.27-.11-1.89-.18-1.25-.27-2.39-.31-3.35-.05-.96-.05-1.73-.05-2.26,0-.53.02-.83.04-.83Z" fill="#263238"/></g></g><g><g><path d="m267.74,88.67c-.42.49-15.62,20.82-15.62,20.82l2.14,1.21,15.6-20.07-2.12-1.97Z" fill="#263238"/><path d="m206.68,104.74s15.99,23.02,16.95,23.47c1.9.89,23.77-18.01,25.86-19.82.29-.38.88-1.19,2.05-2.81,0,0,1.73-7.9,3.57-7.29,1.84.61-1.01,4.01.19,7.01,1.2,3,6.69-4.16,6.91-4.8l1.42-1.85s1.49,4.21,1.38,5.97c-.32,5.63-5.65,12.34-5.65,12.34,0,0-23.94,29.66-40.34,30.58-4.72.27-13.12-13.14-18.73-23.19-3.39-6.07-1.7-13.71,3.92-17.81l2.47-1.8Z" fill="#fff" stroke="#231f20" stroke-miterlimit="10" stroke-width=".5"/><path d="m262.32,105.62c-.05-.03.46-.94,1.02-2.09.57-1.15.98-2.1,1.04-2.08.05.02-.27,1.02-.84,2.18-.57,1.16-1.17,2.02-1.22,1.99Z"/></g><g><path d="m203.97,93.51s-17.16,6.1-4.4,34.96l19.81-11.96-2.82-6.75-12.59-16.26Z" fill="#e8505b"/><path d="m202.66,94s.75-.12,2.07.17c.65.17,1.43.45,2.25.95.82.49,1.67,1.18,2.5,2.05,1.67,1.74,3.22,4.16,4.66,6.97,1.45,2.81,2.81,6,4.2,9.36.42,1.01.83,2,1.21,2.94l.06.15-.14.08c-5.73,3.13-10.72,6.05-14.25,8.24-1.77,1.09-3.17,1.99-4.14,2.62-.46.3-.83.53-1.11.71-.26.16-.39.24-.4.23,0,0,.12-.11.36-.29.24-.18.6-.44,1.08-.77.94-.66,2.33-1.59,4.08-2.71,3.5-2.25,8.48-5.21,14.21-8.35l-.08.23c-.39-.94-.8-1.93-1.22-2.94-1.39-3.36-2.73-6.55-4.16-9.35-1.42-2.8-2.94-5.21-4.55-6.94-.8-.87-1.63-1.56-2.42-2.05-.79-.5-1.55-.8-2.18-.99-1.28-.33-2.03-.26-2.03-.31Z" fill="#263238"/></g></g></g><path d="m239.58,51.21s.04.1.08.3c.03.2.07.5.05.9-.04.77-.32,1.96-1.31,2.99-.96,1.04-2.78,1.7-4.62,1.17-.9-.26-1.81-.81-2.37-1.71-.27-.45-.43-1-.35-1.56.08-.55.35-1.1.85-1.43.5-.34,1.15-.33,1.66-.11.51.22.94.64,1.13,1.14.41,1.01.11,2.11-.45,2.87-1.19,1.58-3.34,1.7-4.53.99-.63-.29-1.18-.56-1.71-.66-.52-.11-.98-.02-1.32.14-.68.33-.95.69-.98.65,0,0,.06-.09.2-.24.07-.07.16-.17.28-.25.12-.09.26-.2.44-.28.35-.18.85-.31,1.41-.21.56.08,1.15.35,1.78.62.32.13.65.27,1,.33.35.06.73.05,1.11-.02.76-.14,1.54-.55,2.05-1.26.5-.69.75-1.69.4-2.54-.31-.83-1.47-1.4-2.27-.87-.39.25-.63.71-.69,1.17-.07.46.07.93.3,1.33.49.8,1.32,1.33,2.16,1.58,1.71.51,3.42-.07,4.35-1.03.96-.96,1.27-2.08,1.35-2.82.08-.76-.04-1.18,0-1.19Z" fill="#fff"/><path d="m235.84,77.28s-.21.13-.59.15c-.38.02-.91-.07-1.44-.33-.52-.26-.91-.64-1.12-.96-.21-.32-.27-.55-.23-.57.09-.05.55.73,1.51,1.2.95.49,1.86.39,1.87.5Z"/><path d="m240.72,53.54s.29.44.33,1.27c.05.81-.18,2.02-1.03,2.99-.85.97-2.01,1.38-2.82,1.44-.83.07-1.32-.11-1.3-.15,0-.06.5.03,1.27-.1.76-.12,1.81-.54,2.58-1.42.77-.89,1.03-1.99,1.04-2.75.02-.78-.14-1.25-.08-1.27Z" fill="#fff"/></g><path d="m217.34,111.39c.04.09-4.51,2.43-10.18,5.23-5.67,2.8-10.3,5-10.34,4.91-.04-.09,4.51-2.43,10.18-5.24,5.67-2.8,10.3-5,10.34-4.91Z" fill="#e0e0e0"/><path d="m213.18,103.55c.05.09-4.01,2.36-9.06,5.07-5.05,2.71-9.19,4.84-9.23,4.75s4.01-2.36,9.06-5.07c5.05-2.71,9.19-4.84,9.23-4.75Z" fill="#e0e0e0"/><path d="m209.17,97.21s-.76.49-2.03,1.2c-1.36.76-3.07,1.71-4.96,2.77-1.88,1.07-3.59,2.04-4.94,2.82-1.26.72-2.05,1.16-2.08,1.12-.03-.04.72-.56,1.95-1.33,1.23-.78,2.96-1.82,4.89-2.91,1.94-1.09,3.72-2.03,5.02-2.68,1.3-.65,2.13-1.02,2.15-.98Z" fill="#e0e0e0"/><path d="m224.35,95.71s-.54-.03-1.34-.36c-.79-.32-1.82-.95-2.8-1.82-.97-.87-1.73-1.78-2.25-2.44-.52-.67-.82-1.1-.78-1.13.04-.03.4.34.97.97.57.62,1.35,1.49,2.3,2.34.95.85,1.92,1.48,2.66,1.86.74.38,1.24.54,1.23.59Z" fill="#e0e0e0"/><path d="m234.44,91.96c.09.03-.33,1.15-1.44,2.07-1.1.93-2.28,1.15-2.29,1.06-.03-.1,1.03-.46,2.05-1.34,1.04-.86,1.57-1.85,1.67-1.8Z" fill="#e0e0e0"/><path d="m252.41,102.37s-.13.04-.39.07c-.29.04-.66.08-1.11.14-.97.11-2.37.24-4.1.38-3.47.28-8.27.55-13.57.74-5.31.19-10.11.26-13.59.23-1.74-.01-3.15-.05-4.12-.08-.45-.02-.82-.04-1.12-.06-.26-.02-.39-.03-.39-.04,0-.01.14-.02.39-.03.3,0,.67,0,1.12-.01,1.02,0,2.42-.02,4.12-.03,3.47-.04,8.28-.15,13.58-.33,5.3-.19,10.09-.42,13.56-.63,1.7-.11,3.09-.2,4.11-.26.45-.03.82-.05,1.12-.07.26-.01.39-.01.39,0Z" fill="#e0e0e0"/><path d="m246.95,110.56s-.4.09-1.14.18c-.73.09-1.8.21-3.12.32-2.63.24-6.28.49-10.31.66-4.03.16-7.69.21-10.33.18-1.32-.01-2.39-.04-3.13-.07-.74-.03-1.15-.06-1.15-.09,0-.02.41-.04,1.15-.05.8-.01,1.85-.03,3.13-.04,2.64-.04,6.29-.12,10.32-.28,4.03-.16,7.67-.37,10.31-.55,1.27-.09,2.32-.16,3.12-.21.74-.05,1.15-.06,1.15-.04Z" fill="#e0e0e0"/><path d="m234.56,120.67s-.87.18-2.29.32c-1.42.15-3.39.3-5.56.41-2.18.11-4.15.15-5.58.14-1.43,0-2.31-.05-2.31-.09,0-.05.88-.1,2.31-.16,1.53-.07,3.45-.15,5.57-.25,2.12-.12,4.04-.22,5.56-.31,1.42-.08,2.31-.12,2.31-.07Z" fill="#e0e0e0"/><path d="m218.72,96.68c0,.1-2.12.13-4.73.24-2.61.1-4.73.26-4.74.15-.01-.1,2.1-.41,4.72-.51,2.62-.11,4.75.03,4.75.12Z" fill="#e0e0e0"/><path d="m247.88,96.31c0,.1-2.75.17-6.14.16-3.39-.01-6.14-.1-6.14-.2,0-.1,2.75-.17,6.14-.16,3.39.01,6.14.1,6.14.2Z" fill="#e0e0e0"/><path d="m248.94,138.38s-.21.15-.63.36c-.41.21-1.03.5-1.8.82-1.54.65-3.72,1.41-6.21,1.99-2.49.57-4.79.84-6.45.93-.83.05-1.51.06-1.98.05-.47,0-.72-.02-.72-.05,0-.06,1.03-.1,2.68-.25,1.65-.16,3.93-.46,6.39-1.03,2.46-.57,4.64-1.29,6.2-1.87,1.55-.58,2.5-1,2.52-.94Z" fill="#e0e0e0"/></g><ellipse cx="62.19" cy="203.92" rx="29.93" ry="28.55" fill="#e0e0e0"/><g><g><path d="m58.41,197.93l2.94,10.75,10.74-14.5-2.53,38.02h-15.33l-4.47.22s.66-5.99.94-9.38c.05-.64.27-4.41,1.36-7.97,2.29-7.47,6.35-17.15,6.35-17.15Z" fill="#fafafa"/><path d="m61.87,214.76s-1.69,1.44-3.87,3.12c-2.17,1.67-3.97,2.99-4,2.94-.04-.05,1.69-1.44,3.87-3.12,2.17-1.67,3.97-2.99,4-2.94Z" fill="#263238"/></g><g><polygon points="88.56 192.69 80.21 188.67 76.94 184.78 72.3 189.59 60.02 232.1 81.08 232.1 83.79 224.81 88.56 196.64 88.56 192.69" fill="#ff9733"/><path d="m50.98,232.72l-.56-9.02,25.45-4.31s4.35-21,7.03-24.44c2.47-3.18,5.69-2.07,5.69-2.07,0,0,2.9,1.99,2.21,9.6-.36,3.99-1.82,17.81-2.35,22.81-.13,1.2-.52,2.35-1.16,3.37h0c-1.46,2.34-4.02,3.76-6.77,3.76l-29.53.3Z" fill="#ff9733"/><path d="m80.02,224.63s-.07-.4-.26-1.02c-.18-.61-.55-1.44-1.18-2.19-.63-.75-1.39-1.25-1.96-1.53-.58-.29-.97-.39-.96-.43,0-.02.41.02,1.03.28.61.25,1.41.75,2.07,1.53.66.78,1.01,1.65,1.16,2.29.15.65.13,1.06.1,1.06Z" fill="#263238"/><g opacity=".2"><path d="m79.56,189.28c-.24,2.65-.75,5.29-1.52,7.84-.64-.19-1.28-.37-1.91-.56.79,1.12.88,2.62.57,3.96-.31,1.34-.99,2.56-1.65,3.75-3.17,5.69-6.33,11.37-9.5,17.06l9.57-21.74-.25-4.02,1.84-.39,2.84-5.9Z"/></g><g opacity=".2"><path d="m75.78,219.13c1.16-.07,2.33.28,3.27.96.94.68,1.63,1.69,1.93,2.81.07.27.12.56.02.82-.1.26-.41.45-.66.34-.19-.08-.29-.3-.37-.49-.83-1.9-2.47-3.43-4.42-4.12"/></g><path d="m65.62,221.12s.04-.12.13-.35c.1-.24.24-.57.41-.98.37-.87.9-2.09,1.55-3.6,1.34-3.05,3.17-7.22,5.19-11.83.74-1.68,1.46-3.29,2.13-4.81v.05c-.09-1.43-.17-2.77-.25-4.02v-.08s.08-.02.08-.02c.65-.14,1.26-.26,1.84-.39l-.06.05c.95-1.93,1.74-3.52,2.29-4.64.27-.54.49-.96.64-1.27.07-.13.13-.24.17-.33.04-.07.06-.11.07-.11,0,0-.01.04-.04.12-.04.09-.09.2-.15.34-.15.31-.35.75-.6,1.29-.54,1.13-1.3,2.73-2.23,4.68l-.02.04h-.04c-.58.14-1.19.27-1.84.41l.08-.1c.08,1.24.17,2.59.26,4.02v.03s0,.02,0,.02c-.67,1.52-1.38,3.14-2.12,4.82-2.05,4.6-3.9,8.77-5.25,11.81-.67,1.49-1.22,2.71-1.61,3.57-.19.41-.34.73-.45.97-.1.22-.16.33-.17.33Z" fill="#263238"/><path d="m50.97,232.42s-.01-.05-.02-.15c0-.11-.02-.26-.04-.44-.03-.4-.07-.97-.12-1.7-.1-1.49-.24-3.62-.41-6.24v-.07s.07-.01.07-.01c4.78-.88,11.27-2.07,18.41-3.38,2.36-.43,4.65-.84,6.79-1.23l-.09.08c1.49-5.67,2.79-10.59,3.71-14.11.47-1.74.84-3.13,1.1-4.1.13-.47.23-.83.3-1.1.03-.12.06-.21.08-.28.02-.06.03-.09.03-.09,0,0,0,.03-.02.1-.02.08-.04.17-.06.29-.06.27-.15.63-.27,1.11-.25.98-.6,2.37-1.04,4.12-.91,3.52-2.18,8.45-3.64,14.13l-.02.07h-.07c-2.14.4-4.43.82-6.79,1.25-7.14,1.29-13.64,2.46-18.42,3.32l.07-.08c.14,2.63.26,4.76.34,6.24.03.73.06,1.3.08,1.7,0,.18.01.33.02.44,0,.1,0,.15,0,.15Z" fill="#263238"/></g><path d="m87.28,191.98s-.43.1-1.08.35c-.65.24-1.51.7-2.28,1.42-.77.72-1.28,1.55-1.56,2.18-.28.63-.38,1.06-.42,1.05-.02,0,0-.11.03-.31.03-.2.11-.47.24-.81.25-.66.76-1.53,1.56-2.28.8-.75,1.7-1.2,2.38-1.4.34-.1.62-.17.82-.18.2-.02.31-.03.31-.01Z" fill="#263238"/><g><path d="m39.17,182.41c.75-1.39.42-7,1.58-6.8,1.48.25.11,6.15.02,6.69-.09.52.68.67.74.18.08-.7.95-7.57,2.41-7.18.81.21.44,1.69.44,1.69,0,0-1.25,6.65-.56,6.81.71.16,1.23-3.68,1.54-5.07.3-1.34,1.17-1.91,1.5-1.21.49,1.03-.45,4.38-.72,5.73-.28,1.34-.97,5.24.92,3.72,1.89-1.52,3.9-2,4.52-1.75.63.24.49,1.2-.24,1.4-.59.15-1.49.71-2.15,1.15-.55.37-.98.86-1.43,1.34-.32.34-.88,1.04-1.35,2.1-.54,1.23-1.59,2.16-2.87,2.57h0l-1.1,5.24-7.14-1.53,1.59-5.55c.58-3.64.26-8.54.26-10.77,0-3.55.47-3.58.88-3.49.9.21.42,6.08,1.16,4.73Z" fill="#ffd2be"/><path d="m38.97,187.18s.39.11.95.44c.55.33,1.24.97,1.61,1.9.1.25.17.5.21.75l.02.12.1-.06c.69-.4,1.36-.6,1.85-.7.49-.1.79-.11.79-.13,0-.02-.3-.05-.81.02-.5.07-1.2.25-1.91.66l.12.06c-.05-.26-.11-.53-.22-.79-.2-.49-.48-.9-.78-1.22-.31-.32-.64-.56-.93-.72-.29-.16-.55-.24-.73-.29-.18-.04-.28-.05-.28-.04Z" fill="#e09074"/><path d="m38.02,192.18s.68.5,1.67.8c.98.31,1.83.33,1.83.28,0-.05-.81-.15-1.78-.45-.96-.3-1.69-.69-1.72-.64Z" fill="#e09074"/></g><polygon points="63.86 187.01 58.41 197.93 61.35 208.68 69.18 200.41 76.9 186.07 63.86 187.01" fill="#ffd2be"/><g><path d="m58.73,188.04s-7.75,2.76-7.75,3.27c0,0,0,0,0,0-1.37,1.07-5.93,12.09-7.38,14.18l-4.15,6.11h0s0,0,0,0l3.48-13.57-7.65-2.25s-6.53,15.79-7.33,19.3c-.79,3.51.12,6.3.12,6.3l.04-.04c.56,1.7,1.63,3.06,2.87,3.85,3.24,2.08,6.27,2.47,9.37.18,1.76-1.3,3.76-2.86,5.6-4.33l.48,11.4h4.22c0-.64-.13-8.45-.13-8.45,0,0,.9-2.94,1.28-5.63s6.68-20.33,6.68-20.33l4.89-9.41.11-3.48-4.76,2.9Z" fill="#ff9733"/><path d="m46.35,232.34s-.02-.12-.04-.35c-.02-.25-.04-.59-.06-1.02-.05-.91-.11-2.19-.19-3.78-.15-3.22-.35-7.66-.57-12.63h0s0-.03,0-.03c.09-.47.19-.97.29-1.48,1.02-5.23,1.95-9.96,2.63-13.41.34-1.7.62-3.08.82-4.06.1-.46.18-.83.23-1.1.03-.11.05-.21.07-.29.02-.06.03-.1.03-.1s0,.03,0,.1c-.01.08-.03.17-.04.29-.05.27-.11.64-.19,1.11-.18.98-.44,2.37-.75,4.07-.66,3.45-1.56,8.19-2.56,13.42-.1.51-.2,1.01-.29,1.48v-.03c.2,4.97.37,9.42.5,12.64.05,1.59.1,2.87.13,3.78,0,.43.02.77.02,1.02,0,.23,0,.36,0,.36Z" fill="#263238"/><path d="m50.69,222.22s0-.12.04-.36c.04-.25.09-.59.15-1.02.15-.9.35-2.17.61-3.73.54-3.17,1.28-7.51,2.09-12.31.55-3.14,1.06-6.08,1.5-8.59h0s0-.02,0-.02c1.07-2.44,1.97-4.47,2.61-5.92.31-.7.57-1.25.75-1.66.08-.18.15-.32.2-.43.05-.1.07-.15.08-.14s-.01.06-.05.16c-.05.12-.1.26-.18.45-.17.41-.4.97-.7,1.68-.62,1.46-1.49,3.51-2.54,5.96v-.02c-.42,2.51-.93,5.45-1.46,8.6-.84,4.79-1.6,9.13-2.16,12.29-.28,1.56-.51,2.82-.68,3.72-.08.42-.15.76-.2,1.01-.05.23-.08.35-.08.35Z" fill="#263238"/><path d="m35.84,220.96s.3-.5.77-1.3c.47-.81,1.04-1.96,1.55-3.29.51-1.33.85-2.57,1.07-3.48.21-.91.31-1.48.35-1.47.02,0,0,.15-.02.41-.03.26-.08.64-.17,1.1-.18.92-.5,2.18-1.01,3.53-.51,1.34-1.12,2.5-1.63,3.29-.25.4-.47.71-.63.92-.16.21-.26.32-.27.31Z" fill="#263238"/><g opacity=".2"><path d="m36.42,220.33c-.29.03-.45.4-.33.67.13.26.45.38.74.34.29-.04.54-.22.75-.41.66-.6,1.05-1.45,1.32-2.3.65-2.07.69-4.29.71-6.46-.61,2.83-1.69,5.56-3.18,8.04"/></g><g opacity=".2"><path d="m45.84,221.34c-1.31-2.08-1.73-4.52-1.56-6.98.23-3.31,1.84-6.34,3.04-9.44-.69,3.26-1.09,6.49-1.71,9.62,0,0,.33,4.65.34,6.72"/></g><g opacity=".2"><path d="m51.18,219.26c.34-4.96.67-9.93,1.55-14.82.88-4.89,2.58-9.96,4.99-14.3-.62,1.96-2.55,6.09-2.55,6.09,0,0-2.78,14.64-3.98,22.02"/></g></g><g><path d="m50.55,224.96l.69,7.69h-3.63c-.1-.01-1.58-.04-3.21-.07-1.2.15-3.11.16-3.69.1-.1-.01-.16-.02-.17-.04,0,0-.27-.03-.56-.14,0,0-.02,0-.02,0h0c-.33-.13-.67-.34-.61-.7.16-1.1.81-1.19.81-1.19,0,0,.12,0,.33-.02l.03-.1c-.5,0-.92-.01-1.14-.04-.1-.01-.16-.02-.17-.04,0,0-1.29-.15-1.19-.83.16-1.1.81-1.19.81-1.19,0,0,.44-.03,1.06-.07-.51,0-.95-.01-1.18-.04-.1-.01-.16-.02-.17-.04,0,0-1.29-.15-1.19-.83.16-1.1.81-1.19.81-1.19,0,0,.36-.03.88-.06-.42,0-.76-.02-.96-.04-.1-.01-.16-.02-.17-.04,0,0-1.29-.15-1.19-.83.16-1.1.81-1.19.81-1.19,0,0,2.03-.14,3.42-.2,0,0,1.58-1.42,2.2-1.36.93.1,6.33,2.09,6.33,2.09l1.05.36Z" fill="#ffd2be"/><g><path d="m43.74,230.39c0,.06-.81.14-1.8.17-.99.03-1.79,0-1.78-.06,0-.06.81-.14,1.8-.17.99-.03,1.79,0,1.78.06Z" fill="#e09074"/><path d="m43.76,228.21c0,.06-1.14.16-2.56.21-1.42.05-2.56.04-2.57-.03,0-.06,1.14-.16,2.56-.21,1.41-.05,2.56-.04,2.57.03Z" fill="#e09074"/><g opacity=".78"><path d="m43.57,226c0,.06-1.14.16-2.56.21-1.42.05-2.56.04-2.57-.03,0-.06,1.14-.16,2.56-.21,1.41-.05,2.56-.04,2.57.03Z" fill="#e09074"/></g></g><path d="m40.4,223.92s.31.05.82.06c.58.02,1.24.04,1.97.06.73.03,1.39.05,1.97.07.5.02.82.02.82,0,0-.03-.31-.07-.81-.13-.5-.05-1.2-.1-1.97-.13-.77-.03-1.47-.02-1.97,0-.5.02-.82.04-.82.07Z" fill="#e09074"/></g><g><path d="m80.46,161.3c.91-2.22,3.8-3.23,6.05-2.4s3.76,3.14,4.03,5.52c.13,1.17-.01,2.42-.69,3.39-.71,1.02-1.92,1.6-3.15,1.77-2.2.31-4.52-.65-5.87-2.41-1.34-1.76-1.65-4.26-.77-6.3" fill="#263238"/><path d="m89.62,161.6s-.04.11-.16.29c-.12.18-.31.43-.58.71-.53.56-1.41,1.23-2.53,1.61-1.13.39-2.23.4-2.99.28-.38-.06-.69-.13-.89-.2-.2-.07-.31-.12-.31-.13.01-.04.46.11,1.22.18.75.07,1.81.04,2.9-.34,1.09-.37,1.95-1,2.5-1.51.55-.52.82-.91.85-.89Z" fill="#455a64"/><path d="m90.58,164.13s-.08.09-.25.23c-.17.14-.42.33-.75.54-.65.42-1.63.93-2.81,1.18-.59.12-1.16.16-1.68.13-.52-.03-.98-.12-1.36-.22-.38-.11-.67-.22-.87-.32-.2-.1-.3-.15-.29-.17.02-.04.45.16,1.2.34.37.09.82.16,1.33.17.5.01,1.06-.03,1.63-.15,1.14-.24,2.1-.72,2.77-1.09.67-.39,1.05-.67,1.08-.64Z" fill="#455a64"/><path d="m57.18,167.93c-5.33-11.72,7.35-17.61,14.26-15.65,6.5,1.84,9.27,5.07,10.34,9.42,1.07,4.35,1.02,9.06-.69,13.2-.84,2.04-2.35,4.12-4.55,4.37" fill="#263238"/><path d="m63.55,196.89c-.09-5.6-.16-13.29-.16-13.26,0,0-4.81-.8-5.81-7.08-.5-3.12-.34-8.24-.08-12.43.24-3.77,2.73-8.39,6.49-7.99l11.72,2.96c1.14.12,2,1.09,1.98,2.24h0l-.76,24.24" fill="#ffd2be"/><path d="m60.38,168.59c-.02.42.32.79.76.82.44.03.81-.29.83-.71.02-.42-.32-.79-.76-.82-.44-.03-.81.29-.83.71Z" fill="#263238"/><path d="m69.06,168.59c-.02.42.32.79.76.82.44.03.81-.29.83-.71.02-.42-.32-.79-.76-.82-.44-.03-.81.29-.83.71Z" fill="#263238"/><path d="m63.87,173.03s-.53-.14-1.41-.25c-.22-.02-.43-.07-.47-.22-.05-.16.04-.4.15-.66.21-.54.43-1.1.65-1.68.91-2.4,1.57-4.37,1.47-4.41-.1-.04-.91,1.88-1.82,4.28-.22.59-.43,1.16-.63,1.7-.08.25-.23.54-.11.87.06.17.22.29.36.32.14.04.27.05.38.05.88.05,1.42.05,1.43,0Z" fill="#263238"/><path d="m63.38,183.66s4.22.27,8.41-2.24c0,0-2.12,4.37-8.41,3.78v-1.54Z" fill="#e09074"/><path d="m76.49,169.26c.09-.04,3.36-1.49,3.4,2.27.04,3.76-3.74,3.02-3.75,2.91,0-.11.35-5.18.35-5.18Z" fill="#ffd2be"/><path d="m77.27,173s.07.05.18.09c.11.05.29.08.49,0,.4-.15.72-.78.73-1.46,0-.34-.07-.67-.19-.94-.12-.27-.3-.46-.5-.5-.2-.04-.34.08-.38.18-.05.11-.02.18-.04.19-.01,0-.08-.06-.05-.22.01-.07.06-.16.15-.24.09-.07.22-.11.36-.1.29.02.55.28.69.58.15.3.24.66.24,1.05-.02.76-.4,1.47-.94,1.63-.26.07-.49,0-.6-.09-.12-.09-.14-.18-.12-.18Z" fill="#e09074"/><g><path d="m64.12,175.45c.13.32.26.64.47.92.21.27.52.49.86.5.37.02.72-.2.92-.5.2-.3.27-.68.26-1.05-.01-.33-.17-.73-.5-.76-.14-.02-.27.04-.4.09-.58.23-1.15.47-1.73.7" fill="#e09074"/><path d="m64.81,176.88c0-.05.39.1.92-.11.26-.1.54-.31.7-.63.16-.32.19-.75.02-1.13-.04-.09-.1-.18-.15-.26-.07-.07-.06-.07-.13-.06-.07.02-.18.07-.28.11-.1.04-.19.08-.28.12-.37.15-.71.28-.99.39-.57.21-.92.32-.94.28-.02-.04.31-.22.86-.48.27-.13.6-.28.96-.45.09-.04.18-.08.28-.13.1-.04.18-.09.32-.13.07-.02.16-.03.26,0,.09.04.15.1.19.15.08.1.15.21.19.33.2.47.15,1-.05,1.38-.21.4-.57.62-.88.71-.31.1-.58.07-.75.03-.17-.05-.25-.1-.25-.12Z" fill="#263238"/></g><path d="m80.71,166.68c-.39-.03-3.49.37-3.25,6.15.23,5.39,4.01,4.2,5.22,2.17,1.14-1.92,1.8-8.06-1.97-8.32Z" fill="#455a64"/><path d="m82.62,167.37s0-.05-.01-.15c0-.11-.01-.26-.02-.44-.01-.4-.03-.95-.05-1.64-.03-1.42-.07-3.39-.11-5.66l.07.07c-.51,0-1.05,0-1.6,0l.07-.07c.01.43.02.88.04,1.34.05,2.17.1,4.18.15,5.87v.05s-.05.01-.05.01c-.72.17-1.29.59-1.65,1.06-.37.47-.55.98-.66,1.39-.11.42-.15.76-.17.99-.01.12-.02.2-.02.26,0,.06,0,.09,0,.09,0,0,0-.03-.01-.09,0-.06,0-.15,0-.27,0-.23.04-.58.14-1,.1-.42.28-.94.65-1.43.36-.49.95-.94,1.7-1.12l-.05.06c-.05-1.69-.11-3.71-.17-5.87-.01-.46-.02-.91-.04-1.34v-.07s.07,0,.07,0c.55,0,1.09,0,1.6,0h.07s0,.07,0,.07c.03,2.27.05,4.24.06,5.66,0,.69,0,1.25,0,1.64,0,.18,0,.33,0,.44,0,.1,0,.15,0,.15Z" fill="#455a64"/><path d="m80.7,159.47s-1.62-3.8-5.49-5.68c-1.87-.91-3.28-1.38-4.64-1.72,0,0,2.26-.54,5.91,1.09,1.66.74,3.33,1.7,4.44,3.14.7.92,1.58,2.7,1.58,3.16h-1.8Z" fill="#455a64"/><path d="m80.29,176.62s-.04,0-.11-.03c-.07-.03-.17-.07-.29-.15-.24-.15-.56-.43-.81-.87-.26-.44-.43-1.03-.5-1.69-.06-.66-.06-1.39,0-2.16.06-.76.19-1.48.36-2.13.16-.64.36-1.22.62-1.65.26-.44.58-.72.82-.86.12-.07.22-.12.29-.15.07-.03.11-.03.11-.03,0,.01-.14.06-.37.22-.22.16-.52.44-.76.87-.25.43-.43.99-.58,1.63-.16.64-.28,1.35-.34,2.11-.06.75-.06,1.48,0,2.13.06.65.22,1.23.46,1.66.24.43.53.71.76.87.22.16.37.21.37.23Z" fill="#263238"/><g><rect x="64.28" y="176.02" width="4.49" height="1.69" rx=".85" ry=".85" transform="translate(-32.81 16.12) rotate(-11.1)" fill="#455a64"/><path d="m68.33,176.18l13.19-4.14c.33-.1.67.08.78.4h0c.11.34-.09.7-.43.79l-13.49,3.65-.05-.7Z" fill="#455a64"/><path d="m78.08,174.36s.15-.06.44-.15c.31-.09.72-.22,1.21-.37.51-.16,1.13-.32,1.79-.54.16-.06.31-.14.43-.27.11-.12.19-.29.19-.46,0-.17-.11-.32-.27-.38-.17-.06-.36-.03-.55.02-1.53.49-2.92.94-3.96,1.27-.49.15-.9.28-1.2.37-.29.08-.44.13-.45.12s.15-.07.43-.17c.3-.11.71-.25,1.19-.42,1.01-.34,2.4-.82,3.95-1.32.2-.05.42-.08.63-.01.22.07.37.29.37.51,0,.22-.09.41-.23.56-.14.14-.31.23-.48.29-.68.22-1.29.37-1.8.51-.5.13-.91.24-1.22.32-.29.07-.45.11-.45.1Z" fill="#263238"/></g><path d="m71.16,166.74c-.1.16-1-.33-2.13-.13-1.12.19-1.81.95-1.96.84-.07-.05,0-.33.3-.67.29-.34.84-.71,1.54-.83.7-.12,1.34.05,1.73.27.4.22.56.46.51.53Z" fill="#e09074"/><path d="m71.03,166.88s-.24-.07-.62-.16c-.38-.09-.92-.14-1.49,0-.57.13-1.04.41-1.34.64-.31.24-.46.43-.49.4-.02-.01.09-.24.39-.52.29-.28.78-.6,1.39-.74.62-.14,1.2-.06,1.58.07.39.13.59.29.58.31Z" fill="#263238"/><path d="m71.61,164.36c-.09.3-1.05.28-2.19.33-1.14.04-2.1.12-2.21-.17-.05-.14.15-.36.54-.56.39-.2.97-.36,1.63-.39.66-.03,1.26.09,1.66.26.41.17.62.38.58.52Z" fill="#263238"/><path d="m62.15,167.4c-.09.05-.26-.11-.53-.3-.27-.19-.66-.39-1.14-.46-.97-.16-1.75.29-1.87.13-.05-.07.08-.29.42-.51.34-.21.91-.39,1.55-.29.63.09,1.14.46,1.38.79.24.34.27.6.19.64Z" fill="#e09074"/><path d="m62.25,167.87s-.17-.2-.48-.47c-.3-.27-.78-.58-1.38-.71-.6-.13-1.17-.05-1.55.07-.39.12-.61.25-.63.22-.02-.02.18-.21.58-.37.39-.17,1-.28,1.65-.14.65.14,1.16.5,1.45.82.29.32.39.57.37.58Z" fill="#263238"/><path d="m62.64,164.73c-.06.31-.97.4-2.06.41-1.09,0-2.01-.07-2.07-.38-.06-.3.85-.74,2.06-.74,1.21-.01,2.13.41,2.07.71Z" fill="#263238"/><path d="m72.78,155.83c-.68,1.02-1.37,2.06-1.72,3.24-.35,1.18-.32,2.53.37,3.54.66.97,1.8,1.48,2.83,2.04s2.09,1.34,2.35,2.48c.08.36-.07,1.61.2,1.86.37.34,1.02.13,1.3-.29.28-.42.46-1.8.47-2.3l.07-4.69c.02-1.33,0-2.7-.57-3.89-.8-1.67-2.47-2.2-4.89-2.09" fill="#263238"/><path d="m57.36,165.25c.21-1.58.78-3.14,1.78-4.38,1-1.25,2.44-2.17,4.02-2.41,1.58-.24,3.18.2,4.78.29,1.6.09,3.42-.3,4.25-1.67.26-.43.38-1.02.05-1.4-.13-.14-.3-.23-.47-.31-2.12-1-4.53-1.45-6.84-1.11-2.32.34-4.54,1.52-6,3.35-1.46,1.84-2.09,4.34-1.52,6.62" fill="#263238"/><path d="m56.41,162.89s-.03-.07-.07-.2c-.04-.14-.09-.34-.13-.61-.07-.54-.08-1.35.22-2.28.29-.93.89-1.98,1.89-2.82.98-.84,2.32-1.46,3.79-1.7,1.47-.25,2.91-.1,4.16.19.62.15,1.21.33,1.74.53.54.2,1.02.41,1.47.54.92.19,1.72.31,2.23.2.53-.11.71-.38.73-.36,0,0-.04.07-.14.16-.11.1-.3.21-.56.28-.55.14-1.33.05-2.29-.13-.48-.12-.97-.33-1.5-.52-.53-.19-1.11-.36-1.73-.5-1.23-.27-2.64-.41-4.07-.17-1.43.24-2.73.83-3.69,1.64-.97.8-1.57,1.81-1.87,2.71-.31.9-.32,1.69-.28,2.22.05.53.14.82.11.83Z" fill="#455a64"/><path d="m63.35,153.01s.14-.05.4-.08c.26-.03.63-.04,1.1,0,.92.08,2.21.44,3.34,1.34.56.44,1.02.92,1.51,1.26.48.34,1.01.49,1.45.58.44.09.81.11,1.06.07.25-.03.38-.1.39-.08,0,0-.11.11-.37.17-.26.06-.64.07-1.1,0-.46-.08-1.01-.22-1.54-.57-.52-.34-1-.82-1.54-1.25-1.08-.86-2.33-1.24-3.22-1.35-.9-.12-1.47-.04-1.47-.08Z" fill="#455a64"/><path d="m82.36,164.54s-.09-.15-.27-.39c-.19-.23-.51-.55-1-.77-.49-.23-1.12-.38-1.84-.37-.71,0-1.49.17-2.32.32-.82.16-1.64.25-2.38.18-.74-.07-1.38-.25-1.9-.46-.52-.21-.9-.45-1.16-.62-.25-.18-.38-.3-.37-.31.02-.04.56.4,1.58.78.51.19,1.14.35,1.86.4.71.06,1.5-.04,2.32-.19.82-.15,1.62-.31,2.36-.31.74,0,1.41.18,1.91.43.51.25.83.6,1,.86.08.13.14.24.16.32.03.08.04.12.03.12Z" fill="#455a64"/><path d="m81.68,161.53s-.08-.15-.27-.38c-.19-.23-.51-.51-1-.71-.49-.2-1.12-.27-1.81-.19-.7.07-1.45.28-2.26.43-.81.15-1.64.19-2.34-.04-.7-.22-1.25-.61-1.63-1.01-.38-.4-.6-.79-.72-1.07-.06-.14-.1-.25-.11-.33-.02-.08-.03-.12-.02-.12.05-.03.2.67.96,1.41.38.36.91.73,1.57.92.66.2,1.44.16,2.24.01.8-.15,1.56-.36,2.28-.42.72-.07,1.39.02,1.9.25.51.22.84.55,1.01.8.17.26.21.43.2.43Z" fill="#455a64"/><path d="m65.55,204.58s.03-.02.08-.07c.05-.04.14-.1.24-.19.21-.17.51-.43.88-.8.36-.37.78-.85,1.24-1.43.45-.59.94-1.29,1.47-2.07,1.06-1.57,2.3-3.48,3.61-5.68.66-1.1,1.34-2.27,2.02-3.51.17-.31.34-.62.52-.94.17-.32.35-.64.59-.94.24-.29.55-.54.91-.66.18-.06.38-.1.58-.06.1.02.2.07.28.15.08.08.12.18.15.28v.02s0,.02,0,.02c-.05.13-.11.25-.2.35-.1.1-.24.17-.38.18-.28.02-.53-.11-.75-.26-.47-.29-.67-.93-.48-1.47.09-.27.3-.5.55-.62.25-.13.54-.17.82-.11.27.06.55.22.66.51.06.15.02.35-.1.46-.11.11-.25.17-.39.21-.49.12-1.03-.13-1.26-.58-.12-.22-.14-.5-.07-.74.06-.24.2-.46.38-.62.18-.16.42-.27.67-.26.24.01.49.12.63.33.07.11.1.25.08.38-.02.13-.11.25-.21.32-.21.14-.47.17-.7.09-.24-.09-.39-.3-.47-.52-.08-.22-.11-.45-.11-.68,0-.45.08-.91.34-1.3.13-.18.31-.35.54-.41.23-.06.46,0,.65.12.18.12.35.33.33.58-.02.25-.22.44-.43.5-.21.07-.45.04-.63-.1-.18-.13-.28-.34-.32-.55-.04-.21,0-.44.05-.62.05-.19.12-.39.21-.57.09-.18.23-.35.41-.45.17-.1.36-.17.56-.19.09,0,.2-.01.3.04.09.05.17.12.23.2.06.08.1.17.13.27.02.1.02.22-.04.31-.11.2-.36.24-.53.21-.19-.03-.36-.13-.49-.25-.26-.26-.4-.62-.42-.97-.02-.35.07-.71.26-.99.1-.14.22-.26.37-.34.15-.08.31-.12.47-.13.16,0,.33.03.46.14.13.1.21.27.19.44-.04.34-.33.56-.62.6-.31.04-.57-.17-.71-.4-.14-.23-.2-.51-.18-.76.05-.52.31-.92.47-1.31.17-.39.33-.75.47-1.07.28-.64.5-1.13.65-1.47.07-.16.13-.29.17-.38.04-.09.06-.13.06-.13,0,0-.01.05-.05.13-.04.09-.09.22-.16.39-.15.35-.36.84-.63,1.49-.14.32-.29.68-.46,1.07-.15.4-.41.8-.45,1.29-.02.24.03.5.17.71.13.21.37.39.62.35.25-.03.51-.24.53-.51.01-.13-.05-.27-.16-.35-.11-.08-.25-.12-.39-.11-.14,0-.29.04-.42.12-.13.07-.24.19-.33.31-.18.26-.26.59-.24.92.02.33.15.66.39.89.12.11.26.2.43.22.16.03.34-.01.41-.15.08-.13.01-.32-.08-.45-.05-.07-.11-.13-.18-.16-.07-.04-.15-.03-.24-.03-.35.04-.7.23-.86.57-.09.17-.15.35-.2.54-.06.19-.09.37-.05.56.03.18.12.36.27.47.14.11.34.14.51.08.18-.05.32-.2.33-.38.02-.18-.11-.35-.26-.45-.16-.1-.36-.15-.55-.1-.18.04-.34.19-.46.35-.23.34-.3.79-.31,1.21,0,.21.02.43.1.63.07.19.21.37.39.44.18.07.41.04.57-.07.17-.11.2-.34.09-.5-.11-.16-.32-.26-.52-.27-.2,0-.41.08-.57.23-.32.28-.48.79-.27,1.18.2.39.68.61,1.1.5.12-.03.24-.09.32-.17.08-.08.1-.19.06-.3-.08-.22-.32-.37-.56-.42-.48-.11-1.04.16-1.2.64-.17.47,0,1.04.42,1.3.2.14.43.25.66.23.23,0,.38-.21.46-.44v.04c-.04-.17-.16-.3-.32-.33-.16-.03-.34,0-.51.06-.34.12-.63.34-.85.62-.23.28-.4.6-.58.91-.17.32-.35.63-.52.94-.69,1.24-1.37,2.41-2.03,3.51-1.32,2.2-2.57,4.11-3.64,5.67-.53.78-1.02,1.48-1.48,2.07-.46.59-.89,1.06-1.26,1.42-.74.73-1.23,1.02-1.23,1.02Z" fill="#263238"/></g></g></svg>