<?xml version="1.0" encoding="UTF-8"?><svg id="Layer_1" xmlns="http://www.w3.org/2000/svg" viewBox="0 0 300.17 297.92"><g><g><rect y="216.91" width="105.24" height="48.53" fill="#f5f5f5"/><path d="m102.73,263.15H2.41v-43.69h100.32v43.69Zm-99.67-.65h99.01v-42.38H3.06s0,42.38,0,42.38Z" fill="#e1e1e1"/><rect x="105.24" y="216.91" width="25.71" height="48.53" fill="#e1e1e1"/><path d="m2.74,232.98h99.67c.17,0,.17-.26,0-.26H2.74c-.17,0-.17.26,0,.26h0Z" fill="#e1e1e1"/><path d="m52.9,232.85c.3-4.31.27-8.87.03-13.18,0-.17-.26-.17-.27,0-.23,4.31-.26,8.88.03,13.18,0,.13.19.13.2,0h.01Z" fill="#e1e1e1"/><path d="m79.72,226.26c0,.75-.61,1.36-1.36,1.36s-1.36-.61-1.36-1.36.61-1.36,1.36-1.36,1.36.61,1.36,1.36Z" fill="#e1e1e1"/><path d="m27.42,226.26c0,.75-.61,1.36-1.36,1.36s-1.36-.61-1.36-1.36.61-1.36,1.36-1.36,1.36.61,1.36,1.36Z" fill="#e1e1e1"/><path d="m53.93,241.31c0,.75-.61,1.36-1.36,1.36s-1.36-.61-1.36-1.36.61-1.36,1.36-1.36,1.36.61,1.36,1.36Z" fill="#e1e1e1"/><polygon points="12.58 265.44 7.16 295.91 10.21 295.91 20.2 265.44 12.58 265.44" fill="#e1e1e1"/><polygon points="97.79 265.44 102.32 295.96 99.27 295.96 90.17 265.44 97.79 265.44" fill="#e1e1e1"/><polygon points="118.13 265.44 123.27 295.96 120.22 295.96 110.52 265.44 118.13 265.44" fill="#e1e1e1"/><path d="m53.84,255.04c0,.75-.61,1.36-1.36,1.36s-1.36-.61-1.36-1.36.61-1.36,1.36-1.36,1.36.61,1.36,1.36Z" fill="#e1e1e1"/><path d="m2.74,248.01h99.67c.17,0,.17-.26,0-.26H2.74c-.17,0-.17.26,0,.26h0Z" fill="#e1e1e1"/></g><g><rect x="41.63" y="194.03" width="31.82" height="6.48" transform="translate(-1.03 .3) rotate(-.3)" fill="#e1e1e1"/><g><rect x="41.8" y="206.79" width="35.46" height="10.06" transform="translate(-1.11 .31) rotate(-.3)" fill="#f5f5f5"/><path d="m70.46,216.7c-.1,0-.17-2.25-.17-5.03s.08-5.03.17-5.03.17,2.25.17,5.03-.08,5.03-.17,5.03Z" fill="#e1e1e1"/><path d="m71.95,216.7c-.1,0-.17-2.25-.17-5.03s.08-5.03.17-5.03.17,2.25.17,5.03-.08,5.03-.17,5.03Z" fill="#e1e1e1"/><path d="m47.17,216.7c-.1,0-.17-2.25-.17-5.03s.08-5.03.17-5.03.17,2.25.17,5.03-.08,5.03-.17,5.03Z" fill="#e1e1e1"/><path d="m48.66,216.7c-.1,0-.17-2.25-.17-5.03s.08-5.03.17-5.03.17,2.25.17,5.03-.08,5.03-.17,5.03Z" fill="#e1e1e1"/><path d="m51.91,211.83c0-.1,3.58-.17,7.99-.17s7.99.08,7.99.17-3.58.17-7.99.17-7.99-.08-7.99-.17Z" fill="#e1e1e1"/></g><g><rect x="46.84" y="200.28" width="43.76" height="6.48" transform="translate(-1.06 .36) rotate(-.3)" fill="#ececec"/><path d="m84.35,205.84c-1.14,0-2.07-.94-2.07-2.09s.93-2.09,2.07-2.09,2.07.94,2.07,2.09-.93,2.09-2.07,2.09Z" fill="#e1e1e1"/><rect x="49.37" y="203.11" width="29.29" height="1.29" fill="#e1e1e1"/></g></g></g><g><path d="m287.06,1.46h-130.12c-7.3,0-13.11,5.94-13.11,13.36v267.79c0,7.42,5.94,13.36,13.11,13.36h130.12c7.3,0,13.11-6.06,13.11-13.36V14.94c0-7.42-5.94-13.48-13.11-13.48Zm4.95,272.98c0,7.05-5.32,12.74-11.75,12.74h-116.39c-6.56,0-11.75-5.69-11.75-12.74V25.08c0-14.35,5.32-15.09,11.75-15.09h23.25c1.36,0,2.47,1.48,2.47,3.46v.87c0,4.45,2.47,4.45,5.44,4.45h53.93c3.09,0,5.44,0,5.44-4.45v-.87c0-1.86,1.11-3.46,2.47-3.46h23.25c6.56,0,11.75,1.86,11.75,15.09v249.36h.14Z"/><g><path d="m292.01,25.08v249.36c0,7.05-5.32,12.74-11.75,12.74h-116.39c-6.56,0-11.75-5.69-11.75-12.74V25.08c0-14.35,5.32-15.09,11.75-15.09h23.25c1.36,0,2.47,1.48,2.47,3.46v.87c0,4.45,2.47,4.45,5.44,4.45h53.93c3.09,0,5.44,0,5.44-4.45v-.87c0-1.86,1.11-3.46,2.47-3.46h23.25c6.56,0,11.87,1.98,11.87,15.09h.02Z" fill="#fff"/><g><path d="m292.01,25.08v28.08h-140.02v-28.08c0-14.35,5.32-15.09,11.75-15.09h23.38c1.36,0,2.47,1.48,2.47,3.46v.87c0,4.45,2.47,4.45,5.44,4.45h53.93c3.09,0,5.44,0,5.44-4.45v-.87c0-1.86,1.11-3.46,2.47-3.46h23.25c6.56,0,11.87,1.98,11.87,15.09h.02Z" fill="#007cff"/><g><g id="u5Zjqx"><g><path d="m183.16,15.56c-.08.08-.16.16-.25.25l-.12.12c-.62-.62-1.36-.87-2.23-.87s-1.61.37-2.23.87l-.12-.12-.25-.25h0c.12-.12.25-.12.25-.25.25-.12.37-.25.62-.37s.62-.25.87-.25h1.11c.25,0,.49.12.74.25.25.12.37.12.49.25.12.12.37.25.49.37.37-.12.49,0,.62,0h0Z" fill="#fff"/><path d="m179.08,16.67c-.12-.12-.25-.25-.37-.37.37-.37.87-.62,1.48-.74.87-.12,1.61.12,2.23.74-.12.12-.25.25-.37.37-.37-.37-.87-.62-1.48-.62-.49,0-.99.25-1.48.62h-.01Z" fill="#fff"/><path d="m181.68,17.04c-.12.12-.25.25-.37.37-.25-.25-.49-.37-.74-.25-.25,0-.49.12-.74.37-.12-.12-.25-.25-.37-.37.62-.74,1.61-.74,2.23-.12h0Z" fill="#fff"/></g><path d="m180.94,17.66c0,.12-.12.37-.37.37-.12,0-.37-.12-.37-.37,0-.12.12-.37.37-.37.25.12.37.25.37.37Z" fill="#fff"/></g><g><path d="m161.15,16.3c0-.49.37-.87.87-.87s.87.37.87.87-.37.87-.87.87-.87-.37-.87-.87Z" fill="#fff"/><path d="m164.12,16.3c0-.49.37-.87.87-.87s.87.37.87.87-.37.87-.87.87-.87-.37-.87-.87Z" fill="#fff"/><path d="m166.96,16.3c0-.49.37-.87.87-.87s.87.37.87.87-.37.87-.87.87c-.37,0-.87-.37-.87-.87Z" fill="#fff"/><path d="m169.93,16.3c0-.49.37-.87.87-.87s.87.37.87.87-.37.87-.87.87-.87-.37-.87-.87Z" fill="#fff"/><path d="m172.77,16.3c0-.49.37-.87.87-.87s.87.37.87.87-.37.87-.87.87c-.37,0-.87-.37-.87-.87Z" fill="#fff"/></g><g><path d="m281.5,18.28h-7.55v-3.46h7.55v3.46Zm-7.17-.37h6.8v-2.72h-6.8v2.72Z" fill="#fff"/><rect x="274.57" y="15.43" width="4.82" height="2.35" fill="#fff"/><rect x="281.5" y="15.68" width=".62" height="1.86" fill="#fff"/></g></g><g><polygon points="164.73 45.24 160.65 41.41 164.73 37.45 165.48 38.19 162.01 41.41 165.48 44.62 164.73 45.24" fill="#fff"/><polygon points="279.27 37.45 283.35 41.41 279.27 45.24 278.53 44.62 281.99 41.41 278.53 38.19 279.27 37.45" fill="#fff"/><g><path d="m188.67,42.77v2.29h-1.58v-7h2.47c.88,0,1.54.19,1.98.57s.66.95.66,1.72c0,.72-.25,1.31-.76,1.75s-1.18.67-2.03.67h-.75,0Zm0-3.5v2.3h.62c.42,0,.73-.1.95-.29.21-.19.31-.48.31-.87s-.11-.67-.31-.85c-.21-.19-.53-.28-.95-.28h-.62Z" fill="#fff"/><path d="m197.43,45.06h-4.2v-7h4.04v1.28h-2.46v1.56h2.29v1.28h-2.29v1.6h2.62v1.28h0Z" fill="#fff"/><path d="m197.98,44.6l.65-1.23c.35.21.66.35.92.42s.53.11.82.11c.38,0,.66-.07.83-.22s.27-.34.27-.59-.07-.43-.21-.55-.41-.24-.79-.32c-.78-.18-1.35-.43-1.7-.76s-.53-.79-.53-1.38.23-1.1.69-1.51,1.1-.62,1.93-.62c.34,0,.68.04,1.02.12s.65.19.95.34l-.59,1.25c-.27-.15-.52-.26-.76-.33s-.46-.1-.66-.1c-.32,0-.56.06-.74.19s-.26.3-.26.53c0,.21.08.37.24.49.16.11.45.22.87.31.76.17,1.31.43,1.65.77s.51.82.51,1.45-.23,1.2-.7,1.61-1.14.62-2.03.62c-.39,0-.79-.05-1.22-.15s-.8-.25-1.12-.43l-.04-.02Z" fill="#fff"/><path d="m203.41,45.06l2.55-7h1.87l2.49,7h-1.72l-.47-1.46h-2.54l-.47,1.46h-1.71Zm2.52-2.69h1.83l-.77-2.43c-.03-.1-.05-.18-.07-.25s-.03-.16-.05-.26h-.04c-.02.1-.03.18-.05.25s-.04.15-.07.24l-.78,2.45h0Z" fill="#fff"/><path d="m217.49,45.06h-1.59l-2.89-4.4c-.08-.13-.16-.24-.21-.34s-.1-.18-.14-.24h-.02c0,.12.02.28.03.47s0,.41,0,.66v3.85h-1.49v-7h1.7l2.78,4.26c.06.09.12.19.18.29.06.1.12.19.17.29h.02c0-.08-.02-.2-.03-.36s0-.36,0-.6v-3.87h1.49v7h0Z" fill="#fff"/><path d="m224.81,45.19c-1,0-1.82-.33-2.45-.98s-.95-1.5-.95-2.55c0-1.11.32-2,.96-2.69s1.49-1.03,2.55-1.03c1,0,1.81.33,2.42.98.62.65.92,1.52.92,2.59s-.32,1.99-.96,2.66-1.47,1.01-2.5,1.01h0Zm.03-1.35c.54,0,.97-.2,1.29-.59s.48-.94.48-1.63-.15-1.29-.46-1.69-.73-.61-1.27-.61-.99.21-1.32.62-.49.96-.49,1.65.16,1.24.49,1.65.75.61,1.28.61h0Z" fill="#fff"/><path d="m235.73,45.06h-1.59l-2.89-4.4c-.08-.13-.16-.24-.21-.34s-.1-.18-.14-.24h-.02c0,.12.02.28.03.47s0,.41,0,.66v3.85h-1.49v-7h1.7l2.78,4.26c.06.09.12.19.18.29.06.1.12.19.17.29h.02c0-.08-.02-.2-.03-.36s0-.36,0-.6v-3.87h1.49v7h0Z" fill="#fff"/><path d="m241.5,45.06h-4.17v-7h1.58v5.72h2.59v1.28Z" fill="#fff"/><path d="m244.02,45.06h-1.58v-7h1.58v7Z" fill="#fff"/><path d="m251.91,45.06h-1.59l-2.89-4.4c-.08-.13-.16-.24-.21-.34s-.1-.18-.14-.24h-.02c0,.12.02.28.03.47s0,.41,0,.66v3.85h-1.49v-7h1.7l2.78,4.26c.06.09.12.19.18.29.06.1.12.19.17.29h.02c0-.08-.02-.2-.03-.36s0-.36,0-.6v-3.87h1.49v7h0Z" fill="#fff"/><path d="m257.71,45.06h-4.2v-7h4.04v1.28h-2.46v1.56h2.29v1.28h-2.29v1.6h2.62v1.28Z" fill="#fff"/></g></g></g><path d="m229.3,13.21h-14.72c-.49,0-.87-.37-.87-.87h0c0-.49.37-.87.87-.87h14.72c.49,0,.87.37.87.87h0c.12.49-.37.87-.87.87Z" fill="#1a2e35"/></g></g><g><g><rect x="159.11" y="58.27" width="125.81" height="125.81" fill="#fff"/><path d="m284.92,184.09c0-1.1-.05-50.39-.13-125.81l.13.13c-36.57,0-79.74,0-125.8.02h0l.15-.15c0,46.07,0,89.25-.02,125.81l-.13-.13c75.44.08,124.72.13,125.81.13-1.09,0-50.38.05-125.81.13h-.13v-.13c0-36.57,0-79.74-.02-125.81v-.15h.16c46.06,0,89.23,0,125.8.02h.13v.13c-.08,75.43-.13,124.72-.13,125.81h0Z" fill="#1a2e35"/></g><circle cx="221.79" cy="111.73" r="5.39" fill="#ff735d"/><path d="m172.01,76.13c-.07,0-.14-.02-.19-.07l-1.52-1.36c-.06-.05-.09-.12-.09-.2s.02-.15.08-.21l1.52-1.64c.11-.12.29-.12.4-.02.12.11.12.29.02.4l-1.32,1.42,1.3,1.16c.12.1.13.28.02.4-.06.06-.13.09-.21.09v.03Z" fill="#1a2e35"/><path d="m272.92,76.13c-.07,0-.14-.03-.19-.08-.12-.11-.12-.29-.02-.4l1.32-1.42-1.3-1.16c-.12-.1-.13-.28-.02-.4.11-.12.29-.13.4-.02l1.52,1.36c.06.05.09.12.09.2s-.02.15-.08.21l-1.52,1.64c-.06.06-.13.09-.21.09v-.02Z" fill="#1a2e35"/><g><path d="m219.61,76.01v-2.77l-1.37,2.28h-.48l-1.35-2.22v2.71h-1v-4.62h.88l1.73,2.87,1.7-2.87h.88v4.62h-.99Z" fill="#1a2e35"/><path d="m224.78,73.98v2.03h-.96v-.44c-.19.32-.56.5-1.08.5-.83,0-1.33-.46-1.33-1.08s.44-1.06,1.52-1.06h.82c0-.44-.26-.7-.82-.7-.38,0-.77.13-1.02.33l-.37-.72c.39-.28.96-.43,1.53-.43,1.08,0,1.71.5,1.71,1.58h0Zm-1.03.89v-.36h-.71c-.48,0-.63.18-.63.42,0,.26.22.43.58.43.34,0,.64-.16.76-.48h0Z" fill="#1a2e35"/><path d="m229.17,72.45l-1.6,3.77c-.34.86-.83,1.12-1.47,1.12-.36,0-.76-.12-.99-.32l.38-.73c.16.14.38.22.58.22.28,0,.44-.13.58-.44v-.03l-1.52-3.58h1.06l1,2.41,1-2.41h.99,0Z" fill="#1a2e35"/></g><path d="m283.37,86.25c0,.08-27.22.15-60.79.15s-60.8-.07-60.8-.15,27.21-.15,60.8-.15,60.79.07,60.79.15Z" fill="#e1e1e1"/><g><path d="m173.08,97.86v-1.9l-.94,1.57h-.33l-.93-1.53v1.86h-.69v-3.17h.61l1.19,1.97,1.17-1.97h.6v3.17h-.68Z" fill="#1a2e35"/><path d="m174.3,96.64c0-.73.57-1.26,1.34-1.26s1.34.52,1.34,1.26-.56,1.26-1.34,1.26-1.34-.52-1.34-1.26Zm1.96,0c0-.42-.27-.68-.62-.68s-.63.25-.63.68.27.68.63.68.62-.25.62-.68Z" fill="#1a2e35"/><path d="m179.94,96.46v1.4h-.71v-1.29c0-.39-.18-.58-.49-.58-.34,0-.58.21-.58.66v1.21h-.71v-2.44h.68v.29c.19-.21.48-.32.81-.32.58,0,1.01.34,1.01,1.08h0Z" fill="#1a2e35"/></g><g><path d="m187.3,95.28h-1.01v-.6h2.76v.6h-1.01v2.57h-.73v-2.57h-.01Z" fill="#1a2e35"/><path d="m191.8,95.42v2.44h-.67v-.29c-.19.21-.46.33-.76.33-.61,0-1.04-.34-1.04-1.1v-1.38h.71v1.27c0,.41.18.59.49.59s.56-.21.56-.66v-1.21h.71,0Z" fill="#1a2e35"/><path d="m194.83,96.84h-1.84c.07.3.33.49.7.49.26,0,.44-.08.61-.24l.38.41c-.23.26-.57.39-1.01.39-.84,0-1.39-.53-1.39-1.26s.56-1.26,1.3-1.26,1.27.48,1.27,1.26c0,.05,0,.13,0,.19v.02Zm-1.86-.41h1.2c-.05-.31-.28-.51-.6-.51s-.55.19-.6.51h0Z" fill="#1a2e35"/></g><path d="m191.36,109.95v3.17h-.33v-2.88h-.75v-.29h1.08Z"/><path d="m207.55,112.84v.29h-2.22v-.23l1.32-1.29c.36-.35.43-.57.43-.78,0-.37-.26-.59-.74-.59-.37,0-.66.11-.87.35l-.23-.2c.24-.29.64-.45,1.12-.45.64,0,1.05.33,1.05.86,0,.3-.1.58-.52.99l-1.08,1.06h1.74Z"/><path d="m222.87,112.21c0,.53-.39.94-1.15.94-.46,0-.9-.16-1.14-.41l.16-.26c.2.21.57.37.98.37.53,0,.82-.24.82-.64s-.27-.63-.86-.63h-.23v-.24l.88-1.1h-1.62v-.29h2.04v.23l-.9,1.13c.68.04,1.02.39,1.02.9h0Z"/><path d="m238.62,112.29h-.63v.83h-.33v-.83h-1.79v-.24l1.68-2.1h.36l-1.62,2.05h1.38v-.73h.32v.73h.63v.29h0Z"/><path d="m176.16,125.39v.23l-1.33,2.94h-.35l1.3-2.88h-1.63v.59h-.32v-.88h2.33Z"/><path d="m191.81,127.68c0,.56-.48.91-1.23.91s-1.22-.35-1.22-.91c0-.38.22-.65.61-.78-.32-.13-.5-.37-.5-.7,0-.52.44-.84,1.11-.84s1.12.32,1.12.84c0,.33-.18.57-.51.7.4.13.62.4.62.78Zm-.34,0c0-.39-.34-.63-.9-.63s-.89.24-.89.63.33.64.89.64.9-.24.9-.64Zm-.9-.89c.49,0,.79-.22.79-.57s-.31-.58-.79-.58-.78.22-.78.57.29.57.78.57h0Z"/><path d="m207.28,126.95c0,1.08-.59,1.64-1.45,1.64-.29,0-.55-.05-.75-.17l.13-.26c.16.11.38.15.62.15.68,0,1.12-.44,1.12-1.3,0-.07,0-.16,0-.26-.16.35-.53.54-.97.54-.63,0-1.07-.37-1.07-.95s.47-.97,1.08-.97c.84,0,1.3.58,1.3,1.59h0Zm-.45-.64c0-.35-.29-.68-.84-.68-.46,0-.77.27-.77.69s.31.68.8.68.82-.3.82-.69h-.01Z"/><g><path d="m220.49,125.39v3.17h-.33v-2.88h-.75v-.29h1.08Z"/><path d="m221.24,126.98c0-1.01.53-1.61,1.26-1.61s1.27.6,1.27,1.61-.53,1.61-1.27,1.61-1.26-.6-1.26-1.61Zm2.2,0c0-.85-.38-1.31-.93-1.31s-.93.47-.93,1.31.38,1.31.93,1.31.93-.47.93-1.31Z"/></g><g><path d="m236.72,125.39v3.17h-.33v-2.88h-.75v-.29h1.08Z"/><path d="m238.36,125.39v3.17h-.33v-2.88h-.75v-.29h1.08Z"/></g><g><path d="m251.81,125.39v3.17h-.33v-2.88h-.75v-.29h1.08Z"/><path d="m254.73,128.27v.29h-2.22v-.23l1.32-1.29c.36-.35.43-.57.43-.78,0-.37-.26-.59-.74-.59-.37,0-.66.11-.87.35l-.23-.2c.24-.29.64-.45,1.12-.45.64,0,1.05.33,1.05.86,0,.3-.1.58-.52.99l-1.08,1.06h1.74Z"/></g><g><path d="m267.37,125.39v3.17h-.33v-2.88h-.75v-.29h1.08Z"/><path d="m270.23,127.65c0,.53-.39.94-1.15.94-.46,0-.9-.16-1.14-.41l.16-.26c.2.21.57.37.98.37.53,0,.82-.24.82-.64s-.27-.63-.86-.63h-.23v-.24l.88-1.1h-1.62v-.29h2.04v.23l-.9,1.13c.68.04,1.02.39,1.02.9h0Z"/></g><g><path d="m174.8,140.74v3.17h-.33v-2.88h-.75v-.29h1.08Z"/><path d="m178.26,143.08h-.63v.83h-.33v-.83h-1.79v-.24l1.68-2.1h.36l-1.62,2.05h1.38v-.73h.32v.73h.63v.29h0Z"/></g><g><path d="m190.53,140.74v3.17h-.33v-2.88h-.75v-.29h1.08Z"/><path d="m193.44,142.98c0,.54-.38.96-1.15.96-.46,0-.89-.16-1.14-.41l.16-.26c.2.21.57.37.97.37.54,0,.82-.26.82-.65,0-.41-.25-.66-1.06-.66h-.68l.16-1.59h1.74v.29h-1.45l-.11,1.01h.41c.96,0,1.32.38,1.32.94h0Z"/></g><g><path d="m205.93,140.74v3.17h-.33v-2.88h-.75v-.29h1.08Z"/><path d="m209.07,142.96c0,.59-.47.97-1.08.97-.84,0-1.3-.58-1.3-1.59,0-1.08.59-1.64,1.45-1.64.29,0,.55.05.75.17l-.13.26c-.16-.11-.38-.15-.62-.15-.68,0-1.12.44-1.12,1.3,0,.07,0,.16,0,.26.16-.35.53-.54.97-.54.63,0,1.07.37,1.07.95h0Zm-.32,0c0-.42-.31-.68-.8-.68s-.82.3-.82.69c0,.35.29.68.84.68.46,0,.78-.27.78-.69h0Z"/></g><g><path d="m221.48,140.74v3.17h-.33v-2.88h-.75v-.29h1.08Z"/><path d="m224.48,140.74v.23l-1.33,2.94h-.35l1.3-2.88h-1.63v.59h-.32v-.88h2.33Z"/></g><g><path d="m236.88,140.74v3.17h-.33v-2.88h-.75v-.29h1.08Z"/><path d="m240.07,143.03c0,.56-.48.91-1.23.91s-1.22-.35-1.22-.91c0-.38.22-.65.61-.78-.32-.13-.5-.37-.5-.7,0-.52.44-.84,1.11-.84s1.12.32,1.12.84c0,.33-.18.57-.51.7.4.13.62.4.62.78Zm-.34,0c0-.39-.34-.63-.9-.63s-.89.24-.89.63.33.64.89.64.9-.24.9-.64Zm-.9-.89c.49,0,.79-.22.79-.57s-.31-.58-.79-.58-.78.22-.78.57.29.57.78.57h0Z"/></g><g><path d="m252.45,140.74v3.17h-.33v-2.88h-.75v-.29h1.08Z"/><path d="m255.5,142.3c0,1.08-.59,1.64-1.45,1.64-.29,0-.55-.05-.75-.17l.13-.26c.16.11.38.15.62.15.68,0,1.12-.44,1.12-1.3,0-.07,0-.16,0-.26-.16.35-.53.54-.97.54-.63,0-1.07-.37-1.07-.95s.47-.97,1.08-.97c.84,0,1.3.58,1.3,1.59h0Zm-.45-.64c0-.35-.29-.68-.84-.68-.46,0-.77.27-.77.69s.31.68.8.68.82-.3.82-.69h-.01Z"/></g><g><path d="m268.66,143.62v.29h-2.22v-.23l1.32-1.29c.36-.35.43-.57.43-.78,0-.37-.26-.59-.74-.59-.37,0-.66.11-.87.35l-.23-.2c.24-.29.64-.45,1.12-.45.64,0,1.05.33,1.05.86,0,.3-.1.58-.52.99l-1.08,1.06h1.74Z"/><path d="m269.05,142.32c0-1.01.53-1.61,1.26-1.61s1.27.6,1.27,1.61-.53,1.61-1.27,1.61-1.26-.6-1.26-1.61Zm2.2,0c0-.85-.38-1.31-.93-1.31s-.93.47-.93,1.31.38,1.31.93,1.31.93-.47.93-1.31Z"/></g><g><path d="m176.09,157.79v.29h-2.22v-.23l1.32-1.29c.36-.35.43-.57.43-.78,0-.37-.26-.59-.74-.59-.37,0-.66.11-.87.35l-.23-.2c.24-.29.64-.45,1.12-.45.64,0,1.05.33,1.05.86,0,.3-.1.58-.52.99l-1.08,1.06h1.74Z"/><path d="m177.38,154.9v3.17h-.33v-2.88h-.75v-.29h1.08Z"/></g><g><path d="m191.13,157.79v.29h-2.22v-.23l1.32-1.29c.36-.35.43-.57.43-.78,0-.37-.26-.59-.74-.59-.37,0-.66.11-.87.35l-.23-.2c.24-.29.64-.45,1.12-.45.64,0,1.05.33,1.05.86,0,.3-.1.58-.52.99l-1.08,1.06h1.74Z"/><path d="m193.71,157.79v.29h-2.22v-.23l1.32-1.29c.36-.35.43-.57.43-.78,0-.37-.26-.59-.74-.59-.37,0-.66.11-.87.35l-.23-.2c.24-.29.64-.45,1.12-.45.64,0,1.05.33,1.05.86,0,.3-.1.58-.52.99l-1.08,1.06h1.74Z"/></g><g><path d="m206.66,157.79v.29h-2.22v-.23l1.32-1.29c.36-.35.43-.57.43-.78,0-.37-.26-.59-.74-.59-.37,0-.66.11-.87.35l-.23-.2c.24-.29.64-.45,1.12-.45.64,0,1.05.33,1.05.86,0,.3-.1.58-.52.99l-1.08,1.06h1.74Z"/><path d="m209.17,157.17c0,.53-.39.94-1.15.94-.46,0-.9-.16-1.14-.41l.16-.26c.2.21.57.37.98.37.53,0,.82-.24.82-.64s-.27-.63-.86-.63h-.23v-.24l.88-1.1h-1.62v-.29h2.04v.23l-.9,1.13c.68.04,1.02.39,1.02.9h0Z"/></g><g><path d="m222,157.79v.29h-2.22v-.23l1.32-1.29c.36-.35.43-.57.43-.78,0-.37-.26-.59-.74-.59-.37,0-.66.11-.87.35l-.23-.2c.24-.29.64-.45,1.12-.45.64,0,1.05.33,1.05.86,0,.3-.1.58-.52.99l-1.08,1.06h1.74Z"/><path d="m225,157.24h-.63v.83h-.33v-.83h-1.79v-.24l1.68-2.1h.36l-1.62,2.05h1.38v-.73h.32v.73h.63v.29h0Z"/></g><g><path d="m237.68,157.79v.29h-2.22v-.23l1.32-1.29c.36-.35.43-.57.43-.78,0-.37-.26-.59-.74-.59-.37,0-.66.11-.87.35l-.23-.2c.24-.29.64-.45,1.12-.45.64,0,1.05.33,1.05.86,0,.3-.1.58-.52.99l-1.08,1.06h1.74Z"/><path d="m240.24,157.14c0,.54-.38.96-1.15.96-.46,0-.89-.16-1.14-.41l.16-.26c.2.21.57.37.97.37.54,0,.82-.26.82-.65,0-.41-.25-.66-1.06-.66h-.68l.16-1.59h1.74v.29h-1.45l-.11,1.01h.41c.96,0,1.32.38,1.32.94h0Z"/></g><g><path d="m253.1,157.79v.29h-2.22v-.23l1.32-1.29c.36-.35.43-.57.43-.78,0-.37-.26-.59-.74-.59-.37,0-.66.11-.87.35l-.23-.2c.24-.29.64-.45,1.12-.45.64,0,1.05.33,1.05.86,0,.3-.1.58-.52.99l-1.08,1.06h1.74Z"/><path d="m255.88,157.13c0,.59-.47.97-1.08.97-.84,0-1.3-.58-1.3-1.59,0-1.08.59-1.64,1.45-1.64.28,0,.55.05.75.17l-.13.26c-.16-.11-.38-.15-.62-.15-.68,0-1.12.44-1.12,1.3,0,.07,0,.16,0,.26.16-.35.53-.54.97-.54.63,0,1.07.37,1.07.95h0Zm-.32,0c0-.42-.31-.68-.8-.68s-.82.3-.82.69c0,.35.29.68.84.68.46,0,.78-.27.78-.69h0Z"/></g><g><path d="m268.66,157.79v.29h-2.22v-.23l1.32-1.29c.36-.35.43-.57.43-.78,0-.37-.26-.59-.74-.59-.37,0-.66.11-.87.35l-.23-.2c.24-.29.64-.45,1.12-.45.64,0,1.05.33,1.05.86,0,.3-.1.58-.52.99l-1.08,1.06h1.74Z"/><path d="m271.29,154.9v.23l-1.33,2.94h-.35l1.3-2.88h-1.63v.59h-.32v-.88h2.33Z"/></g><g><path d="m176.09,171.35v.29h-2.22v-.23l1.32-1.29c.36-.35.43-.57.43-.78,0-.37-.26-.59-.74-.59-.37,0-.66.11-.87.35l-.23-.2c.24-.29.64-.45,1.12-.45.64,0,1.05.33,1.05.86,0,.3-.1.58-.52.99l-1.08,1.06h1.74Z"/><path d="m178.94,170.76c0,.56-.48.91-1.23.91s-1.22-.35-1.22-.91c0-.38.22-.65.61-.78-.32-.13-.5-.37-.5-.7,0-.52.44-.84,1.11-.84s1.12.32,1.12.84c0,.33-.18.57-.51.7.4.13.62.4.62.78Zm-.34,0c0-.39-.34-.63-.9-.63s-.89.24-.89.63.33.64.89.64.9-.24.9-.64Zm-.9-.89c.49,0,.79-.22.79-.57s-.31-.58-.79-.58-.78.22-.78.57.29.57.78.57h0Z"/></g><g><path d="m191.98,171.35v.29h-2.22v-.23l1.32-1.29c.36-.35.43-.57.43-.78,0-.37-.26-.59-.74-.59-.37,0-.66.11-.87.35l-.23-.2c.24-.29.64-.45,1.12-.45.64,0,1.05.33,1.05.86,0,.3-.1.58-.52.99l-1.08,1.06h1.74Z"/><path d="m194.68,170.03c0,1.08-.59,1.64-1.45,1.64-.29,0-.55-.05-.75-.17l.13-.26c.16.11.38.15.62.15.68,0,1.12-.44,1.12-1.3,0-.07,0-.16,0-.26-.16.35-.53.54-.97.54-.63,0-1.07-.37-1.07-.95s.47-.97,1.08-.97c.84,0,1.3.58,1.3,1.59h0Zm-.45-.64c0-.35-.29-.68-.84-.68-.46,0-.77.27-.77.69s.31.68.8.68.82-.3.82-.69h-.01Z"/></g><g><path d="m207.62,170.73c0,.53-.39.94-1.15.94-.46,0-.9-.16-1.14-.41l.16-.26c.2.21.57.37.98.37.53,0,.82-.24.82-.64s-.27-.63-.86-.63h-.23v-.24l.88-1.1h-1.62v-.29h2.04v.23l-.9,1.13c.68.04,1.02.39,1.02.9h0Z"/><path d="m208.08,170.06c0-1.01.53-1.61,1.26-1.61s1.27.6,1.27,1.61-.53,1.61-1.27,1.61-1.26-.6-1.26-1.61Zm2.2,0c0-.85-.38-1.31-.93-1.31s-.93.47-.93,1.31.38,1.31.93,1.31.93-.47.93-1.31Z"/></g><g><path d="m224.12,170.73c0,.53-.39.94-1.15.94-.46,0-.9-.16-1.14-.41l.16-.26c.2.21.57.37.98.37.53,0,.82-.24.82-.64s-.27-.63-.86-.63h-.23v-.24l.88-1.1h-1.62v-.29h2.04v.23l-.9,1.13c.68.04,1.02.39,1.02.9h0Z"/><path d="m225.46,168.47v3.17h-.33v-2.88h-.75v-.29h1.08Z"/></g><path d="m253.66,112.19c0,.54-.38.96-1.15.96-.46,0-.89-.16-1.14-.41l.16-.26c.2.21.57.37.97.37.54,0,.82-.26.82-.65,0-.41-.25-.66-1.06-.66h-.68l.16-1.59h1.74v.29h-1.45l-.11,1.01h.41c.96,0,1.32.38,1.32.94h0Z"/><path d="m269.17,112.18c0,.59-.47.97-1.08.97-.84,0-1.3-.58-1.3-1.59,0-1.08.59-1.64,1.45-1.64.28,0,.55.05.75.17l-.13.26c-.16-.11-.38-.15-.62-.15-.68,0-1.12.44-1.12,1.3,0,.07,0,.16.01.26.16-.35.53-.54.97-.54.63,0,1.07.37,1.07.95h0Zm-.32,0c0-.42-.31-.68-.8-.68s-.82.3-.82.69c0,.35.29.68.84.68.46,0,.77-.27.77-.69h.01Z"/><g><path d="m205.88,94.68l-1.04,3.17h-.79l-.7-2.15-.72,2.15h-.78l-1.04-3.17h.76l.72,2.23.75-2.23h.68l.72,2.25.74-2.25h.7,0Z" fill="#1a2e35"/><path d="m208.44,96.84h-1.84c.07.3.33.49.7.49.26,0,.44-.08.61-.24l.38.41c-.23.26-.57.39-1.01.39-.84,0-1.39-.53-1.39-1.26s.56-1.26,1.3-1.26,1.27.48,1.27,1.26c0,.05,0,.13,0,.19v.02Zm-1.86-.41h1.2c-.05-.31-.28-.51-.6-.51s-.55.19-.6.51h0Z" fill="#1a2e35"/><path d="m211.41,94.49v3.36h-.68v-.28c-.18.21-.43.32-.76.32-.69,0-1.22-.49-1.22-1.26s.53-1.26,1.22-1.26c.3,0,.55.1.73.29v-1.18h.71,0Zm-.69,2.15c0-.42-.27-.68-.62-.68s-.63.25-.63.68.27.68.63.68.62-.25.62-.68Z" fill="#1a2e35"/></g><g><path d="m218.33,95.28h-1.01v-.6h2.76v.6h-1.01v2.57h-.73v-2.57h-.01Z" fill="#1a2e35"/><path d="m222.91,96.46v1.4h-.71v-1.29c0-.39-.18-.58-.49-.58-.34,0-.58.21-.58.66v1.21h-.71v-3.36h.71v1.18c.19-.19.46-.29.77-.29.58,0,1.01.34,1.01,1.08h0Z" fill="#1a2e35"/><path d="m226.01,95.42v2.44h-.67v-.29c-.19.21-.46.33-.76.33-.61,0-1.04-.34-1.04-1.1v-1.38h.71v1.27c0,.41.18.59.49.59s.56-.21.56-.66v-1.21h.71,0Z" fill="#1a2e35"/></g><g><path d="m235.45,95.27v.84h1.47v.59h-1.47v1.16h-.73v-3.17h2.4v.59h-1.67Z" fill="#1a2e35"/><path d="m239.03,95.38v.65h-.16c-.39,0-.65.21-.65.68v1.15h-.71v-2.44h.68v.32c.17-.24.46-.36.84-.36h0Z" fill="#1a2e35"/><path d="m239.37,94.68c0-.22.18-.39.44-.39s.44.16.44.38c0,.24-.18.41-.44.41s-.44-.17-.44-.39h0Zm.09.72h.71v2.44h-.71v-2.44Z" fill="#1a2e35"/></g><g><path d="m249.3,97.54l.25-.55c.27.19.67.33,1.05.33.44,0,.61-.14.61-.34,0-.59-1.84-.19-1.84-1.36,0-.54.44-.99,1.34-.99.4,0,.81.1,1.1.28l-.23.56c-.29-.17-.6-.25-.88-.25-.43,0-.6.16-.6.36,0,.58,1.84.18,1.84,1.35,0,.53-.44.98-1.35.98-.5,0-1.01-.15-1.29-.37Z" fill="#1a2e35"/><path d="m254.55,96.47v1.39h-.66v-.3c-.13.22-.39.34-.74.34-.57,0-.91-.32-.91-.74s.3-.73,1.05-.73h.56c0-.3-.18-.48-.56-.48-.26,0-.53.09-.7.23l-.25-.49c.27-.19.66-.29,1.05-.29.74,0,1.17.34,1.17,1.08h0Zm-.71.61v-.25h-.48c-.33,0-.43.12-.43.29,0,.18.15.29.4.29s.44-.11.52-.33h-.01Z" fill="#1a2e35"/><path d="m256.77,97.74c-.15.1-.36.15-.58.15-.58,0-.91-.29-.91-.87v-1h-.38v-.54h.38v-.59h.71v.59h.61v.54h-.61v.99c0,.21.11.32.3.32.1,0,.21-.03.29-.09l.19.5h0Z" fill="#1a2e35"/></g><g><path d="m264.16,97.54l.25-.55c.27.19.67.33,1.05.33.44,0,.61-.14.61-.34,0-.59-1.84-.19-1.84-1.36,0-.54.44-.99,1.34-.99.4,0,.81.1,1.1.28l-.23.56c-.29-.17-.6-.25-.88-.25-.43,0-.6.16-.6.36,0,.58,1.84.18,1.84,1.35,0,.53-.44.98-1.35.98-.5,0-1.01-.15-1.29-.37h0Z" fill="#1a2e35"/><path d="m269.71,95.42v2.44h-.67v-.29c-.19.21-.46.33-.76.33-.61,0-1.04-.34-1.04-1.1v-1.38h.71v1.27c0,.41.18.59.49.59s.56-.21.56-.66v-1.21h.71Z" fill="#1a2e35"/><path d="m272.86,96.46v1.4h-.71v-1.29c0-.39-.18-.58-.49-.58-.34,0-.58.21-.58.66v1.21h-.71v-2.44h.68v.29c.19-.21.48-.32.81-.32.58,0,1.01.34,1.01,1.08h-.01Z" fill="#1a2e35"/></g></g><g><path d="m72.81,107.99s-5.22,29.05-4.97,31.77,1.64,7.04,4.79,7.78,6.05,0,6.05,0l-3.78-35.68-2.09-3.86h0Z" fill="#fff" stroke="#231f20" stroke-miterlimit="10" stroke-width=".5"/><g><g><path d="m88.06,83.17l-.37-30.02c-.33-7.46,3.73-13.88,11.2-14.01l.69.03c6.96.29,12.53,5.87,12.8,12.82.25,6.47.45,13.63.27,17.08-.38,7.16-7.6,7.98-7.6,7.98-.02,0-.04,4.36-.04,6.46l-5.77,8v.43l-11.19-8.77h.01Z" fill="#fff" stroke="#231f20" stroke-miterlimit="10" stroke-width=".5"/><path d="m105.06,77.06s-4.53.08-9.21-3.14c0,0,2.02,5.48,9.2,5.13l.02-1.99h0Z" fill="#231f20"/><path d="m110.11,58.17c0,.54-.46.98-1.03.99-.56,0-1.02-.42-1.02-.97s.46-.99,1.03-.99,1.02.43,1.02.97Z" fill="#231f20"/><path d="m110.74,55.09c-.13.13-.88-.48-1.98-.52-1.1-.06-1.93.47-2.04.33-.06-.06.08-.3.45-.54.36-.24.96-.46,1.64-.43.69.03,1.25.31,1.57.58.33.27.43.52.37.58h0Z" fill="#231f20"/><path d="m100.28,58.17c0,.54-.46.98-1.03.99-.56,0-1.02-.42-1.02-.97s.46-.98,1.03-.99c.57,0,1.02.43,1.02.97Z" fill="#231f20"/><path d="m99.93,54.9c-.13.13-.88-.48-1.99-.52-1.1-.06-1.93.47-2.04.33-.06-.06.08-.3.45-.54.36-.24.96-.46,1.64-.43.69.03,1.25.31,1.57.58.33.27.43.52.37.58Z" fill="#231f20"/><path d="m103.53,63.53c0-.06.69-.15,1.8-.25.28-.02.55-.06.61-.25.07-.2-.03-.51-.15-.84-.24-.69-.48-1.42-.74-2.17-1.03-3.1-1.76-5.64-1.64-5.68.13-.04,1.06,2.44,2.09,5.53.25.76.48,1.49.71,2.19.09.32.26.69.1,1.11-.08.21-.3.35-.48.39-.18.05-.34.04-.48.05-1.12,0-1.81,0-1.81-.07h0Z" fill="#231f20"/><path d="m100.43,51.47c-.16.27-1.22-.06-2.52-.15-1.3-.11-2.39.07-2.51-.22-.05-.14.18-.38.65-.59.46-.21,1.17-.36,1.95-.3s1.45.31,1.88.58.62.55.55.68Z" fill="#231f20"/><path d="m110.92,51.86c-.24.24-1.13-.04-2.2-.08-1.08-.07-2,.12-2.2-.15-.09-.13.06-.38.47-.6.4-.23,1.06-.4,1.8-.36.74.04,1.38.28,1.74.55.37.27.49.53.39.65h0Z" fill="#231f20"/><path d="m88.06,58.48c-.12-.06-4.86-1.66-4.91,3.24s4.89,3.94,4.9,3.8c0-.14.01-7.04.01-7.04Z" fill="#fff" stroke="#231f20" stroke-miterlimit="10" stroke-width=".5"/><path d="m86.57,63.65s-.09.06-.23.12c-.14.06-.38.11-.64,0-.52-.19-.94-1.02-.96-1.91,0-.45.09-.87.25-1.22.15-.36.39-.61.65-.65.26-.06.44.1.5.24.06.14.03.24.06.24.01,0,.11-.08.07-.28-.02-.1-.08-.21-.19-.31-.12-.1-.29-.15-.47-.13-.38.02-.72.37-.9.75-.2.39-.32.86-.31,1.36.02.99.52,1.92,1.23,2.13.34.09.63,0,.78-.12s.18-.23.16-.24v.02Z" fill="#231f20"/><path d="m100.08,64.21c.17-.01.18,1.12,1.14,1.91.97.8,2.17.67,2.18.82.02.07-.27.22-.77.24s-1.22-.14-1.82-.62c-.59-.49-.85-1.14-.89-1.6-.04-.47.08-.75.16-.74h0Z" fill="#231f20"/></g><g><path d="m122.29,45.54c-.07-.29-.28-.53-.54-.68-.56-.34-1.21-.3-1.83-.32-1.56-.04-3.09-.46-4.47-1.18.49-.24.94-.53,1.33-.91.8-.78,1.27-1.99.92-3.05-.07-.2-.18-.41-.38-.47-.32-.1-.6.21-.82.45-.74.81-1.42,1.15-2.51,1.03-.68-.08-1.33-.24-1.86-.57-.02-.02-.04-.05-.06-.07-.25-.27-.5-.52-.74-.77h0c-1.82-1.85-3.4-3.14-5.02-3.81-2.38-.99-6.38-1.43-8.89-.8-2.5.63-4.77,2.63-5.14,5.18-1.39-1.2-3.49-1.21-5.2-.55l-.04-.02c-1.91.66-3.01,2.65-3.59,4.58-.03.11-.06.21-.09.32-.65,1.01-1.54,1.87-2.58,2.47-.18.1-.4.23-.42.44s.15.38.32.51c.45.33.98.55,1.53.66-.18.46-.39.9-.64,1.33-.22.36-.48.79-.3,1.17.14.29.51.42.83.37.32-.04.61-.22.89-.39-.22.5-.44,1.01-.65,1.51.69.13,1.4.08,2.07-.11.38,1.82.65,5.17,1.1,6.41,1.3.04,1.62-.1,2.27.13.85.29.5,1.79,1.61,1.38.57-.21,1.45-2.33,1.65-2.9,1.29-3.79,1.75-7.86,1.35-11.84.8-.83,1.75-1.5,2.8-1.97l-.09.08c2.01-.67,4.29-1.33,6.18-.37,1.47.75,2.32,2.29,3.41,3.52,2.06,2.34,4.42,3.6,7.53,3.77.26,2.17.3,5.71.38,7.73l1.77-4.02v.02c.14-.24.26-.47.37-.71l.04-.07h0c.18-.39.35-.77.58-1.15,0,0,.01,0,.02.02,1.08.98,2.71-.48,1.86-1.67-.17-.24-.37-.45-.6-.62.49.48,1.24.71,1.9.51.66-.19,1.17-.85,1.13-1.54-.03-.47-.36-.89-.78-1.08.88.08,1.79-.1,2.57-.54.51-.28,1.01-.75.85-1.39l-.02-.02Z" fill="#231f20"/><path d="m94.52,40.41s-.3.19-.73.65c-.42.46-.9,1.27-1.13,2.37-.12.55-.2,1.16-.2,1.82-.01.66.03,1.37.08,2.12.04.75.08,1.54.03,2.35-.03.41-.08.82-.18,1.24-.09.41-.21.85-.52,1.2-.25.28-.66.41-1.02.33-.36-.07-.67-.26-.91-.53-.46-.54-.56-1.23-.67-1.83l.15.02c-.25.54-.51,1.07-.89,1.49-.37.43-.89.7-1.4.74-.26.02-.52-.02-.74-.14-.22-.11-.39-.3-.5-.5s-.16-.42-.15-.64c.01-.21.1-.41.24-.56l.08.07c-.56.62-1.15.96-1.55,1.14-.2.09-.37.15-.48.18s-.17.04-.17.04c0,0,.05-.03.16-.07s.27-.1.47-.2c.39-.2.96-.54,1.5-1.16l.08.07c-.24.25-.26.7-.06,1.07.1.18.25.35.45.44.2.1.43.14.67.12.48-.04.95-.3,1.3-.71.36-.4.61-.92.86-1.46l.11-.23.04.25c.11.6.22,1.26.64,1.75.21.24.5.41.81.47s.65-.04.86-.28c.27-.3.39-.72.48-1.12.09-.4.15-.81.17-1.21.06-.81.02-1.59-.02-2.33-.04-.75-.08-1.46-.06-2.13.01-.67.1-1.29.23-1.85.25-1.12.75-1.93,1.2-2.39s.78-.61.78-.61v.02Z" fill="#fff"/><path d="m116.64,47.65s-.02.02-.06.05c-.05.03-.11.08-.18.13-.08.06-.18.13-.31.19-.12.07-.27.15-.44.22-.67.31-1.74.61-3.08.52-1.32-.09-2.91-.58-4.31-1.65-1.42-1.05-2.66-2.58-3.67-4.33-.51-.87-.93-1.77-1.39-2.6-.46-.83-.96-1.6-1.58-2.2-.61-.61-1.32-1.07-2.05-1.28-.37-.11-.74-.14-1.09-.14-.35,0-.69.08-1,.18-.62.2-1.12.54-1.51.88-.38.35-.64.72-.82,1.04-.33.66-.36,1.08-.38,1.07v-.08c0-.06.02-.13.04-.22.04-.19.12-.47.28-.81.17-.33.43-.71.82-1.08.39-.36.9-.71,1.53-.93.32-.1.67-.18,1.03-.2.37,0,.75.02,1.13.13.76.22,1.5.68,2.12,1.3.63.62,1.15,1.4,1.61,2.23.47.83.88,1.73,1.39,2.59,1,1.74,2.22,3.25,3.62,4.29,1.38,1.06,2.93,1.55,4.23,1.65,1.31.11,2.37-.17,3.04-.46.68-.29,1-.55,1.01-.53l.02.04Z" fill="#fff"/><path d="m117.33,44.5s-.09.07-.26.18c-.17.11-.43.24-.77.38-.33.14-.74.27-1.21.38-.47.1-.99.17-1.55.19-.55,0-1.08-.04-1.55-.12-.47-.09-.89-.2-1.23-.33-.34-.13-.61-.25-.78-.35-.18-.1-.27-.16-.27-.17.01-.03.41.18,1.09.4.34.11.75.21,1.21.29.46.07.98.12,1.52.11.54,0,1.06-.08,1.52-.17.46-.1.87-.22,1.2-.34.67-.25,1.05-.47,1.07-.44h.01Z" fill="#fff"/></g></g><g><g><g><g><path d="m98.56,272.37l-.71,16.21s16.24,6.17,16.4,9.17l-31.48-.25.07-25.31,15.72.16v.02Z" fill="#375a64"/><path d="m88.13,287.14c-.61.16-1.04.84-.9,1.46s.83,1.06,1.44.91,1.15-.95.95-1.55c-.2-.6-1.04-1.07-1.6-.78" fill="#e1e1e1"/><g opacity=".6"><path d="m82.77,297.51l.11-2.55,30.15,1.19s1.4.62,1.23,1.61l-31.48-.25h-.01Z" fill="#fff"/></g><path d="m98.36,288.43c0,.15-.78.22-1.54.71-.77.47-1.17,1.13-1.31,1.07-.14-.03.09-.95,1.03-1.52.93-.58,1.85-.39,1.82-.25h0Z" fill="#1a2e35"/><path d="m101.65,289.82c.03.15-.63.41-1.16,1.05-.55.63-.68,1.33-.84,1.32-.14.02-.24-.88.43-1.67.66-.8,1.57-.85,1.57-.71h0Z" fill="#1a2e35"/><path d="m103.5,293.79c-.14.03-.35-.74.05-1.58s1.12-1.17,1.19-1.04c.09.13-.38.58-.7,1.27-.34.69-.38,1.33-.54,1.35Z" fill="#1a2e35"/><path d="m98.11,284.72c-.07.14-.77-.08-1.64-.03-.87.03-1.55.32-1.63.19-.09-.11.58-.68,1.6-.72,1.02-.05,1.74.44,1.67.56Z" fill="#1a2e35"/></g><path d="m98.52,284.53c.08,0,.09,1.5.04,3.9l-.13-.19c1.84.7,4.28,1.64,6.88,2.87,2.84,1.33,5.35,2.72,6.98,4.02.82.64,1.42,1.25,1.73,1.76.33.51.28.89.23.87-.02,0-.05-.32-.4-.76-.34-.44-.96-.99-1.78-1.58-1.64-1.19-4.15-2.52-6.98-3.84-2.58-1.22-5-2.2-6.8-2.97l-.13-.06v-.14c.15-2.4.28-3.89.36-3.89h0Z" fill="#1a2e35"/></g><g><path d="m78.2,159.32v14.69l5.8,46.92s-1.84,22-2.97,34.42c-.98,10.79.62,29.57.62,29.57h17.18l6.15-62.65,3.82-39.07,6.92-23.14-37.52-.74Z" fill="#231f20"/><g><path d="m108.66,269.56l-4.5,15.59s14.34,9.81,13.78,12.77l-30.54-7.64,6.02-24.58,15.24,3.86h0Z" fill="#375a64"/><path d="m95.05,281.46c-.63.01-1.21.58-1.22,1.21s.55,1.22,1.19,1.22,1.34-.66,1.28-1.29-.76-1.28-1.37-1.13" fill="#e1e1e1"/><g opacity=".6"><path d="m87.4,290.28l.7-2.45,29.02,8.24s1.21.93.82,1.85l-30.54-7.64h0Z" fill="#fff"/></g><path d="m104.7,285.12c-.04.15-.8.03-1.66.33-.86.27-1.4.83-1.52.73-.13-.06.32-.9,1.36-1.24,1.04-.35,1.89.05,1.83.18h-.01Z" fill="#1a2e35"/><path d="m107.57,287.24c0,.15-.71.24-1.38.75-.68.48-.98,1.13-1.12,1.09-.15-.01-.03-.91.81-1.52.83-.62,1.73-.46,1.69-.32Z" fill="#1a2e35"/><path d="m108.43,291.53c-.14,0-.16-.8.42-1.52.58-.73,1.37-.87,1.4-.73.05.14-.51.47-.98,1.07-.49.59-.69,1.21-.84,1.18Z" fill="#1a2e35"/><path d="m105.33,281.45c-.1.12-.73-.26-1.59-.41-.85-.17-1.58-.05-1.63-.2-.06-.13.72-.52,1.73-.33s1.59.84,1.49.94Z" fill="#1a2e35"/></g><polygon points="122.36 160.33 123.15 168.32 122.19 226.34 108.59 272.96 105.3 284.26 87.75 280.95 101.28 160.34 122.36 160.33" fill="#231f20"/></g></g><path d="m121.83,227.56s-.02.09-.07.28-.13.46-.22.81c-.2.72-.5,1.77-.88,3.12-.79,2.73-1.93,6.71-3.37,11.72-2.91,10.04-7.02,24.21-11.84,40.82l-.04.13-.14-.03c-5.55-1.04-11.45-2.15-17.55-3.3l-.16-.03.03-.16c.9-4.73,1.83-9.67,2.79-14.71,2.84-14.93,5.51-29,7.85-41.31v.05c-2.91-18.25-5.23-32.8-6.56-41.15v.02c-1.27-2.32-2.25-4.11-2.92-5.33-.33-.6-.58-1.06-.75-1.38-.17-.31-.24-.47-.24-.47,0,0,.1.15.27.46.18.31.44.77.78,1.36.68,1.21,1.69,2.99,2.99,5.3h0v.02c1.36,8.35,3.74,22.89,6.71,41.13v.06c-2.33,12.3-4.99,26.38-7.81,41.31-.96,5.04-1.89,9.98-2.79,14.71l-.13-.19c6.11,1.15,12,2.27,17.55,3.31l-.18.11c4.86-16.6,9.01-30.76,11.95-40.79,1.48-5,2.65-8.97,3.45-11.69.4-1.35.72-2.39.93-3.11.11-.35.19-.61.25-.8.06-.18.09-.27.09-.27h.01Z" fill="#fff"/><path d="m119.2,165.09s-.28.59-.96,1.4c-.67.81-1.74,1.82-3.12,2.66-1.38.84-2.77,1.32-3.79,1.55-1.03.23-1.68.24-1.68.21-.03-.11,2.6-.37,5.31-2.04,2.72-1.63,4.16-3.86,4.24-3.78h0Z" fill="#fff"/></g><g><g><path d="m156.61,77.53c.22-.33.17-.79-.17-1.02-.08-.06-.17-.09-.26-.08-.35.06-1.28.73-1.99.75-.71.01-1.92-.21-2.64.45-.71.66-2.45,4.29-2.67,5.07-.22.79-.99,7.7-.99,7.7l8.71-12.87h0Z" fill="#fff" stroke="#231f20" stroke-miterlimit="10" stroke-width=".5"/><path d="m159.62,76.62s-8.52,3.79-12.24,5.43c-.83.37-1.02,1.44-.36,2.08h0c.4.39,1.02.49,1.52.24l12.17-5.93,1-1.52-2.08-.29h0Z" fill="#1a2e35"/><path d="m156.8,77.3s-.05.1-.16.28c-.13.2-.29.44-.48.73-.41.62-.99,1.46-1.63,2.39-.32.46-.63.9-.91,1.31-.14.2-.3.38-.46.53-.17.15-.35.25-.52.34-.34.16-.64.23-.84.28-.2.05-.32.07-.32.06,0,0,.11-.05.3-.11.2-.06.48-.15.81-.32.7-.29,1.16-1.27,1.83-2.17.64-.93,1.23-1.77,1.66-2.37.21-.28.38-.52.52-.71.12-.17.2-.26.2-.25h0Z" fill="#ff9c6a"/><path d="m157.63,82.69s.43-.93,1.04-2.04,1.13-1.99,1.16-1.97-.43.93-1.04,2.04-1.13,1.99-1.16,1.97Z" fill="#ff9c6a"/><path d="m158.48,85.93s-.03-.12-.1-.28c-.06-.17-.2-.39-.42-.54s-.48-.2-.65-.21c-.18,0-.29.02-.3,0,0-.01.1-.08.3-.1.19-.02.48.02.73.19.25.18.39.43.43.62.05.19.02.31,0,.31h.01Z" fill="#ff9c6a"/><path d="m161.48,86.9s-.11-.06-.27-.18-.37-.29-.63-.41c-.26-.12-.53-.16-.71-.12-.18.04-.25.15-.27.14-.02,0,.03-.16.24-.23.2-.07.51-.05.79.09.29.13.5.32.64.46s.22.24.2.25h.01Z" fill="#ff9c6a"/><path d="m160.32,84.17s.23-.49.59-1.06.67-1.01.7-.99c.03.02-.23.49-.59,1.06s-.67,1.01-.7.99Z" fill="#ff9c6a"/><path d="m155.14,84.41s-.02-.11-.07-.27c-.05-.16-.16-.37-.37-.52-.2-.15-.44-.19-.61-.19s-.27.04-.28.02c0-.01.09-.08.27-.11.18-.03.46,0,.69.17.24.17.35.43.38.61s0,.3-.02.29h0Z" fill="#ff9c6a"/><path d="m148.06,84.39s.12-.12.23-.34c.12-.22.2-.58.06-.94-.14-.35-.44-.57-.67-.67s-.4-.09-.4-.12c0-.01.17-.05.43.03s.6.3.76.71c.16.4.04.81-.11,1.03-.15.23-.31.31-.31.3h.01Z" fill="#375a64"/></g><g><path d="m161.42,85.31s-.03-.58.25-1.25c.28-.67-.02-1.93-.02-1.93,0,0,.43-1.64.29-2.32-.14-.68-2.16-1.16-2.16-1.16.36-.71.11-1.34-.65-1.89-.76-.55-2.22.32-2.22.32l-3.57,5.18-2.7,1.99h0s-3.44,7.94-3.44,7.94l-11.61,17.35-10.26-8.78h0l-14.49,8.09s15.24,15.34,19.52,17.32c4.28,1.98,7.08,2.63,10.41.13,3.13-2.34,14.15-27.42,15.47-30.44.62-.34,1.27-.73,1.75-1.09,1.26-.95,3.62-4.6,4.18-6.23s-.75-3.23-.75-3.23Z" fill="#fff" stroke="#231f20" stroke-miterlimit="10" stroke-width=".5"/><path d="m135.95,117.35c-.1-.02.18-1.79.05-3.98-.11-2.19-.58-3.93-.48-3.95.08-.03.7,1.7.81,3.93.13,2.24-.31,4.02-.38,4Z" fill="#231f20"/></g></g><g><path d="m83.46,86.39s8.72.13,8.85,10.99c.13,10.87-2.22,25.41-2.22,25.41l-22.26-3.92s2.76-20.23,5.12-26.06c2.37-5.86,6.9-7.41,10.51-6.42Z" fill="#ff735d"/><path d="m87.6,78.57l-.28,1.77s-11.9,7.86-12.57,9.89c-1.04,3.15,1.23,29.71,2.24,37.24,1,7.53,1.21,24.13,1.21,24.13-.73,1.95-1.56,3.72-1.83,6.45-.27,2.7,1.83,5.17,1.83,5.17,12.76,4.17,28.35.97,45.22-2.88l-.16-4.78-5.51-51.94s1.61-13.5-4.98-17.41c-.72-.43-6.47-3.69-6.47-3.69l-18.7-3.94h0Z" fill="#ff735d"/><g opacity=".3"><path d="m106.73,101.09s-.1,7.48,3.92,16.02c4.02,8.55,10.01,13.89,10.01,13.89l-1.78-15.54-12.14-14.37h-.01Z"/></g><g><path d="m116.72,87.97c-2.09-1.69-5.96-2.6-8.18-1.09-.98.67-2.13,1.69-2.69,3.31-1.89,5.52-.76,11.46.75,15.87,1.51,4.41,8.82,12.9,8.82,12.9l18.05-10.95s-12.08-14.64-13.34-16.15c-.66-.79-2.26-2.94-3.41-3.88h0Z" fill="#ff735d"/><path d="m116.72,87.97s.14.09.38.3c.24.21.58.55,1,1.01.84.92,1.94,2.36,3.43,4.11,2.95,3.55,7.12,8.57,12.06,14.51l.11.13-.15.09c-5.11,3.11-10.91,6.64-17.05,10.37-.34.21-.68.41-.99.6l-.12.07-.09-.11c-2.02-2.39-3.89-4.78-5.58-7.2-.84-1.21-1.63-2.42-2.3-3.67-.34-.62-.64-1.26-.89-1.92-.24-.65-.44-1.31-.63-1.95-1.51-5.18-1.55-10.27-.17-14.14.33-.98.92-1.81,1.58-2.45.67-.62,1.38-1.18,2.17-1.43.78-.26,1.55-.3,2.25-.27.7.04,1.32.16,1.87.32,1.1.3,1.88.74,2.39,1.06s.73.55.73.55c-.01.02-.25-.19-.76-.49-.51-.29-1.29-.71-2.39-.99-.54-.15-1.16-.26-1.84-.29-.68-.03-1.43.03-2.18.28-.75.24-1.43.79-2.09,1.4-.64.63-1.2,1.43-1.51,2.38-1.33,3.82-1.27,8.84.24,13.98.19.64.39,1.29.63,1.93.24.63.54,1.26.87,1.87.67,1.23,1.45,2.44,2.29,3.63,1.68,2.4,3.55,4.79,5.56,7.16l-.21-.03c.31-.19.65-.39.99-.6,6.14-3.72,11.96-7.24,17.07-10.34l-.04.22c-4.91-5.98-9.04-11.02-11.97-14.59-1.47-1.77-2.55-3.22-3.36-4.16-.4-.47-.73-.81-.96-1.04-.23-.23-.36-.33-.35-.34v.04Z" fill="#1a2e35"/></g><path d="m74.52,96.25s.03.11.05.31c.02.25.05.54.08.91.06.84.14,1.97.24,3.34.18,2.87.43,6.74.7,11.01.28,4.3.58,8.19.83,11,.13,1.37.23,2.49.31,3.33.03.36.06.66.08.91.01.21.02.32,0,.32-.01,0-.04-.11-.07-.31-.04-.24-.08-.54-.14-.9-.11-.78-.26-1.92-.41-3.32-.31-2.81-.65-6.7-.93-11s-.47-8.2-.6-11.02c-.06-1.37-.1-2.5-.14-3.34,0-.36-.02-.66-.02-.91,0-.21,0-.32.01-.32h0Z" fill="#1a2e35"/><path d="m114.43,159.32s-.11.05-.33.1c-.26.06-.58.14-.97.24-.42.1-.94.21-1.55.33s-1.3.25-2.07.37c-1.53.26-3.38.48-5.43.68-2.05.17-4.31.3-6.69.33-2.38.02-4.64-.06-6.69-.2-2.05-.17-3.9-.35-5.44-.6-.77-.11-1.46-.23-2.07-.35-.61-.11-1.13-.21-1.55-.32-.39-.09-.72-.17-.97-.23-.22-.06-.34-.09-.33-.1,0,0,.12,0,.35.04.26.05.59.1.99.17.43.08.95.17,1.56.26.61.1,1.3.21,2.07.3,1.54.22,3.38.38,5.42.53,2.05.12,4.3.19,6.67.17,2.37-.03,4.62-.15,6.67-.3,2.04-.18,3.88-.37,5.42-.61.77-.1,1.46-.22,2.07-.32s1.13-.19,1.56-.27c.4-.07.72-.13.99-.18.23-.04.35-.05.35-.04h-.03Z" fill="#1a2e35"/></g></g><g><rect x="2.75" y="0" width="40.47" height="42.19" fill="#e1e1e1"/><g><rect x="0" y="0" width="40.47" height="42.19" fill="#fafafa"/><path d="m40.5,42.21H0V0h40.5v42.21Zm-40.47-.03h40.44V.03H.03v42.16h0Z" fill="#e1e1e1"/></g><rect x="5.45" y="5.68" width="29.59" height="30.84" fill="#fff"/><path d="m5.45,36.73s-.26.35-.73.85-1.14,1.17-1.88,1.91c-.74.73-1.43,1.39-1.93,1.85s-.83.74-.86.71c-.03-.03.25-.35.73-.85.47-.5,1.14-1.18,1.89-1.91.75-.74,1.43-1.39,1.94-1.85.5-.46.83-.74.85-.71h0Z" fill="#e1e1e1"/><path d="m35.04,36.66s.35.26.85.73,1.17,1.14,1.91,1.88c.73.74,1.39,1.43,1.85,1.93s.74.83.71.86c-.03.03-.35-.25-.85-.73-.5-.47-1.18-1.14-1.91-1.89-.74-.75-1.39-1.43-1.85-1.94-.46-.5-.74-.83-.71-.85h0Z" fill="#e1e1e1"/><path d="m34.96,5.77s.26-.35.73-.85,1.14-1.17,1.88-1.91c.74-.73,1.43-1.39,1.93-1.85s.83-.74.86-.71c.03.03-.25.35-.73.85-.47.5-1.14,1.18-1.89,1.91-.75.74-1.43,1.39-1.94,1.85-.5.46-.83.74-.85.71h0Z" fill="#e1e1e1"/><path d="m5.37,5.84s-.35-.26-.85-.73-1.17-1.14-1.91-1.88c-.73-.74-1.39-1.43-1.85-1.93C.3.79.03.47.05.44c.03-.03.35.25.85.73.5.47,1.18,1.14,1.91,1.89.74.75,1.39,1.43,1.85,1.94.46.5.74.83.71.85h0Z" fill="#e1e1e1"/><path d="m34.96,36.53v-.58c0-.39,0-.94,0-1.67,0-1.46-.02-3.59-.03-6.29,0-5.4-.03-13.1-.06-22.31l.11.11c-8.61,0-18.73.01-29.51.02h0l.13-.13c0,11.32-.01,21.91-.02,30.84l-.11-.11c8.84.02,16.2.04,21.37.06,2.58,0,4.61.02,6,.03.69,0,1.22,0,1.59,0h.55-.53c-.36,0-.89,0-1.57,0-1.39,0-3.41.02-5.98.03-5.18,0-12.57.03-21.44.06h-.11v-.11c0-8.93-.01-19.52-.02-30.84v-.13h.13c10.78,0,20.89.01,29.51.02h.11v.11c-.02,9.24-.04,16.97-.06,22.39,0,2.69-.02,4.81-.03,6.26,0,.71,0,1.26,0,1.64v.58Z" fill="#e1e1e1"/><rect x="15.31" y="16.17" width="9.87" height="9.87" fill="#ececec"/></g><g><path d="m177.34,195.96h86.29c8.3,0,15.02,6.72,15.02,15.02h0c0,8.3-6.72,15.02-15.02,15.02h-86.29c-8.3,0-15.02-6.72-15.02-15.02h0c0-8.3,6.72-15.02,15.02-15.02Z" fill="#007cff"/><g><path d="m187.25,215.32v-8.4h3.06c.94,0,1.66.18,2.16.53s.76.86.76,1.51c0,.45-.13.84-.4,1.18s-.61.57-1.03.71v.02c.54.07.97.28,1.29.64s.48.79.48,1.3c0,.77-.28,1.38-.83,1.83s-1.3.68-2.26.68h-3.23Zm1.89-7.01v2.05h.83c.39,0,.7-.09.92-.28s.34-.45.34-.77-.12-.58-.35-.75-.58-.25-1.04-.25h-.71.01Zm0,3.46v2.16h1.03c.44,0,.78-.1,1.03-.3s.37-.48.37-.83c0-.32-.12-.57-.37-.75s-.58-.27-1.02-.27h-1.04Z" fill="#fff"/><path d="m198.49,215.47c-1.2,0-2.18-.39-2.94-1.17s-1.14-1.8-1.14-3.06c0-1.33.38-2.4,1.15-3.22s1.79-1.23,3.06-1.23c1.2,0,2.17.39,2.91,1.18s1.11,1.82,1.11,3.11-.38,2.38-1.15,3.19-1.77,1.21-3,1.21h0Zm.04-1.64c.65,0,1.17-.24,1.55-.71s.57-1.12.57-1.96-.19-1.55-.56-2.03-.88-.73-1.52-.73-1.19.25-1.58.75-.59,1.16-.59,1.98.2,1.49.59,1.97.9.73,1.54.73h0Z" fill="#fff"/><path d="m207.59,215.47c-1.2,0-2.18-.39-2.94-1.17s-1.14-1.8-1.14-3.06c0-1.33.38-2.4,1.15-3.22s1.79-1.23,3.06-1.23c1.2,0,2.17.39,2.91,1.18s1.11,1.82,1.11,3.11-.38,2.38-1.15,3.19-1.77,1.21-3,1.21h0Zm.04-1.64c.65,0,1.17-.24,1.55-.71s.57-1.12.57-1.96-.19-1.55-.56-2.03-.88-.73-1.52-.73-1.19.25-1.58.75-.59,1.16-.59,1.98.2,1.49.59,1.97.9.73,1.54.73h0Z" fill="#fff"/><path d="m220.1,215.32h-2.36l-2.45-3.58s-.05-.09-.09-.17-.08-.18-.13-.29h-.03v4.04h-1.89v-8.4h1.89v3.9h.03c.02-.05.05-.12.09-.2s.09-.17.14-.27l2.32-3.43h2.2l-2.89,3.96,3.17,4.44h0Z" fill="#fff"/><path d="m231.8,215.32h-1.91l-3.46-5.28c-.1-.16-.19-.29-.26-.41s-.12-.21-.16-.29h-.02c.02.15.03.34.04.56s0,.49,0,.8v4.62h-1.79v-8.4h2.04l3.33,5.12c.07.11.15.23.22.34s.14.23.2.34h.02c-.02-.1-.03-.24-.04-.44s0-.43,0-.72v-4.65h1.79v8.4h0Z" fill="#fff"/><path d="m237.27,215.47c-1.2,0-2.18-.39-2.94-1.17s-1.14-1.8-1.14-3.06c0-1.33.38-2.4,1.15-3.22s1.79-1.23,3.06-1.23c1.2,0,2.17.39,2.91,1.18s1.11,1.82,1.11,3.11-.38,2.38-1.15,3.19-1.77,1.21-3,1.21h0Zm.04-1.64c.65,0,1.17-.24,1.55-.71s.57-1.12.57-1.96-.19-1.55-.56-2.03-.88-.73-1.52-.73-1.19.25-1.58.75-.59,1.16-.59,1.98.2,1.49.59,1.97.9.73,1.54.73h0Z" fill="#fff"/><path d="m253.52,206.92l-2.22,8.4h-2.1l-1.39-5.39c-.04-.14-.06-.29-.09-.45s-.04-.32-.05-.5h-.02c-.02.19-.04.37-.06.52s-.06.3-.09.42l-1.43,5.39h-2.19l-2.21-8.4h2.07l1.18,5.6c.03.12.05.26.07.42s.03.34.04.54h.04c0-.15.03-.31.06-.47s.07-.33.11-.51l1.52-5.57h2.03l1.38,5.64c.02.1.05.23.07.38s.04.33.06.52h.02c0-.16.02-.31.04-.47s.05-.31.08-.47l1.16-5.61h1.92Z" fill="#fff"/></g></g><g><g><path d="m74.53,78.3l-7.4.72c-2.95,3.75-7.06,6.68-12.06,8.15-11.27,3.32-23.51-2.23-28.42-12.91-6.16-13.41,1.07-29.05,15.27-33.05,11.39-3.21,23.63,2.63,28.34,13.49,2.41,5.55,2.54,11.45.87,16.73h0l3.39,6.87h.01Z" fill="#fff"/><path d="m74.53,78.3s-.09-.16-.25-.46c-.16-.32-.39-.76-.68-1.32-.59-1.17-1.45-2.86-2.57-5.05h.19v.02c-.03.05-.1.07-.15.03-.04-.03-.06-.08-.05-.13.89-2.91,1.54-6.97.63-11.63-.43-2.32-1.32-4.75-2.65-7.11s-3.15-4.65-5.47-6.58c-2.32-1.93-5.14-3.51-8.29-4.46-3.15-.96-6.63-1.29-10.12-.81-6.97.92-13.97,5.37-17.58,12.27l-.67,1.29-.54,1.34c-.41.88-.59,1.83-.89,2.74-.42,1.86-.73,3.74-.7,5.61-.03,3.74.84,7.38,2.38,10.57,1.57,3.18,3.8,5.9,6.37,7.97,2.57,2.08,5.47,3.54,8.39,4.37,5.86,1.68,11.61.9,15.92-.99,4.37-1.87,7.36-4.68,9.25-7.05.03-.01.05-.03.08-.04,2.37-.2,4.2-.36,5.47-.46.61-.05,1.09-.09,1.43-.11.33-.02.5-.03.5-.03,0,0-.14.03-.45.06-.34.04-.8.09-1.4.16-1.28.14-3.14.34-5.54.6l.08-.04c-1.87,2.42-4.87,5.29-9.29,7.23-4.36,1.94-10.2,2.78-16.18,1.09-2.97-.84-5.93-2.31-8.56-4.43-2.63-2.11-4.92-4.88-6.52-8.12-1.58-3.25-2.47-6.97-2.45-10.79-.02-1.91.28-3.83.71-5.73.3-.93.5-1.9.91-2.8l.56-1.37.68-1.32c3.69-7.06,10.85-11.59,17.97-12.52,3.57-.48,7.12-.14,10.33.85,3.21.98,6.08,2.6,8.44,4.58,2.36,1.98,4.2,4.32,5.54,6.72,1.34,2.41,2.22,4.88,2.64,7.23.89,4.73.19,8.84-.75,11.76l-.2-.09h0c.03-.06.1-.08.15-.05.02.01.03.03.04.05,1.08,2.25,1.91,3.98,2.48,5.18.26.56.47.99.62,1.31.14.29.2.44.19.43v.03Z" fill="#1a2e35"/></g><g><path d="m33.09,63.1v2.29h-1.58v-7h2.47c.88,0,1.54.19,1.98.57s.66.95.66,1.72c0,.72-.25,1.31-.76,1.75s-1.18.67-2.03.67h-.75,0Zm0-3.5v2.3h.62c.42,0,.73-.1.94-.29s.31-.48.31-.87-.1-.67-.31-.85-.52-.28-.94-.28h-.62Z" fill="#ff735d"/><path d="m43.34,65.4h-1.78l-.93-1.72c-.15-.28-.3-.49-.45-.63s-.32-.22-.52-.24h-.42v2.6h-1.58v-7h2.5c.85,0,1.49.17,1.91.5s.64.83.64,1.49c0,.47-.14.87-.41,1.2s-.65.58-1.12.74v.02c.21.06.4.2.58.41s.33.42.46.65l1.13,1.99h-.01Zm-4.11-5.83v2.03h.68c.34,0,.62-.1.82-.31s.31-.46.31-.76c0-.32-.09-.56-.27-.72s-.46-.24-.83-.24c0,0-.71,0-.71,0Z" fill="#ff735d"/><path d="m47.05,65.52c-1,0-1.82-.33-2.45-.98s-.95-1.5-.95-2.55c0-1.11.32-2,.96-2.69s1.49-1.03,2.55-1.03c1,0,1.81.33,2.42.98s.93,1.52.93,2.59-.32,1.99-.96,2.66c-.64.67-1.47,1.01-2.5,1.01h0Zm.03-1.35c.54,0,.98-.2,1.29-.59s.48-.94.48-1.63-.15-1.29-.46-1.69-.73-.61-1.27-.61-.99.21-1.32.62-.49.96-.49,1.65.16,1.24.49,1.65.75.61,1.28.61h0Z" fill="#ff735d"/><path d="m59.65,65.4h-1.56v-4.19c0-.22,0-.46,0-.71s.02-.51.04-.79h-.04c-.04.21-.08.4-.11.55s-.07.28-.1.37l-1.64,4.76h-1.29l-1.67-4.71c-.02-.06-.05-.18-.09-.34s-.08-.37-.13-.63h-.04c.02.35.04.67.05.97s0,.58,0,.84v3.87h-1.42v-7h2.31l1.43,4.15c.06.15.11.31.14.46s.07.31.1.46h.03c.05-.18.09-.34.14-.5s.09-.3.14-.43l1.43-4.14h2.25v7h.01Z" fill="#ff735d"/><path d="m64.2,65.52c-1,0-1.82-.33-2.45-.98s-.95-1.5-.95-2.55c0-1.11.32-2,.96-2.69s1.49-1.03,2.55-1.03c1,0,1.81.33,2.42.98s.93,1.52.93,2.59-.32,1.99-.96,2.66c-.64.67-1.47,1.01-2.5,1.01h0Zm.03-1.35c.54,0,.98-.2,1.29-.59s.48-.94.48-1.63-.15-1.29-.46-1.69-.73-.61-1.27-.61-.99.21-1.32.62-.49.96-.49,1.65.16,1.24.49,1.65.75.61,1.28.61h0Z" fill="#ff735d"/><path d="m37.97,75.4v-.63c0-.43.07-.82.22-1.16s.33-.65.54-.92c.22-.27.46-.51.72-.72s.51-.4.74-.57c.25-.17.46-.34.64-.5s.34-.31.48-.46c.14-.16.25-.32.31-.5s.1-.38.1-.61c0-.29-.09-.52-.27-.72s-.45-.29-.8-.29c-.23,0-.52.06-.87.18s-.7.3-1.03.56l-.89-1.18c.47-.36.96-.62,1.45-.78s1.04-.25,1.63-.25c.8,0,1.44.22,1.92.65s.71.97.71,1.59c0,.49-.06.89-.18,1.18s-.28.57-.48.81c-.2.25-.42.47-.68.68s-.53.4-.8.59c-.19.13-.37.26-.54.4s-.33.26-.46.38c-.13.13-.24.25-.32.38s-.12.24-.12.35h3.56v1.54h-5.59,0Z" fill="#ff735d"/><path d="m44.74,74.67l.86-1.13c.27.2.54.35.83.45s.56.14.84.14c.43,0,.76-.12.99-.35s.35-.53.35-.89c0-.45-.15-.78-.45-.99s-.74-.31-1.33-.31c-.21,0-.45,0-.7.03s-.52.04-.8.07l.32-4.69h4.45v1.51h-3.04l-.12,1.68c.15-.01.29-.02.42-.03s.25,0,.36,0c.86,0,1.54.23,2.03.68s.73,1.08.73,1.88-.28,1.49-.83,2.02-1.32.81-2.3.81c-.5,0-.96-.07-1.38-.21s-.83-.36-1.23-.66h0Z" fill="#ff735d"/><path d="m53.59,71.25c-.6,0-1.08-.19-1.44-.57s-.55-.89-.55-1.53c0-.7.19-1.25.58-1.66s.91-.62,1.56-.62,1.11.19,1.46.56.52.89.52,1.56-.19,1.24-.58,1.65-.9.61-1.55.61Zm6.13-4.26l-5.47,8.4h-1.43l5.46-8.4h1.44Zm-6.02.91c-.29,0-.5.1-.64.3s-.21.5-.21.89.07.66.21.84.34.28.61.28.49-.1.62-.29.21-.49.21-.88-.07-.67-.2-.86-.33-.28-.59-.28h0Zm5.12,7.61c-.6,0-1.08-.19-1.44-.57s-.55-.89-.55-1.53c0-.7.19-1.25.58-1.66s.91-.62,1.56-.62,1.11.18,1.46.55.52.89.52,1.56-.19,1.24-.58,1.65-.9.62-1.55.62Zm.09-3.35c-.28,0-.49.1-.64.3s-.21.5-.21.89.07.66.21.84.34.28.62.28.49-.1.62-.29.21-.49.21-.88c0-.36-.07-.64-.22-.84s-.34-.3-.59-.3Z" fill="#ff735d"/></g></g><g><g><path d="m108.15,31.32l1.32-4.88c-1.68-2.77-2.56-6.09-2.3-9.62.58-7.96,7.04-14.42,15.01-14.98,10-.71,18.22,7.63,17.36,17.62-.69,8.01-7.33,14.4-15.36,14.79-4.11.2-7.89-1.13-10.85-3.45h0l-5.19.52h0Z" fill="#fff"/><path d="m108.15,31.32s.12-.02.35-.05c.24-.03.57-.07,1-.12.89-.1,2.17-.24,3.83-.42l-.05.12h0s-.02-.09.01-.11.07-.02.09,0c1.64,1.27,4.07,2.65,7.25,3.18,1.58.28,3.33.3,5.15.02s3.71-.89,5.49-1.91c1.78-1.01,3.46-2.43,4.82-4.21,1.36-1.77,2.4-3.91,2.94-6.24,1.08-4.65-.07-10.17-3.59-14.12l-.66-.73-.72-.67c-.46-.47-1.02-.81-1.53-1.22-1.08-.71-2.2-1.36-3.4-1.79-2.37-.91-4.89-1.23-7.29-1.02-2.4.23-4.66,1-6.6,2.14s-3.56,2.63-4.79,4.29c-2.47,3.32-3.35,7.17-3.18,10.36.14,3.22,1.21,5.8,2.27,7.57v.06c-.44,1.56-.78,2.76-1.02,3.59-.12.4-.2.71-.27.94-.06.21-.1.33-.1.33,0,0,.02-.1.07-.3.06-.22.13-.53.23-.93.22-.85.53-2.08.94-3.67v.06c-1.08-1.77-2.19-4.37-2.36-7.63-.19-3.23.67-7.15,3.18-10.55,1.24-1.69,2.89-3.22,4.86-4.39,1.97-1.17,4.28-1.96,6.73-2.2,2.45-.23,5.03.1,7.45,1.03,1.22.44,2.37,1.1,3.48,1.83.52.42,1.09.77,1.56,1.25l.74.68.68.75c3.6,4.03,4.77,9.68,3.66,14.42-.55,2.39-1.62,4.56-3.01,6.36-1.39,1.81-3.11,3.25-4.93,4.27-1.82,1.03-3.75,1.64-5.6,1.91s-3.63.24-5.23-.05c-3.22-.57-5.66-1.99-7.3-3.29l.11-.1h0s.02.09-.01.11c-.01,0-.03.01-.04.02-1.69.15-2.99.26-3.89.34-.42.03-.74.06-.98.08-.22.02-.33.02-.32.02h-.02Z" fill="#1a2e35"/></g><polygon points="123.1 27.52 113.22 20.92 115.53 17.47 122.16 21.9 130.4 10.99 133.71 13.49 123.1 27.52" fill="#2ed300"/></g></svg>