<?xml version="1.0" encoding="UTF-8"?><svg id="Layer_1" xmlns="http://www.w3.org/2000/svg" viewBox="0 0 264.9 241.8"><g><g><polygon points="234.2 174.7 234.2 183.6 238 186.3 220.5 186.3 226.1 184.2 226.1 175.4 234.2 174.7" fill="#e1e1e1"/><path d="m187.2,186v27.8h77.7v-27.8h-77.7Zm1.4,1.8h60.9v9.1h-60.9v-9.1Z" fill="#e1e1e1"/><path d="m187.2,186v27.8h64.1v-27.8h-64.1Zm1.4,1.8h60.9v9.1h-60.9v-9.1Z" fill="#ececec"/><rect x="188.74" y="187.87" width="12.5" height="9.1" fill="#e1e1e1"/><rect x="233.99" y="192.41" width="15.5" height="4.5" fill="#e1e1e1"/><rect x="221.1" y="194.26" width="11.7" height="2.7" fill="#e1e1e1"/><rect x="207.39" y="191.44" width="11.1" height="5.5" fill="#e1e1e1"/><polygon points="238.5 198.9 238.8 200 243.3 200 243.6 198.9 249.5 198.9 249.5 211 229.9 211 229.9 198.9 238.5 198.9" fill="#e1e1e1"/><polygon points="215.2 198.9 215.5 200 220 200 220.4 198.9 228.9 198.9 228.9 211 209.3 211 209.3 198.9 215.2 198.9" fill="#e1e1e1"/><polygon points="197.2 198.9 197.6 200 202 200 202.4 198.9 208.3 198.9 208.3 211 188.7 211 188.7 198.9 197.2 198.9" fill="#e1e1e1"/><g><path d="m200,180h55.2c1.9,0,3.5-1.6,3.5-3.5v-30.5c0-1.9-1.6-3.5-3.5-3.5h-55.2c-1.9,0-3.5,1.6-3.5,3.5v30.5c-.1,1.9,1.5,3.5,3.5,3.5Z" fill="#e1e1e1"/><path d="m198.5,180h55.2c1.9,0,3.5-1.6,3.5-3.5v-30.5c0-1.9-1.6-3.5-3.5-3.5h-55.2c-1.9,0-3.5,1.6-3.5,3.5v30.5c0,1.9,1.5,3.5,3.5,3.5Z" fill="#e7e7e7"/><rect x="196.8" y="144.24" width="58.6" height="33.9" fill="#f0f0f0"/></g></g><g><rect x="10.2" y="42.9" width="73.8" height="76.2" fill="#ececec"/><rect x="12.8" y="42.9" width="73.8" height="76.2" fill="#f0f0f0"/><rect x="14.7" y="44.7" width="70" height="72.7" fill="#e1e1e1"/><rect x="14.7" y="44.7" width="68.2" height="72.7" fill="#f5f5f5"/><rect x="48.1" y="44.7" width="1.4" height="72.7" fill="#ececec"/><polygon points="57.4 44.7 76.9 117.3 78.7 117.3 59.3 44.7 57.4 44.7" fill="#fff"/><rect x="48.9" y="43.6" width="1.2" height="75.2" fill="#f0f0f0"/><polygon points="64.5 44.7 82.9 113.4 82.9 75.6 74.6 44.7 64.5 44.7" fill="#fff"/><polygon points="14.7 51.3 14.7 58.2 30.5 117.3 32.3 117.3 14.7 51.3" fill="#fff"/><polygon points="14.7 65.4 14.7 103.2 18.5 117.3 28.6 117.3 14.7 65.4" fill="#fff"/></g><g><rect x="202.8" y="47.2" width="44.7" height="54.4" fill="#e7e7e7"/><polygon points="237.2 88.1 213.8 65 239.2 60.8 237.2 88.1" fill="#e1e1e1"/><polygon points="214.3 82.6 213.2 64.9 230.8 69.3 232.1 82.8 214.3 82.6" fill="#f0f0f0"/><circle cx="237.45" cy="57.68" r="7.1" fill="#fafafa"/><path d="m216.6,89c0-1.9-1.5-3.5-3.5-3.5s-3.5,1.5-3.5,3.5,1.5,3.5,3.5,3.5c2-.1,3.5-1.6,3.5-3.5Z" fill="#e1e1e1"/><polygon points="214 95 224 89 215.6 82 214 95" fill="#f5f5f5"/><rect x="225.77" y="54.17" width="2" height="43.4" fill="#e1e1e1"/><rect x="207" y="54.15" width="2.5" height="41.5" fill="#ececec"/><rect x="229.97" y="82.84" width="13" height="13" fill="#ececec"/></g><g><path d="m47.8,186.5l-8.2-23.7s11.4,8.5,11.3-.9-5.2-2.1-7-5.6,5.1-3.4,2.7-8.7c-2.4-5.3-9.2,2.8-10.4-1.8-1.2-4.7-3.1-7-8.1-6.6,0,0-2.7,6.1.6,10.5,3.3,4.4-8.1.9-7,5.3,1.2,4.4,5,8.3,6.7,5.2s3.8,2.9.9,4.4,3.8,8.2,5.2,4.7c1.5-3.5,3.7-6.6,3.7-6.6l7.6,25.4,2-1.6Z" fill="#ececec"/><path d="m56.3,186.7l9.3-15.2s-9.2,4.1-7.7-2.3c1.5-6.5,3.9-.7,5.7-2.8,1.8-2.1-3-3.1-.5-6.4,2.5-3.3,6,3.3,7.5.3s3.2-4.4,6.6-3.3c0,0,.9,4.6-2,7.2-2.9,2.6,5.5,1.8,4,4.7s-4.7,5-5.4,2.6c-.7-2.4-3.1,1.4-1.3,2.9,1.8,1.5-3.8,5.1-4.3,2.5s-1.6-5.2-1.6-5.2l-9.1,16.4-1.2-1.4Z" fill="#e7e7e7"/><path d="m50,186.9l4.2-24.4s-9.8,10.1-11.2.9c-1.4-9.2,4.7-2.9,5.9-6.5,1.2-3.7-5.5-2.5-4-8s9.4,1.3,9.9-3.4c.4-4.7,1.9-7.3,6.8-7.7,0,0,3.6,5.5,1.1,10.4-2.5,4.8,8.1-.4,7.6,4.1-.4,4.5-3.5,8.9-5.7,6.1-2.1-2.8-3.3,3.4-.2,4.5,3,1-2.3,8.6-4.3,5.4-2-3.2-4.7-5.9-4.7-5.9l-3.4,25.9-2-1.4Z" fill="#f5f5f5"/><g><path d="m44.8,214.3h14.6c1,0,1.9-.8,1.9-1.8l1.5-25.1c.1-1.1-.8-2-1.9-2h-17.7c-1.1,0-2,.9-1.9,2l1.5,25.1c.1,1,.9,1.8,2,1.8Z" fill="#ececec"/><path d="m41.5,188.2h21.3c1,0,1.8-.7,1.9-1.7h0c.1-1.1-.8-2.1-1.9-2.1h-21.3c-1.2,0-2,1-1.9,2.1h0c.1.9.9,1.7,1.9,1.7Z" fill="#f5f5f5"/></g></g></g><ellipse id="_Path_" cx="120.6" cy="234.8" rx="120.6" ry="7" fill="#f5f5f5"/><g><g><path d="m215.5,0h-105.2c-5.9,0-10.6,4.8-10.6,10.8v216.5c0,6,4.8,10.8,10.6,10.8h105.2c5.9,0,10.6-4.9,10.6-10.8V10.9c0-6-4.8-10.9-10.6-10.9Zm4,220.7c0,5.7-4.3,10.3-9.5,10.3h-94.1c-5.3,0-9.5-4.6-9.5-10.3V19.1c0-11.6,4.3-12.2,9.5-12.2h18.8c1.1,0,2,1.2,2,2.8v.7c0,3.6,2,3.6,4.4,3.6h43.6c2.5,0,4.4,0,4.4-3.6v-.7c0-1.5.9-2.8,2-2.8h18.8c5.3,0,9.5,1.5,9.5,12.2v201.6h.1Z"/><g><path d="m219.5,19.1v201.6c0,5.7-4.3,10.3-9.5,10.3h-94.1c-5.3,0-9.5-4.6-9.5-10.3V19.1c0-11.6,4.3-12.2,9.5-12.2h18.8c1.1,0,2,1.2,2,2.8v.7c0,3.6,2,3.6,4.4,3.6h43.6c2.5,0,4.4,0,4.4-3.6v-.7c0-1.5.9-2.8,2-2.8h18.8c5.3,0,9.6,1.6,9.6,12.2Z" fill="#fff"/><g><path d="m219.5,19.1v22.7h-113.2v-22.7c0-11.6,4.3-12.2,9.5-12.2h18.9c1.1,0,2,1.2,2,2.8v.7c0,3.6,2,3.6,4.4,3.6h43.6c2.5,0,4.4,0,4.4-3.6v-.7c0-1.5.9-2.8,2-2.8h18.8c5.3,0,9.6,1.6,9.6,12.2Z" fill="#007cff"/><g><g id="u5Zjqx"><g><path d="m131.5,11.4q-.1.1-.2.2l-.1.1c-.5-.5-1.1-.7-1.8-.7s-1.3.3-1.8.7l-.1-.1q-.1-.1-.2-.2h0c.1-.1.2-.1.2-.2.2-.1.3-.2.5-.3.2-.1.5-.2.7-.2h.9c.2,0,.4.1.6.2.2.1.3.1.4.2.1.1.3.2.4.3.3-.1.4,0,.5,0h0Z" fill="#fff"/><path d="m128.2,12.3c-.1-.1-.2-.2-.3-.3.3-.3.7-.5,1.2-.6.7-.1,1.3.1,1.8.6-.1.1-.2.2-.3.3-.3-.3-.7-.5-1.2-.5-.4,0-.8.2-1.2.5Z" fill="#fff"/><path d="m130.3,12.6c-.1.1-.2.2-.3.3-.2-.2-.4-.3-.6-.2-.2,0-.4.1-.6.3-.1-.1-.2-.2-.3-.3.5-.6,1.3-.6,1.8-.1Z" fill="#fff"/></g><path d="m129.7,13.1c0,.1-.1.3-.3.3-.1,0-.3-.1-.3-.3,0-.1.1-.3.3-.3.2.1.3.2.3.3Z" fill="#fff"/></g><g><path d="m113.7,12c0-.4.3-.7.7-.7s.7.3.7.7-.3.7-.7.7-.7-.3-.7-.7Z" fill="#fff"/><path d="m116.1,12c0-.4.3-.7.7-.7s.7.3.7.7-.3.7-.7.7-.7-.3-.7-.7Z" fill="#fff"/><path d="m118.4,12c0-.4.3-.7.7-.7s.7.3.7.7-.3.7-.7.7c-.3,0-.7-.3-.7-.7Z" fill="#fff"/><path d="m120.8,12c0-.4.3-.7.7-.7s.7.3.7.7-.3.7-.7.7-.7-.3-.7-.7Z" fill="#fff"/><path d="m123.1,12c0-.4.3-.7.7-.7s.7.3.7.7-.3.7-.7.7c-.3,0-.7-.3-.7-.7Z" fill="#fff"/></g><g><path d="m211,13.6h-6.1v-2.8h6.1v2.8Zm-5.8-.3h5.5v-2.2h-5.5v2.2Z" fill="#fff"/><rect x="205.4" y="11.3" width="3.9" height="1.9" fill="#fff"/><rect x="211" y="11.5" width=".5" height="1.5" fill="#fff"/></g></g><g><polygon points="116.6 35.4 113.3 32.3 116.6 29.1 117.2 29.7 114.4 32.3 117.2 34.9 116.6 35.4" fill="#fff"/><polygon points="209.2 29.1 212.5 32.3 209.2 35.4 208.6 34.9 211.4 32.3 208.6 29.7 209.2 29.1" fill="#fff"/><g><path d="m141.5,34.9h-1.3l-.7-1.2c-.1-.2-.2-.3-.3-.4-.1-.1-.2-.2-.4-.2h-.3v1.8h-1.1v-4.8h1.8c.6,0,1,.1,1.4.3.3.2.4.6.4,1,0,.3-.1.6-.3.8s-.5.4-.8.5h0c.1,0,.3.1.4.3.1.1.2.3.3.4l.9,1.5Zm-2.9-3.9v1.3h.5c.2,0,.4-.1.6-.2.1-.1.2-.3.2-.5s-.1-.4-.2-.5-.3-.2-.6-.2h-.5v.1Z" fill="#fff"/><path d="m145.3,34.9h-3v-4.8h2.9v.9h-1.7v1.1h1.6v.9h-1.6v1.1h1.9v.8h-.1Z" fill="#fff"/><path d="m150.3,34.6c-.2.1-.5.2-.8.3s-.6.1-1,.1c-.8,0-1.4-.2-1.9-.6-.5-.4-.7-1-.7-1.8,0-.7.2-1.3.7-1.8s1.1-.7,2-.7c.3,0,.6,0,.9.1s.5.1.8.2l-.3.8c-.2-.1-.5-.2-.7-.2s-.4-.1-.7-.1c-.5,0-.8.1-1.1.4-.3.3-.4.7-.4,1.2s.1.9.4,1.2c.3.2.6.4,1,.4h.4c.1,0,.2,0,.3-.1v-.9h-1v-.9h2.1v2.4Z" fill="#fff"/><path d="m152.6,34.9h-1.1v-4.8h1.1v4.8Z" fill="#fff"/><path d="m153.5,34.6l.5-.8c.2.1.5.2.6.3.2,0,.4.1.6.1.3,0,.5,0,.6-.1s.2-.2.2-.4-.1-.3-.2-.4c-.1-.1-.3-.2-.6-.2-.6-.1-1-.3-1.2-.5-.3-.2-.4-.5-.4-.9s.2-.7.5-1,.8-.4,1.4-.4c.2,0,.5,0,.7.1s.5.1.7.2l-.4.8c-.2-.1-.4-.2-.5-.2-.2,0-.3-.1-.5-.1s-.4,0-.5.1-.3.1-.3.2.1.3.2.3c.1.1.3.1.6.2.5.1.9.3,1.2.5.2.2.4.6.4,1,0,.5-.2.8-.5,1.1s-.8.4-1.4.4c-.3,0-.6,0-.9-.1s-.6-.1-.8-.2Z" fill="#fff"/><path d="m161.5,31h-1.4v3.9h-1.1v-3.9h-1.4v-.9h3.9v.9Z" fill="#fff"/><path d="m166.3,34.9h-1.3l-.7-1.2c-.1-.2-.2-.3-.3-.4-.1-.1-.2-.2-.4-.2h-.3v1.8h-1.1v-4.8h1.8c.6,0,1,.1,1.4.3.3.2.4.6.4,1,0,.3-.1.6-.3.8s-.5.4-.8.5h0c.1,0,.3.1.4.3.1.1.2.3.3.4l.9,1.5Zm-2.9-3.9v1.3h.5c.2,0,.4-.1.6-.2.1-.1.2-.3.2-.5s-.1-.4-.2-.5-.3-.2-.6-.2h-.5v.1Z" fill="#fff"/><path d="m166.6,34.9l1.8-4.8h1.3l1.8,4.8h-1.2l-.3-1h-1.8l-.3,1h-1.3Zm1.7-1.8h1.3l-.5-1.7v-.4h0v.2s0,.1-.1.2l-.7,1.7Z" fill="#fff"/><path d="m175.7,31h-1.4v3.9h-1.1v-3.9h-1.4v-.9h3.9v.9Z" fill="#fff"/><path d="m177.7,34.9h-1.1v-4.8h1.1v4.8Z" fill="#fff"/><path d="m181.1,35c-.7,0-1.3-.2-1.7-.7-.4-.4-.7-1-.7-1.7,0-.8.2-1.4.7-1.8.5-.5,1.1-.7,1.8-.7s1.3.2,1.7.7c.4.4.7,1,.7,1.8,0,.7-.2,1.4-.7,1.8-.5.4-1.1.6-1.8.6Zm0-.9c.4,0,.7-.1.9-.4s.3-.6.3-1.1-.1-.9-.3-1.2-.5-.4-.9-.4-.7.1-.9.4c-.2.3-.3.7-.3,1.1,0,.5.1.8.3,1.1.2.3.5.5.9.5Z" fill="#fff"/><path d="m188.9,34.9h-1.1l-2-3c-.1-.1-.1-.2-.2-.2s-.1-.1-.1-.2h0v3.4h-1.1v-4.8h1.2l2,2.9c0,.1.1.1.1.2s.1.1.1.2h0v-3.2h1.1v4.7Z" fill="#fff"/></g></g></g><path d="m168.8,9.5h-11.9c-.4,0-.7-.3-.7-.7h0c0-.4.3-.7.7-.7h11.9c.4,0,.7.3.7.7h0c.1.4-.3.7-.7.7Z" fill="#1a2e35"/></g></g><g><g><path d="m145.3,163.9h-1.5c-.1,0-.2-.1-.2-.2s.1-.2.2-.2h3.4c.1,0,.2.1.2.2s-.1.2-.2.2h-1.5v4.6c0,.1-.1.2-.2.2s-.2-.1-.2-.2v-4.6Z" fill="#1a2e35"/><path d="m151.1,166.5c0-.6-.5-1-1.1-1s-1.1.4-1.1,1v2h0l-.1.1h0q-.1,0-.1-.1v-5c0-.1.1-.2.2-.2s.2.1.2.2v1.9c.3-.3.7-.5,1.1-.5.8,0,1.5.6,1.5,1.4v2c0,.1-.1.2-.2.2s-.2-.1-.2-.2v-1.8h-.2Z" fill="#1a2e35"/><path d="m156.2,165.2v3.2c0,.1-.1.2-.2.2s-.2-.1-.2-.2v-.5c-.3.4-.8.7-1.3.7-.9,0-1.7-.8-1.7-1.8s.8-1.8,1.7-1.8c.5,0,1,.3,1.3.7v-.5c0-.1.1-.2.2-.2q.2.1.2.2Zm-.3,1.6c0-.8-.6-1.4-1.3-1.4s-1.3.6-1.3,1.4.6,1.4,1.3,1.4c.7.1,1.3-.5,1.3-1.4Z" fill="#1a2e35"/><path d="m160.2,166.5c0-.6-.5-1.1-1.1-1.1s-1.1.5-1.1,1.1v1.9h0v.1l-.1.1h0c-.1,0-.1-.1-.1-.1h0v-3.2c0-.1.1-.2.2-.2s.2.1.2.2v.3c.3-.3.7-.5,1.1-.5.8,0,1.4.7,1.4,1.4v1.9c0,.1-.1.2-.2.2s-.2-.1-.2-.2v-1.9h-.1Z" fill="#1a2e35"/><path d="m162.2,163.7c0-.1.1-.2.2-.2s.2.1.2.2v3.4l2.1-2.1c.1-.1.2-.1.2,0,.1.1.1.2,0,.2l-1.4,1.4,1.4,1.7c.1.1.1.2,0,.3h-.1q-.1,0-.1-.1l-1.4-1.7-.7.7v.8c0,.1-.1.2-.2.2s-.2-.1-.2-.2v-4.6Z" fill="#1a2e35"/><path d="m168.1,165.2c0-.1.1-.2.2-.2s.2.1.2.2v1.9c0,.6.5,1.1,1.1,1.1s1.1-.5,1.1-1.1v-2h.2v3.3c0,.9-.8,1.7-1.7,1.7-.3,0-.5-.1-.7-.2-.1-.1-.1-.2-.1-.2,0-.1.1-.1.2-.1.2.1.4.1.6.1.7,0,1.3-.6,1.3-1.3v-.2c-.3.3-.7.5-1.1.5-.8,0-1.4-.7-1.4-1.5v-2h.1Z" fill="#1a2e35"/><path d="m174,165.1c.9,0,1.7.8,1.7,1.8s-.8,1.8-1.7,1.8-1.7-.8-1.7-1.8.8-1.8,1.7-1.8Zm0,3.2c.7,0,1.3-.6,1.3-1.4s-.6-1.4-1.3-1.4-1.3.6-1.3,1.4c0,.7.6,1.4,1.3,1.4Z" fill="#1a2e35"/><path d="m176.9,165.2c0-.1.1-.2.2-.2s.2.1.2.2v1.9c0,.6.5,1.1,1.1,1.1s1.1-.5,1.1-1.1v-1.9c0-.1.1-.2.2-.2s.2.1.2.2v1.9c0,.8-.6,1.5-1.5,1.5-.8,0-1.4-.7-1.4-1.5v-1.9h-.1Z" fill="#1a2e35"/><path d="m181.4,163.7c0-.1.1-.2.2-.2s.2.1.2.2v3.7c0,.1-.1.2-.2.2s-.2-.1-.2-.2v-3.7Zm0,4.6c0-.1.1-.2.2-.2s.2.1.2.2v.2c0,.1-.1.2-.2.2s-.2-.1-.2-.2v-.2Z" fill="#1a2e35"/></g><g><polygon points="159.4 143.2 150.7 134.4 153.6 131.5 158.7 136.7 169.3 120 172.8 122.3 159.4 143.2" fill="#19c659"/><path d="m161.7,154.5c-12.6,0-22.8-10.2-22.8-22.8s10.2-22.8,22.8-22.8,22.8,10.2,22.8,22.8-10.2,22.8-22.8,22.8Zm0-42.6c-10.9,0-19.7,8.9-19.7,19.7s8.9,19.7,19.7,19.7,19.7-8.9,19.7-19.7c.1-10.8-8.8-19.7-19.7-19.7Z" fill="#19c659"/><g><g><rect x="126.3" y="131.1" width="6.8" height="1" fill="#19c659"/><rect x="132.2" y="116.1" width="1" height="6.8" transform="translate(-45.63 128.83) rotate(-45)" fill="#19c659"/><rect x="129.27" y="143.02" width="6.8" height="1" transform="translate(-62.63 135.85) rotate(-45)" fill="#19c659"/></g><g><rect x="190.4" y="131.1" width="6.8" height="1" fill="#19c659"/><rect x="187.38" y="118.97" width="6.8" height="1" transform="translate(-28.6 169.89) rotate(-45)" fill="#19c659"/><rect x="190.25" y="140.21" width="1" height="6.8" transform="translate(-45.68 176.94) rotate(-45)" fill="#19c659"/></g></g></g><g><rect x="144.3" y="189.5" width="37.1" height="12.5" fill="#007cff"/><g><path d="m153.2,198v-4.3c0-.2.2-.4.4-.4h.9c1.4,0,2.5,1.1,2.5,2.5s-1.1,2.6-2.5,2.6h-.9c-.3,0-.4-.2-.4-.4Zm.8-.5h.5c1,0,1.7-.8,1.7-1.7,0-1-.8-1.7-1.7-1.7h-.5v3.4Z" fill="#fff"/><path d="m162.3,193.9c.5.5.7,1.1.7,1.8s-.3,1.4-.7,1.8c-.4.5-1.1.8-1.7.8-.7,0-1.3-.3-1.8-.8s-.7-1.1-.7-1.8.3-1.4.7-1.8c.4-.5,1.1-.8,1.8-.8.6,0,1.3.3,1.7.8Zm-.1,1.8c0-.5-.2-1-.5-1.3s-.7-.5-1.2-.5-.9.2-1.2.5-.5.8-.5,1.3.2,1,.5,1.3.7.5,1.2.5c.4,0,.8-.2,1.2-.5.3-.3.5-.8.5-1.3Z" fill="#fff"/><path d="m165.1,198c0,.2-.2.4-.4.4s-.4-.2-.4-.4v-4.2h0c0-.1.1-.3.2-.3.2-.1.4-.1.6.1l2.4,3.3v-3c0-.2.2-.4.4-.4s.4.2.4.4v4.2c0,.2-.2.4-.4.4-.1,0-.2-.1-.3-.1h0l-2.3-3.2v2.8h-.2Z" fill="#fff"/><path d="m169.4,198v-4.3c0-.2.2-.4.4-.4h2.4c.2,0,.4.2.4.4s-.2.4-.4.4h-2v1.3h1.7c.2,0,.4.2.4.4s-.2.4-.4.4h-1.7v1.3h2c.2,0,.4.2.4.4s-.2.4-.4.4h-2.4c-.2.1-.4-.1-.4-.3Z" fill="#fff"/></g></g><g><path d="m121.4,179.1l.5-.9c.3.2.5.3.7.3.2.1.4.1.6.1.3,0,.5-.1.6-.2.1-.1.2-.3.2-.4,0-.2-.1-.3-.2-.4-.1-.1-.3-.2-.6-.2-.6-.1-1-.3-1.3-.6-.3-.2-.4-.6-.4-1s.2-.8.5-1.1.8-.5,1.4-.5c.3,0,.5,0,.8.1.2.1.5.1.7.3l-.4.9c-.2-.1-.4-.2-.6-.2s-.3-.1-.5-.1-.4,0-.5.1-.2.2-.2.4.1.3.2.4.3.2.6.2c.6.1,1,.3,1.2.6.3.3.4.6.4,1.1s-.2.9-.5,1.2-.9.5-1.5.5c-.3,0-.6,0-.9-.1-.3-.3-.6-.4-.8-.5Z"/><path d="m129.6,179.4h-1.1v-.6h0c-.1.2-.3.4-.5.5s-.4.2-.6.2c-.4,0-.8-.1-1-.4-.2-.3-.3-.7-.3-1.2v-2.3h1.1v2.2c0,.3.1.5.2.6.1.1.3.2.5.2s.4-.1.5-.2.2-.3.2-.6v-2.1h1.1v3.7h-.1Z"/><path d="m133.7,179.2c-.2.1-.4.2-.6.2-.2.1-.4.1-.6.1-.6,0-1.1-.2-1.5-.5s-.5-.8-.5-1.3c0-.6.2-1.1.6-1.5.4-.4.9-.5,1.5-.5.2,0,.4,0,.6.1.2,0,.4.1.5.2l-.4.8c-.1-.1-.2-.1-.3-.1h-.3c-.3,0-.5.1-.7.3s-.2.5-.2.8.1.6.3.8.4.3.7.3h.3c.1,0,.2-.1.4-.2l.2.5Z"/><path d="m137.5,179.2c-.2.1-.4.2-.6.2-.2.1-.4.1-.6.1-.6,0-1.1-.2-1.5-.5s-.5-.8-.5-1.3c0-.6.2-1.1.6-1.5.4-.4.9-.5,1.5-.5.2,0,.4,0,.6.1.2,0,.4.1.5.2l-.4.8c-.1-.1-.2-.1-.3-.1h-.3c-.3,0-.5.1-.7.3s-.2.5-.2.8.1.6.3.8.4.3.7.3h.3c.1,0,.2-.1.4-.2l.2.5Z"/><path d="m141.6,177.9h-2.4c0,.3.1.5.3.6s.4.2.7.2c.1,0,.3,0,.4-.1.2-.1.4-.2.5-.3l.5.7c-.3.2-.5.3-.8.4-.3.1-.6.1-.9.1-.6,0-1.1-.2-1.4-.5s-.5-.8-.5-1.4.2-1.1.5-1.5.8-.6,1.3-.6.9.2,1.2.5.5.8.5,1.4v.5h.1Zm-1-.7c0-.3-.1-.5-.2-.6-.1-.1-.3-.2-.5-.2s-.3.1-.5.2-.2.3-.2.6h1.4Z"/><path d="m142.1,179.1l.5-.8c.1.1.3.2.4.3.2.1.4.1.6.1.1,0,.3,0,.4-.1s.1-.1.1-.2,0-.2-.1-.2-.2-.1-.4-.1c-.5-.1-.8-.2-1-.4s-.3-.4-.3-.8.2-.7.5-.9.7-.3,1.1-.3c.2,0,.4,0,.7.1.2.1.4.1.6.3l-.4.7c-.1-.1-.3-.2-.4-.2s-.3-.1-.4-.1-.3,0-.4.1-.1.1-.1.2,0,.2.1.2.3.1.5.1c.4.1.7.2.9.4s.3.4.3.8-.1.7-.4.9c-.3.2-.7.4-1.1.4-.3,0-.5,0-.7-.1-.5-.2-.7-.3-1-.4Z"/><path d="m145.6,179.1l.5-.8c.1.1.3.2.4.3.2.1.4.1.6.1.1,0,.3,0,.4-.1s.1-.1.1-.2,0-.2-.1-.2-.2-.1-.4-.1c-.5-.1-.8-.2-1-.4s-.3-.4-.3-.8.2-.7.5-.9.7-.3,1.1-.3c.2,0,.4,0,.7.1.2.1.4.1.6.3l-.4.7c-.1-.1-.3-.2-.4-.2s-.3-.1-.4-.1-.3,0-.4.1-.1.1-.1.2,0,.2.1.2.3.1.5.1c.4.1.7.2.9.4s.3.4.3.8-.1.7-.4.9c-.3.2-.7.4-1.1.4-.3,0-.5,0-.7-.1-.5-.2-.8-.3-1-.4Z"/><path d="m151.8,174.8c-.1,0-.1-.1-.2-.1h-.2c-.2,0-.3,0-.4.1-.1.1-.1.2-.1.4v.4h.9v.8h-.9v2.9h-1.2v-2.9h-.6v-.8h.6v-.5c0-.4.1-.7.4-1,.3-.3.6-.4,1.1-.4h.4c.1,0,.2,0,.4.1l-.2,1Z"/><path d="m156,179.4h-1.1v-.6h0c-.1.2-.3.4-.5.5s-.4.2-.6.2c-.4,0-.8-.1-1-.4-.2-.3-.3-.7-.3-1.2v-2.3h1.1v2.2c0,.3.1.5.2.6.1.1.3.2.5.2s.4-.1.5-.2.2-.3.2-.6v-2.1h1.1v3.7h-.1Z"/><path d="m157.2,179.4v-5.5h1.2v5.5h-1.2Z"/><path d="m166.1,179.4h-1.3l-.7-1.3c-.1-.2-.2-.4-.3-.5s-.2-.2-.4-.2h-.3v1.9h-1.2v-5.2h1.9c.6,0,1.1.1,1.4.4s.5.6.5,1.1c0,.3-.1.6-.3.9-.2.3-.5.4-.8.6h0c.2,0,.3.2.4.3s.2.3.3.5l.8,1.5Zm-3.1-4.3v1.5h.5c.3,0,.5-.1.6-.2s.2-.3.2-.6c0-.2-.1-.4-.2-.5s-.3-.2-.6-.2h-.5Z"/><path d="m170.2,177.9h-2.5c0,.3.1.5.3.6s.4.2.7.2c.1,0,.3,0,.4-.1.2-.1.4-.2.5-.3l.5.7c-.3.2-.5.3-.8.4-.3.1-.6.1-.9.1-.6,0-1.1-.2-1.4-.5s-.5-.8-.5-1.4.2-1.1.5-1.5.8-.6,1.3-.6.9.2,1.2.5.5.8.5,1.4v.5h.2Zm-1.1-.7c0-.3-.1-.5-.2-.6-.1-.1-.3-.2-.5-.2s-.3.1-.5.2-.2.3-.2.6h1.4Z"/><path d="m174.7,179c0,.6-.2,1.1-.6,1.6-.4.4-1,.6-1.7.6-.3,0-.5,0-.7-.1s-.5-.1-.7-.2l.3-.8c.2.1.4.1.5.2.2,0,.4.1.6.1.4,0,.6-.1.8-.3s.3-.5.3-.8v-.3h0c-.1.2-.3.4-.5.5s-.4.2-.7.2c-.5,0-.9-.2-1.1-.5-.3-.3-.4-.8-.4-1.3,0-.6.2-1.1.5-1.5s.7-.6,1.2-.6c.2,0,.4,0,.6.1.2.1.3.2.4.4h0v-.4h1.2v3.1h0Zm-1.1-1.4v-.3c0-.2-.1-.4-.2-.6-.1-.2-.3-.2-.5-.2-.3,0-.5.1-.6.3s-.2.5-.2.8.1.6.2.7c.1.2.3.3.6.3.2,0,.4-.1.6-.3,0-.1.1-.4.1-.7Z"/><path d="m176.4,175.2c-.2,0-.4-.1-.5-.2-.1-.1-.2-.3-.2-.5s.1-.3.2-.5c.1-.1.3-.2.5-.2s.4.1.5.2c.1.1.2.3.2.5s-.1.3-.2.5c-.1.1-.3.2-.5.2Zm.6,4.2h-1.2v-3.7h1.2v3.7Z"/><path d="m177.8,179.1l.5-.8c.1.1.3.2.4.3.2.1.4.1.6.1.1,0,.3,0,.4-.1s.1-.1.1-.2,0-.2-.1-.2-.2-.1-.4-.1c-.5-.1-.8-.2-1-.4s-.3-.4-.3-.8.2-.7.5-.9.7-.3,1.1-.3c.2,0,.4,0,.7.1.2.1.4.1.6.3l-.4.7c-.1-.1-.3-.2-.4-.2s-.3-.1-.4-.1-.3,0-.4.1-.1.1-.1.2,0,.2.1.2.3.1.5.1c.4.1.7.2.9.4s.3.4.3.8-.1.7-.4.9c-.3.2-.7.4-1.1.4-.3,0-.5,0-.7-.1-.6-.2-.8-.3-1-.4Z"/><path d="m183.9,179.3c-.1,0-.2.1-.4.1h-.4c-.4,0-.7-.1-.9-.3s-.3-.5-.3-.9v-1.8h-.6v-.8h.6v-.9l1.1-.3v1.2h.8v.8h-.8v1.7c0,.1,0,.2.1.3s.1.1.3.1h.2q.1,0,.2-.1l.1.9Z"/><path d="m187.1,176.6h-.3c-.3,0-.5.1-.7.3-.1.2-.2.4-.2.8v1.8h-1.2v-3.7h1.2v.7h0c.1-.3.2-.4.4-.6.2-.1.4-.2.6-.2h.4l-.2.9Z"/><path d="m191,179.4h-1.1v-.5h0c-.1.2-.3.4-.5.5s-.4.2-.6.2c-.3,0-.6-.1-.8-.3s-.3-.5-.3-.8.1-.6.3-.8.6-.4,1.1-.4l.9-.1v-.1c0-.2-.1-.3-.2-.4s-.3-.1-.5-.1-.3,0-.5.1-.4.1-.6.2l-.4-.7c.3-.1.5-.3.8-.3.3-.1.5-.1.8-.1.6,0,1,.1,1.2.4s.4.7.4,1.2v2h0Zm-1.1-1.5v-.3l-.7.1c-.2,0-.3.1-.4.2s-.1.2-.1.3,0,.2.1.3.2.1.4.1.4-.1.5-.2c.1-.1.2-.3.2-.5Z"/><path d="m194.4,179.3c-.1,0-.2.1-.4.1h-.4c-.4,0-.7-.1-.9-.3s-.3-.5-.3-.9v-1.8h-.7v-.8h.6v-.9l1.1-.3v1.2h.8v.8h-.8v1.7c0,.1,0,.2.1.3s.1.1.3.1h.2q.1,0,.2-.1l.2.9Z"/><path d="m195.7,175.2c-.2,0-.4-.1-.5-.2-.1-.1-.2-.3-.2-.5s.1-.3.2-.5c.1-.1.3-.2.5-.2s.4.1.5.2c.1.1.2.3.2.5s-.1.3-.2.5c-.1.1-.3.2-.5.2Zm.6,4.2h-1.2v-3.7h1.2v3.7Z"/><path d="m199.2,179.5c-.6,0-1.1-.2-1.5-.5s-.5-.8-.5-1.4.2-1.1.6-1.4.9-.5,1.5-.5,1.1.2,1.5.5.5.8.5,1.4-.2,1.1-.5,1.5c-.4.2-.9.4-1.6.4Zm.1-.9c.3,0,.5-.1.6-.3s.2-.5.2-.8-.1-.6-.2-.8c-.1-.2-.3-.3-.6-.3s-.5.1-.6.3c-.2.2-.2.5-.2.8,0,.4.1.6.2.8s.3.3.6.3Z"/><path d="m205.8,179.4h-1.1v-2.1c0-.3-.1-.5-.2-.7s-.3-.2-.5-.2-.4.1-.5.2c-.1.2-.2.3-.2.6v2.1h-1.2v-3.7h1.2v.6h0c.1-.2.3-.4.5-.5s.4-.2.7-.2c.4,0,.7.1.9.4.2.3.3.6.3,1.2v2.3h.1Z"/></g></g><rect x="106.1" y="46.8" width="113.3" height="41.8" fill="#e0e0e0" isolation="isolate" opacity=".7"/><g><path d="m145.5,67.8c0,2.6-.7,5.1-1.9,7.3-.1.2-.2.3-.3.5-.9,1.5-2,2.8-3.4,3.9l-.1.1c-1.3,1-2.7,1.8-4.2,2.4h0c-1.6.6-3.3.9-5.1.9-.6,0-1.1,0-1.7-.1-.9-.1-1.9-.3-2.7-.6-2.2-.7-4.2-1.9-5.8-3.4h0c-2.9-2.7-4.7-6.6-4.7-10.9,0-8.3,6.7-15,15-15,8.2-.1,14.9,6.7,14.9,14.9Z" fill="#007cff"/><path d="m143.6,75.1c-.1.2-.2.3-.3.5-3.5-.1-7.1.4-10.2,1.2-.4.1-.8.2-1.1.3-.3.1-.5.1-.8.2-1,.3-1.8.5-2.6.8-.1,0-.2.1-.4.1-.1,0-.2.1-.3.1h0c-.9.3-1.7.6-2.3.8-.9.3-1.4.6-1.4.6,0,0-.3-.4-.8-1.2v-.1h0c-1.3-2.3-3.7-7.5-2.6-14.9,1.2-8.3,8.1-7.8,10.6-7.3.5.1.9.2.9.2,0,0,7.7,1.8,8,6.6,0,.6.1,1.2.2,1.9.7,3.9,2.5,8.7,3.1,10.2Z"/><path d="m135.7,81.9h0c-1.6.6-3.4.9-5.2.9-.6,0-1.1,0-1.7-.1-.9-.1-1.9-.3-2.7-.6l-.5-3.9-.2-1.9,10.3,1.5v4.1Z" fill="#007cff"/><path d="m139.9,79.5c-1.3,1-2.7,1.8-4.2,2.4h0c-1.6.6-3.3.9-5.1.9-.6,0-1.1,0-1.7-.1-.9-.1-1.9-.3-2.7-.6-2.2-.7-4.2-1.9-5.8-3.4h0c.5-.1,1-.1,1.4-.2h.1c.6-.1,1.1-.1,1.7-.2.7-.1,1.3-.1,2-.1h3c1.3,0,2.5,0,3.8.1.4,0,.9.1,1.3.1.2,0,.4,0,.7.1.3,0,.7.1,1,.2h.4c.4.1.8.1,1.2.2.2,0,.4.1.5.1s.2,0,.3.1c.1,0,.2,0,.4.1.2,0,.4.1.6.1.1,0,.3.1.4.1.2,0,.5.1.7.1Z" fill="#ffc800"/><path d="m133.1,82.1c-4.3-.7-5.5-2.6-5.5-2.6,1.8-1.6,1.6-4,1.2-5.6-.2-.9-.5-1.4-.5-1.4l5.1,1.2c-.2.8-.3,1.6-.3,2.2,0,.7,0,1.2.1,1.6.3,1.6,1.2,1.6,1.2,1.6.9,1.7-1.3,3-1.3,3Z" fill="#fff"/><path d="m133.2,75.8c0,.7,0,1.2.1,1.6-2-.4-3.5-2.1-4.5-3.5-.2-.9-.5-1.4-.5-1.4l5.1,1.2c-.1.8-.2,1.5-.2,2.1Z" isolation="isolate" opacity=".2"/><g><path d="m132.5,58.9c4.9.2,6.3,2.9,6.4,7.9.2,6.3-1.4,10.7-7.4,9.1-8.2-2.2-7.1-17.3,1-17Z" fill="#fff"/><path d="m132.9,62.5s-1.4-.2-2.1.6" fill="none" stroke="#000" stroke-linecap="round" stroke-linejoin="round" stroke-width=".72"/><path d="m136.5,62.5s.9-.3,1.9.5" fill="none" stroke="#000" stroke-linecap="round" stroke-linejoin="round" stroke-width=".72"/><path d="m126.8,66.9s2.4-3.9,2.2-7c0,0,9.8-3.5,9.8,6.3,0,0,1.3-8.6-7-9.2s-8.8,11.7-4.7,15.5c.1,0-1.8-3.2-.3-5.6Z" fill="#1a2e35"/><path d="m127.6,67.9c0-.8-.7-2.1-2.2-2s-2.4,3.2,1.3,4.1c.5.1.9-.4.9-2.1Z" fill="#fff"/><g><path d="m135.9,70.4c-.4.5-.9,1.5-.9,1.5-.1,0-.2-.1-.3-.1-1.4-.4-1.9-1.1-2-1.6-.1-.3,0-.6,0-.9.1-.3.2-.5.2-.5.6.7,1.8,1.1,2.5,1.4.3.2.5.2.5.2Z" fill="#fff" stroke="#000" stroke-miterlimit="10" stroke-width=".5"/><path d="m135.5,70.3l-.3.4c-1.3-.4-2.1-.8-2.4-1.4.1-.3.2-.5.2-.5.5.8,1.8,1.2,2.5,1.5Z" fill="#fff" stroke="#000" stroke-miterlimit="10" stroke-width=".25"/><path d="m134.7,71.9c-1.4-.4-1.9-1.1-2-1.6.5.2,1,.4,1.4.8.4.2.6.5.6.8Z"/></g><path d="m132.4,59.3s-2.3,7.9-7.3,7.6,3.2-10.1,3.2-10.1c0,0,8.3-2.7,12.2,1.8s-1.5,7.6-1.5,7.6c0,0,.5-6.2-6.6-6.9Z"/><path d="m132.3,58.7s.4,5.5-3.7,7.2" fill="none" stroke="#000" stroke-linecap="round" stroke-linejoin="round" stroke-width=".5"/><g><path d="m132.9,66.1c0,.4-.1.7-.4.7s-.5-.3-.5-.6c0-.4.1-.7.4-.7.3,0,.5.3.5.6Z"/><path d="m132.3,65.5l.8-.4s-.3.8-.8.4Z"/></g><g><path d="m137.6,65.5c0,.4-.1.7-.4.7s-.5-.3-.5-.6c0-.4.1-.7.4-.7.2,0,.5.2.5.6Z"/><path d="m137,64.9l.8-.4c-.1,0-.4.7-.8.4Z"/></g><path d="m135.8,66.4h0c.2.6.5,1.3.8,1.8,0,0-.3.5-.7.8h0c.9.1,1.3-.5,1.3-.5-.8-.8-1.4-2.1-1.4-2.1Z"/></g><g><path d="m140,79.5s-.1,0,0,0c-1.3,1.1-2.8,1.9-4.3,2.5h0v-.6h0l-.8-1.6.4-1,.4-.8.4.8,3.9.7Z" fill="#007cff"/><path d="m140,79.5s-.1,0,0,0c-1.3,1.1-2.8,1.9-4.3,2.5h0v-.6h0l-.8-1.6.4-1,.4-.8.4.8,3.9.7Z" fill="#fff" isolation="isolate" opacity=".6"/></g><g><path d="m130.6,79.5l-1.7,2.1-.1,1.1c-.9-.1-1.9-.3-2.7-.6-2.2-.7-4.2-1.9-5.8-3.4l1.4-.2h.1l3-.4.6-1.7,3,1.8,2.2,1.3h0Z" fill="#007cff"/><path d="m130.6,79.5l-1.7,2.1-.1,1.1c-.9-.1-1.9-.3-2.7-.6-2.2-.7-4.2-1.9-5.8-3.4l1.5-.2,3-.4h0l.6-1.7,3,1.8,2.2,1.3Z" fill="#fff" isolation="isolate" opacity=".6"/></g></g><g><path d="m146.5,80.5c0,2.2-1.8,4.1-4.1,4.1s-4.1-1.8-4.1-4.1,1.8-4.1,4.1-4.1,4.1,1.9,4.1,4.1Z" fill="#fff"/><path d="m145.9,80.5c0,1.9-1.6,3.5-3.5,3.5s-3.5-1.6-3.5-3.5,1.6-3.5,3.5-3.5c2,0,3.5,1.6,3.5,3.5Z" fill="#19c659"/><polyline points="140.7 80.5 142.3 81.9 144.3 79.2" fill="none" stroke="#fff" stroke-miterlimit="10"/></g><g><path d="m154.7,62.3h32.7c.4,0,.7-.3.7-.7s-.3-.7-.7-.7h-32.7c-.4,0-.7.3-.7.7s.3.7.7.7Z" fill="#1a2e35"/><path d="m194.9,64.9h-40.3c-.3,0-.5.2-.5.5s.2.5.5.5h40.3c.3,0,.5-.2.5-.5,0-.2-.3-.5-.5-.5Z" fill="#1a2e35"/><path d="m183,67.9h-28.5c-.3,0-.5.2-.5.5s.2.5.5.5h28.5c.3,0,.5-.2.5-.5s-.2-.5-.5-.5Z" fill="#1a2e35"/></g></g><g><path d="m26.8,221.9l17.9-1.8v-22.1h7.1v22.1l18,1.8c1.8.2,3.1,1.7,3.1,3.5v2.7H23.6v-2.7c0-1.8,1.4-3.3,3.2-3.5Z" fill="#1a2e35"/><path d="m26.8,221.9l17.9-1.8v-22.1h7.1v22.1l18,1.8c1.8.2,3.1,1.7,3.1,3.5v2.7H23.6v-2.7c0-1.8,1.4-3.3,3.2-3.5Z" fill="#fff" isolation="isolate" opacity=".1"/><circle cx="71.11" cy="231.4" r="4.6" transform="translate(-36.15 14.38) rotate(-9.22)" fill="#1a2e35"/><circle cx="25.55" cy="231.43" r="4.6" fill="#1a2e35"/><path d="m47.3,203.5h2c2.1,0,3.8-1.7,3.8-3.8v-18.7h-9.5v18.7c-.1,2.1,1.6,3.8,3.7,3.8Z" fill="#1a2e35"/><path d="m47.3,203.5h2c2.1,0,3.8-1.7,3.8-3.8v-18.7h-9.5v18.7c-.1,2.1,1.6,3.8,3.7,3.8Z" fill="#fff" isolation="isolate" opacity=".2"/><path d="m23.5,142.1s5.3,33.2,15.8,38.9h-10.7s-10.5-11.3-13.8-38.9h8.7Z" fill="#1a2e35"/><path d="m23.5,142.1s5.3,33.2,15.8,38.9h-10.7s-10.5-11.3-13.8-38.9h8.7Z" fill="#fff" isolation="isolate" opacity=".1"/><path d="m67.8,176.3H30c-2.8,0-5,2.2-5,5v2.3h47.8v-2.3c0-2.7-2.2-5-5-5Z" fill="#1a2e35"/><g><path d="m73.4,180H24.4c-.8,0-1.4.6-1.4,1.4v.8c0,.8.6,1.4,1.4,1.4h49c.8,0,1.4-.6,1.4-1.4v-.8c0-.8-.6-1.4-1.4-1.4Z" fill="#1a2e35"/><path d="m73.4,180H24.4c-.8,0-1.4.6-1.4,1.4v.8c0,.8.6,1.4,1.4,1.4h49c.8,0,1.4-.6,1.4-1.4v-.8c0-.8-.6-1.4-1.4-1.4Z" fill="#fff" isolation="isolate" opacity=".6"/></g><path d="m13.6,148.8h17.1c5,0,8.3-4,7.3-9l-1.3-6.6c-1-5-5.9-9-10.9-9H8.6c-5,0-8.3,4-7.3,9l1.3,6.6c1.1,5,6,9,11,9Z" fill="#1a2e35"/></g><g><polygon points="29.7 116.1 40.6 116.1 41.6 122.6 31.9 124.3 29.7 116.1" fill="#007cff"/><polygon points="102.1 206.4 98.1 207.9 95.3 202.6 92.8 197.8 97.1 195.2 99.7 201.1 102.1 206.4" fill="#fff" stroke="#000" stroke-miterlimit="10" stroke-width=".5"/><polygon points="99.7 201.1 95.3 202.6 92.8 197.8 97.1 195.2 99.7 201.1" isolation="isolate" opacity=".2"/><g><path d="m98.9,198.2l-5.3,2.9s-20.1-35.4-23.2-35.1c-3.1.3-32.4,19-41.4,12.1-8.9-6.9-.2-27.7-.2-27.7,0,0,17.5-6.6,19.5-2.6.4.8,1.9,3.7,2.4,5.1.4,1.3.7,2.3.7,2.3h0c.6-.2,18.8-7.7,27-3.7,8.2,4.1,20.5,46.7,20.5,46.7Z"/><path d="m98.9,198.2l-5.3,2.9s-20.1-35.4-23.2-35.1c-3.1.3-32.4,19-41.4,12.1-8.9-6.9-.2-27.7-.2-27.7,0,0,17.5-6.6,19.5-2.6.4.8,1.9,3.7,2.4,5.1.4,1.3.7,2.3.7,2.3h0c.6-.2,18.8-7.7,27-3.7,8.2,4.1,20.5,46.7,20.5,46.7Z" isolation="isolate" opacity=".3"/></g><polygon points="70 227 65.8 226.6 65.8 220.7 65.8 215.3 70.8 215 70.4 221.4 70 227" fill="#fff" stroke="#000" stroke-miterlimit="10" stroke-width=".5"/><polygon points="70.4 221.5 65.8 220.8 65.8 215.3 70.8 215.1 70.4 221.5" isolation="isolate" opacity=".2"/><polygon points="91 199.3 98.8 195.4 99.6 198.7 93.7 201.8 91 199.3"/><path d="m42.8,178.1s1.3-.1,21-3.8c0,0,.4,25.2,1.4,43.9l6.1.2s8.7-41.6,7.7-47.9c-1-6.3-8.5-7.1-8.5-7.1,0,0-13.1,10.1-27.7,14.7Z"/><polygon points="64.1 216.6 72.3 216.4 71.2 219.8 64.5 219.9 64.1 216.6"/><path d="m51.3,155.2l-10.7,3.8s5.6-4.2,10-6.2c.4,1.4.7,2.4.7,2.4Z" isolation="isolate" opacity=".3"/><g><g><polygon points="28.1 148.9 27.9 152.1 48 147.8 47.6 144.3 28.1 148.9" fill="#1a2e35"/><polygon points="28.1 148.9 27.9 152.1 48 147.8 47.6 144.3 28.1 148.9" isolation="isolate" opacity=".2"/></g><rect x="33.7" y="146.99" width="1" height="5.2" transform="translate(-26.71 8.75) rotate(-10.51)" fill="#007cff"/><rect x="38.9" y="146.09" width="4.5" height="3.4" transform="translate(-31.49 12.67) rotate(-12.7)" fill="#fff"/><rect x="45.9" y="143.99" width="1" height="5.2" transform="translate(-25.95 10.92) rotate(-10.5)" fill="#007cff"/><rect x="33.7" y="146.99" width="1" height="5.2" transform="translate(-26.71 8.75) rotate(-10.51)" fill="#fff" isolation="isolate" opacity=".3"/><rect x="45.9" y="143.99" width="1" height="5.2" transform="translate(-25.95 10.92) rotate(-10.5)" fill="#fff" isolation="isolate" opacity=".3"/></g><path d="m109.8,213.3c-.7-.2-1.3-.3-2-.2h0s-2.5-1.1-5.6-6.1l-2.6.3c-.9.1-1.6.8-1.8,1.7v.4c.1.6.3,1.2.5,1.8.5,1.9,2.4,5.9,2.4,5.9l.4-.2-1.3-3.8c-.4-1.3,1.1-.2,1.9,1s2,2.4,4.8,1.4c3.2-1.1,4.5-1.7,3.3-2.2Z"/><path d="m101.6,205.7s4.2,6.4,6.2,7.4c0,0-2.3,1.8-5.4-1.1-4-3.8-4.6-2.5-4.6-2.5,0,0-.1-1.5.1-2.3.3-1.5,3.7-1.5,3.7-1.5Z" fill="#fff" stroke="#000" stroke-miterlimit="10" stroke-width=".5"/><path d="m76.2,234.4c-.6-.3-1.2-.6-1.9-.7h0s-2.2-1.6-4-7.2l-2.6-.3c-.9-.1-1.8.4-2.2,1.2-.1.1-.1.2-.1.4v1.9c0,2,.9,6.3.9,6.3l.5-.1-.4-4c-.1-1.4,1.1.1,1.6,1.5s1.4,2.9,4.3,2.5c3.5-.4,4.9-.7,3.9-1.5Z"/><path d="m70,225.1s2.6,7.2,4.3,8.7c0,0-2.7,1.2-5-2.4-2.9-4.7-3.9-3.6-3.9-3.6,0,0,.3-1.5.6-2.2.8-1.3,4-.5,4-.5Z" fill="#fff" stroke="#000" stroke-miterlimit="10" stroke-width=".5"/><path d="m39.3,94.1s-9.8-4.8-13.1,5.5c-3.2,10.3.9,17.4.9,17.4,0,0,11.4-2.9,20.9-.9,0,0-2.1-8.8-1.6-13.8.6-5-7.1-8.2-7.1-8.2Z" fill="#1a2e35"/><g><path d="m47,117.4c2.2.1,11.2,12.2,11.2,12.2l3.4-4.4s5.2,10.1,2.6,14.8c-2.6,4.8-16.1-8.3-16.1-8.3l-1.1-14.3Z" fill="#007cff"/><path d="m47,117.4l.9,9.7.2,4.7s2.2,2.2,5,4.4c4.1,3.3,9.5,6.8,11,3.9,2.6-4.8-2.6-14.8-2.6-14.8l-3.4,4.4h0c-.5-.9-9-12.3-11.1-12.3Z" fill="#007cff"/></g><path d="m47.9,127l.2,4.7s2.2,2.2,5,4.4c.3-5.7-5-14-5-14l-.2,4.9Z" isolation="isolate" opacity=".2"/><path d="m58.2,129.6l-.5.9,1.4,5.5s-3.9-3.5-1.4-7l.5.6Z" isolation="isolate" opacity=".2"/><path d="m48.1,128.2v4.3c0,.6,0,1.2-.1,1.9v.3c0,.8-.1,1.7-.1,2.7-.1,2.1-.2,4.4-.4,7h0l-.3.1-19,4.5h-.1s.8-10.2-.5-15.9v-.1c0-.1,0-.2-.1-.3,0-.2-.1-.3-.1-.5s-.1-.3-.1-.5c-.2-.6-.3-1.3-.5-1.9-.1-.4-.3-.9-.4-1.4,0-.1,0-.2-.1-.2-.2-.6-.3-1.1-.5-1.7-.1-.2-.1-.3-.2-.5-.3-.9-.6-1.8-.9-2.7-.3-1.1-.7-2.2-1.1-3.4,2.2-.7,4.4-1.3,6.6-1.7.3-.1.6-.1,1-.2.3-.1.7-.1,1-.2,1.7-.3,3.4-.5,5.2-.6.7,0,1.4-.1,2.1-.1h1.3-.1,3.7c.3,0,.6,0,.9.1h1.6s.1.1.1.2c.1.2.3.6.4,1.3,0,.1,0,.3.1.4,0,.2.1.5.1.7s.1.4.1.6,0,.4.1.6c.3,1.9.3,4.1.3,7.2Z" fill="#ffc800"/><path d="m37.8,121c-4.5-.6-5.9-2.5-5.9-2.5,1.8-1.7,1.5-4.3,1-5.9-.3-.9-.6-1.5-.6-1.5l5.4,1c-.1.9-.2,1.7-.2,2.3,0,.7.1,1.3.2,1.7.4,1.6,1.3,1.7,1.3,1.7,1,1.8-1.2,3.2-1.2,3.2Z" fill="#fff"/><path d="m37.6,114.4c0,.7.1,1.3.2,1.7-2.2-.3-3.8-2-4.8-3.5-.3-.9-.6-1.5-.6-1.5l5.4,1c-.1.9-.2,1.7-.2,2.3Z" isolation="isolate" opacity=".2"/><g><path d="m39.1,96.9c5,1,6.1,4,5.4,9.3-.9,6.5-3.2,10.8-9.2,8.2-8.2-3.7-4.6-19.2,3.8-17.5Z" fill="#fff"/><path d="m38.9,100.7s-1.4-.5-2.3.3" fill="none" stroke="#1a2e35" stroke-linecap="round" stroke-linejoin="round" stroke-width=".72"/><path d="m42.6,101.2s1-.1,1.9.8" fill="none" stroke="#1a2e35" stroke-linecap="round" stroke-linejoin="round" stroke-width=".72"/><path d="m31.9,104.2s3.2-3.6,3.5-6.9c0,0,10.8-2,9.2,8.1,0,0,2.8-8.8-5.8-10.7-8.6-2-11.1,10.7-7.4,15.3-.1.1-1.5-3.5.5-5.8Z" fill="#1a2e35"/><path d="m32.5,105.4c.1-.8-.4-2.3-2-2.5-1.6-.1-3,2.9.7,4.4.6.3,1-.2,1.3-1.9Z" fill="#fff"/><g><path d="m40.7,109.4c-.5.5-1.2,1.5-1.2,1.5-.1,0-.2-.1-.3-.1-1.3-.7-1.7-1.4-1.8-2,0-.3.1-.7.2-.9.1-.3.3-.4.3-.4.5.8,1.7,1.5,2.4,1.8.3,0,.4.1.4.1Z" fill="#fff" stroke="#000" stroke-miterlimit="10" stroke-width=".5"/><path d="m40.3,109.1l-.4.4c-1.3-.6-2.1-1.2-2.3-1.8.1-.3.3-.4.3-.4.5.8,1.7,1.5,2.4,1.8Z" fill="#fff" stroke="#000" stroke-miterlimit="10" stroke-width=".25"/><path d="m39.3,110.7c-1.3-.7-1.7-1.4-1.8-2,.4.2,1,.6,1.3,1,.3.3.4.7.5,1Z"/></g><path d="m38.9,97.2s-3.7,7.8-8.9,6.7,5-10,5-10c0,0,9.1-1.5,12.4,3.9,3.3,5.4-2.8,7.6-2.8,7.6,0,0,1.6-6.3-5.7-8.2Z" fill="#1a2e35"/><path d="m39,96.6s-.5,5.8-5,6.9" fill="none" stroke="#1a2e35" stroke-linecap="round" stroke-linejoin="round" stroke-width=".5"/><g><path d="m38.3,104.4c0,.4-.2.7-.5.7s-.5-.3-.5-.7.2-.7.5-.7c.4,0,.6.3.5.7Z" fill="#1a2e35"/><path d="m37.8,103.7l.9-.3s-.5.7-.9.3Z" fill="#1a2e35"/></g><g><path d="m43.3,104.5c0,.4-.2.7-.5.7s-.5-.3-.5-.7.2-.7.5-.7.5.3.5.7Z" fill="#1a2e35"/><path d="m42.7,103.8l.9-.3s-.5.7-.9.3Z" fill="#1a2e35"/></g></g><g><path d="m50.3,125.4c0,.3.2.5.5.5h5.2c.3,0,.6-.2.6-.5l1.2-10.3c0-.3-.2-.6-.5-.6h-5.2c-.3,0-.6.3-.6.6l-1.2,10.3Z" fill="#1a2e35"/><path d="m52,115l-1.2,10.4c0,.3.1.5.4.5h4.4c.3,0,.8-.2.9-.5l1.2-10.4c0-.3-.5-.5-.8-.5h-4.4c-.3,0-.5.2-.5.5Z" fill="#fff" isolation="isolate" opacity=".5"/></g><path d="m61.2,126.2l-2.7-4.6s0-2.4-.2-3-2.9-1.9-3.4-1.7-.7,4.9-.2,5.6c.5.6,2.1,1.4,2.1,1.4l-.1.9,1.6,4.8,2.9-3.4Z" fill="#fff" stroke="#000" stroke-miterlimit="10" stroke-width=".5"/><polygon points="62.2 125.7 61.3 124.8 57.1 129.6 57.7 131.5 62.2 125.7" fill="#007cff"/><g><path d="m40.6,116.1l-.5,2,1.1,1.6,2.4,22.7,6.7-1c-.5-17.7-.7-17.8-3.2-24.2l-6-.4-.5-.7Z" fill="#007cff"/><path d="m40.6,116.1l-.5,2,1.1,1.6,2.4,22.7,6.7-1c-.5-17.7-.7-17.8-3.2-24.2l-6-.4-.5-.7Z" fill="#007cff"/></g><g><path d="m29.7,116.1l5.9,2.5-1.5,2.5,1.4,23.3-9,2.6s-6.5-17.1-3.2-27.3l5.9-1.7.5-1.9Z" fill="#007cff"/><path d="m35.4,140.6l.2,3.7-4,1.2-5,1.5s-2.9-7.6-3.8-15.6c-.5-4-.5-8.2.7-11.6l5.9-1.7.4-1.9,5.9,2.5-1.5,2.5.5,9.1.7,10.3Z" fill="#007cff"/><path d="m40.6,133.4s-2.2,3.3-5.3,7.3c-1.2,1.6-2.5,3.2-3.8,4.9l-5,1.5s-2.9-7.6-3.8-15.6c2.4-2.4,5.4-5.4,5.4-5.4,0,0,1.4,4.2.8,7.9l5.8-3.7,1.8-1.1,4.1,4.2Z" isolation="isolate" opacity=".2"/></g><path d="m35.8,130.7l6.2-4.8s.9-2.6,1.3-3c.4-.5,5.8-2.4,6.2-2.5.5-.1,0,4.4-.7,5.2s-5,2.3-5,2.3l-6.5,6.1-1.5-3.3Z" fill="#fff" stroke="#000" stroke-miterlimit="10" stroke-width=".5"/><g><path d="m23.4,119.7c-3.6,1.8-5.2,22.3,1.1,25.8s15.7-12.4,15.7-12.4l-3.6-3.9s-7.7,6.4-8.6,5.8c-.9-.6.1-6.8.1-6.8,0,0,1.1-1.9-1.2-4.9s-3.5-3.6-3.5-3.6Z" fill="#007cff"/><path d="m23.4,119.7c-3.6,1.8-5.2,22.3,1.1,25.8s15.7-12.4,15.7-12.4l-3.6-3.9s-7.7,6.4-8.6,5.8c-.9-.6.1-6.8.1-6.8,0,0,1.1-1.9-1.2-4.9s-3.5-3.6-3.5-3.6Z" fill="#007cff"/></g><polygon points="40.2 134.5 41.3 133.8 37.2 127.8 35.7 128.6 40.2 134.5" fill="#007cff"/></g><path d="m41.3,105.2h0c.1.6.4,1.5.8,2.2,0,0-.5.5-1.2.5.9.3,1.4-.3,1.4-.3-.6-1-1-2.4-1-2.4Z"/></svg>