<?xml version="1.0" encoding="UTF-8"?><svg id="Layer_1" xmlns="http://www.w3.org/2000/svg" viewBox="0 0 96.4 110.52"><circle cx="21.4" cy="108.92" r="1.6" fill="#e0e0e0" isolation="isolate" opacity=".2"/><path d="m89.9,36.52h.6c.4.1,1,.1,1.7.4.7.3,1.5.8,2.2,1.6.3.4.6.9.9,1.5.2.6.4,1.2.4,1.9.1,1.4-.4,2.9-1.4,4.1-.5.6-1.2,1.1-2,1.5s-1.7.5-2.6.5h-38.9.1c-.5.7-1.1,1.5-1.7,2.3l-.1.1-.1-.1c-.2-.3-.4-.6-.5-.9-.3-.5-.5-.9-.8-1.4h.1c-.6,0-1.1-.2-1.7-.3-.5-.2-1-.5-1.5-.8-.9-.7-1.6-1.6-1.9-2.6-.4-1-.4-2.1-.3-3.1.2-1,.7-2,1.3-2.7s1.5-1.3,2.3-1.6c.1,0,.2-.1.3-.1l.3-.1c.2-.1.4-.1.7-.1h42.5c0-.1.1-.1.1-.1h-42.7c-.2,0-.4.1-.7.1l-.3.1c-.1,0-.2.1-.3.1-.9.3-1.6.9-2.3,1.6-.6.7-1.1,1.6-1.3,2.6s-.1,2,.3,3c.4,1,1,1.9,1.9,2.5.4.3.9.6,1.4.8s1.1.3,1.6.3h0c.3.4.5.9.8,1.4.2.3.4.6.5.9h-.1c.6-.8,1.1-1.6,1.7-2.3h38.9c.9,0,1.8-.1,2.5-.5.8-.3,1.4-.8,2-1.4,1.1-1.2,1.5-2.7,1.4-4,0-.7-.2-1.3-.4-1.9-.2-.6-.5-1-.9-1.5-.7-.8-1.5-1.3-2.1-1.6-1.1-.3-1.9-.2-1.9-.2Z" fill="#1a2e35"/><g><g><g><polygon points="88.1 106.62 30.7 106.62 39 59.52 96.4 59.52 88.1 106.62" fill="#ffc800"/><polygon points="58.7 54.62 39.9 54.62 39 59.52 59.1 59.52 58.7 54.62" fill="#ffc800"/></g><g opacity=".1"><polygon points="88.1 106.62 30.7 106.62 39 59.52 96.4 59.52 88.1 106.62"/><polygon points="58.7 54.62 39.9 54.62 39 59.52 59.1 59.52 58.7 54.62"/></g></g><polygon points="88.1 106.62 30.5 106.62 22.4 61.22 79.9 61.22 88.1 106.62" fill="#ffc800"/></g><g><g><g><path d="m34.2,11.02s1.3,4.8,1.4,8.2v1.1s-2.8,2.4-5.2,2.5l-2-4.9,5.8-6.9Z" fill="#1a2e35"/><g><g><path d="m21.6,14.02c.5-2.3.8-5.1,2.7-6.6,1.4-1.1,3.1-1.5,4.9-1.4.9,0,1.9.5,2.7.9,1.1.6,1.5,1.9,2.1,3,1,2.3.9,5.3.2,6.2l-9.4,5c-1.9-1-3.1-1.4-3.4-3.9-.2-1.1-.1-2.2.2-3.2Z" fill="#1a2e35"/><g><path d="m24.4,9.22l5.9-1.8c1.9-.3,3.3,2,3.5,4,.2,2.1.4,4.8.2,6.4-.4,3.2-2.8,3.7-2.8,3.7v3c0,.6-.1.8-.5,1.3-.9,1.1-2.5,1.3-4.4.6-1.1-.4-1.9-1.2-1.9-2.3l-1-13.7c0-.6.4-1.1,1-1.2Z" fill="#c07560"/><path d="m33.2,14.32c0,.2-.2.4-.4.4s-.4-.1-.4-.4c0-.2.2-.4.4-.4.2.1.4.2.4.4Z" fill="#1a2e35"/><path d="m33.4,13.42c0,.1-.4-.2-.8-.1-.4,0-.8.3-.8.2,0,0,0-.1.2-.2.1-.1.4-.2.6-.2.3,0,.5.1.7.2.1-.1.1,0,.1.1Z" fill="#1a2e35"/><path d="m29.3,14.42c0,.2-.2.4-.4.4s-.4-.1-.4-.4c0-.2.2-.4.4-.4s.4.2.4.4Z" fill="#1a2e35"/><path d="m29,13.42c0,.1-.4-.2-.8-.1-.4,0-.8.3-.8.2,0,0,0-.1.2-.2.1-.1.4-.2.6-.2.3,0,.5.1.7.2.1,0,.2.1.1.1Z" fill="#1a2e35"/><path d="m30.8,16.32s.3-.1.7-.2c.1,0,.2,0,.2-.1s0-.2-.1-.3c-.1-.3-.2-.6-.4-.8-.5-1.2-.9-2.2-.8-2.2,0,0,.5.9,1,2.2.1.3.2.6.4.9,0,.1.1.3.1.4s-.1.2-.2.2h-.2c-.5-.1-.7-.1-.7-.1Z" fill="#1a2e35"/><path d="m31.2,21.52s-2.2.2-4.4-1c0,0,1.2,2.2,4.4,1.8v-.8Z" fill="#7c4236"/><path d="m29.3,17.32c.1-.2.3-.3.5-.3.3,0,.6.1.8.3.1.1.1.3,0,.4,0,.1,0,0-.1.1-.2.2-.4.3-.6.4-.2.1-.5,0-.7-.2,0-.3,0-.5.1-.7Z" fill="#7c4236"/><path d="m29.4,16.72c.1,0,.1.5.5.8s.9.2.9.3c0,0-.1.1-.3.1s-.5,0-.8-.2-.4-.5-.4-.7.1-.3.1-.3Z" fill="#1a2e35"/><path d="m29.2,11.82c0,.1-.5.1-1,.2s-.9.3-1,.2c0,0,0-.2.2-.3.2-.1.4-.3.7-.3.3-.1.6,0,.8,0,.2,0,.3.1.3.2Z" fill="#1a2e35"/><path d="m33.4,12.22c-.1.1-.4-.1-.8-.1-.4-.1-.8,0-.8-.2q0-.1.2-.2c.2-.1.4-.1.7-.1s.5.2.6.3c.1.1.1.2.1.3Z" fill="#1a2e35"/></g></g><path d="m26.2,22.82c-.1-.8.2-1.7.1-2.5-.1-.9-.7-1.7-.9-2.5-.4-1.4.1-2.9.3-4.3.8-.1,1.6-.6,2.1-1.2.6-.8,1-1.7,1.4-2.6,0,.9-.3,1.8-.9,2.5.4.1.7-.1,1-.3s.4-.6.6-.9c.3-.8.5-1.7.6-2.6.1,1.3,0,2.6-.4,3.8.2-.1.5,0,.7,0s.5,0,.7-.1c.1-.1.2-.3.2-.4.2-1.1.3-2.2.1-3.3.3.6.6,1.2.7,1.8.2.6.2,1.3,0,1.9.1.1.3.1.4,0,.1-.1.2-.3.2-.4.1-.5,0-1.1-.1-1.6.3.6.4,1.2.6,1.9.2.6.5,1.3,1,1.6.1-.9.1-1.6-.1-2.5-.1-.7-.4-1.3-.7-2s-.8-1.4-1.3-1.8c-.9-.8-1.3-.5-1.9-.2h-.1v-.1c-1.6-.4-3.2-.3-4.8.2-1.1.4-1.2,2.8-1.5,1.7-.2-.7-1.1-.1-1.1,0-1.3,2.4-2.8,6.3-2.8,12.4h0l5.9,1.5Z" fill="#1a2e35"/></g></g><path d="m22.3,4.32c.5-.6,1.3-1,2.1-1s1.6.4,2,1.1c.4.7.3,1.6-.2,2.2l-1,.8c-.7.4-1.5.5-2.3.2-.7-.3-1.3-1-1.3-1.8,0-.6.3-1.1.7-1.5Z" fill="#1a2e35"/><path d="m23,8.72c.2.1.7-.7,1.7-1.4s1.9-.9,1.9-1.1c0-.1-.3-.2-.7-.1-.4,0-1,.2-1.6.6-.6.4-1,.9-1.2,1.3-.1.4-.1.7-.1.7Z" fill="#375a64"/></g><g><path d="m36.9,35.12l-3.7-3.5-2.5,4c.1.4,3.3,7.3,4.7,8.7,1.6,1.6,3.8,1.5,4.7-.8.8-1.8,2-7.3,2-7.3l-5.2-1.1Z" fill="#ff735d"/><path d="m32.8,24.72c.9.3,2.9,1.4,3.5,2.2.3.4.6.8.8,1.2.5,1,1.4,8.6,1.4,8.6l-4,2.9-3.5-13.3.2-2.1,1.6.5Z" fill="#ff735d"/><path d="m34.1,46.62l-.2-2s.8-3.5,1-6.5c.4-4.8-.8-7.8-1-8.3-.1-.3-2.7-5.7-2.7-5.7,0,0-.5,1.7-2.7,1.3-3-.5-4.2-2.2-4.2-2.2l-3.9.9s-1.5,6.2-1.8,8.2c-.1,1.1,1.3,7.3,1.3,7.3l-2.3,3.5c-.1.2,1,4.9,1.2,5.1.2.2,4,1.1,4,1.2,0,.2,7.2,3.2,7.2,3,0-.1,3.4-4.2,3.4-4.2l.7-1.6Z" fill="#ff735d"/><path d="m35,30.52v.5c0,.4.1.9.2,1.5.1,1.3.2,3-.1,5-.3,1.9-.6,3.6-.9,4.9-.1.6-.2,1.1-.3,1.5,0,.2,0,.3-.1.4v.1-.1c0-.1.1-.2.1-.4.1-.4.2-.9.3-1.5.3-1.2.7-3,.9-4.9.3-1.9.2-3.7.1-5-.1-.6-.1-1.1-.2-1.5,0-.2-.1-.3-.1-.4l.1-.1Z" fill="#1a2e35"/></g><g><path d="m17,45.82c-.7,1.2-2.3,5.8-2.9,8.1-2.9,10.7-5.3,25.1-6.1,28-1.1,3.9-3.5,12.7-4.7,18.6l5.9,2.6s7.7-20.7,9.8-25.8c2.2-5.3,5.8-15.2,5.8-15.2l2.1,39.4,5.6.2s1.9-11.1,2.7-17.7c.8-6.6.8-20.3.9-23.8,0-4.2-1.8-13.7-1.8-13.7,0,0-2.2,1.6-6.3,1-3.3-.5-10.1-3-10.1-3l-.9,1.3Z" fill="#1a2e35"/><path d="m28.4,48.82v.5c0,.3-.1.7-.1,1.2-.1,1-.4,2.5-.6,4-.3,1.6-.6,3-.8,4-.1.5-.2.9-.3,1.2-.1.3-.1.4-.1.4,0,0,0-.2.1-.4.1-.3.1-.7.2-1.2.2-1,.5-2.4.8-4s.5-3,.7-4c.1-.5.1-.9.2-1.2-.2-.3-.1-.5-.1-.5Z" fill="#375a64"/><path d="m26.4,48.72s0-.1.1-.1.3-.1.4,0c.1,0,.2.1.3.1.1.1.2.2.2.3,0,.3-.1.6-.3.7-.2.2-.6.2-.8,0-.1-.1-.2-.2-.2-.3v-.3c0-.2.1-.3.2-.4,0,0,.1,0,.1,0l-.1.1c-.1.1-.1.2-.1.4s0,.4.2.5.4.1.6,0,.3-.4.3-.6c0-.1-.1-.2-.1-.2-.1-.1-.2-.1-.2-.1-.2,0-.3-.1-.4,0l-.2-.1Z" fill="#375a64"/><path d="m30,58.82s-.3.2-.7.5-1,.7-1.6,1.1c-.6.5-1.2.9-1.6,1.2-.4.3-.6.5-.6.5,0,0,.2-.2.6-.6.4-.3.9-.8,1.5-1.3s1.2-.8,1.7-1.1c.4-.2.7-.4.7-.3Z" fill="#375a64"/><path d="m15.8,80.12h-.2c-.2,0-.4,0-.7-.1-.6-.1-1.3-.2-2.1-.5-.8-.3-1.5-.6-2-.8-.2-.1-.4-.2-.6-.3-.1-.1-.2-.1-.2-.1,0,0,.3.1.8.4.5.2,1.2.5,2,.8.8.3,1.6.4,2.1.5.5,0,.9,0,.9.1Z" fill="#375a64"/><path d="m14.8,79.52s-.2,0-.6-.2c-.3-.1-.8-.3-1.3-.5s-1-.5-1.3-.6c-.3-.2-.5-.3-.5-.3,0,0,.8.4,1.8.8,1.1.4,1.9.7,1.9.8Z" fill="#375a64"/></g><g><path d="m32.4,97.62v5.8s6,1.9,6.1,3l-11.3.5-.4-9.1,5.6-.2Z" fill="#1a2e35"/><path d="m28.9,103.12c-.2.1-.4.3-.3.5.1.2.3.4.5.3s.4-.4.3-.6c0-.2-.3-.3-.5-.2" fill="#e1e1e1"/><path d="m27.2,106.92v-.9l10.9-.1s.5.2.5.6l-11.4.4Z" fill="#375a64"/><path d="m32.6,103.42c0,.1-.3.1-.5.3-.3.2-.4.4-.5.4s0-.3.3-.6c.4-.2.7-.2.7-.1Z" fill="#fff"/><path d="m33.8,103.82c0,.1-.2.2-.4.4-.2.2-.2.5-.3.5s-.1-.3.1-.6c.3-.3.6-.4.6-.3Z" fill="#fff"/><path d="m34.6,105.22s-.1-.3,0-.6c.1-.3.4-.4.4-.4,0,0-.1.2-.2.5-.2.3-.2.5-.2.5Z" fill="#fff"/><path d="m32.5,102.02c0,.1-.3,0-.6,0s-.6.1-.6.1c0,0,.2-.3.6-.3.3,0,.6.2.6.2Z" fill="#fff"/></g><g><path d="m5.6,97.02l-2.2,6.7L.1,108.52c-.2.3-.1.8.2,1H.3c.2.1.4.1.7,0,1.4-.6,6.4-2.9,6.5-3.4.2-.6,2.8-7,2.8-7l-4.7-2.1Z" fill="#1a2e35"/><path d="m.4,109.62l7.3-3.9-.1.3c-.1.2-.3.5-.5.6-.6.4-2.3,1.3-6,3-.2.1-.4.1-.7,0H.4Z" fill="#375a64"/><g opacity=".6"><path d="m7.1,103.12c-.2.1-.4.3-.3.5,0,.2.3.4.5.3s.4-.3.3-.5c0-.3-.3-.4-.5-.3" fill="#fff"/></g><path d="m3,107.22s-.1-.4-.4-.7c-.3-.3-.7-.4-.7-.4h.3c.2,0,.4.1.6.3.2.2.3.4.3.6-.1.1-.1.2-.1.2Z" fill="#fff"/><path d="m2.2,107.92s-.2-.3-.5-.5-.6-.3-.6-.3c0,0,.4-.1.7.2.4.2.4.6.4.6Z" fill="#fff"/><path d="m4.3,106.32s-.3-.4-.7-.8c-.4-.4-.9-.5-.9-.6,0,0,.5,0,1,.5.5.4.6.9.6.9Z" fill="#fff"/><path d="m5.1,104.32s-.3-.2-.8-.4c-.5-.2-.9-.2-.9-.2,0,0,.4-.1,1,.1.5.2.7.5.7.5Z" fill="#fff"/><path d="m5.8,102.42s-.3-.3-.8-.5-1,0-1-.1c0,0,.1-.1.3-.1h.7c.3.1.5.2.6.4.2.2.2.3.2.3Z" fill="#fff"/><path d="m5.1,101.52s0-.1.1-.3c.1-.2.2-.4.4-.6.1-.1.2-.2.5-.3.1,0,.2.1.3.2v.3c-.2.4-.7.7-1.2.6s-.8-.5-.9-1c0-.1,0-.2.1-.3.1-.1.2-.1.3,0,.2.1.3.3.4.4.2.3.2.5.3.7v.3s-.1-.4-.4-.9c-.1-.1-.2-.3-.3-.3h-.2s-.1.1,0,.2c.1.4.4.7.8.8.4.1.9-.2,1-.5v-.2c0-.1-.1-.1-.2-.1s-.3.1-.4.2c-.5.5-.6.9-.6.8Z" fill="#fff"/></g><g><polygon points="41.2 30.52 38.5 33.32 38.4 35.72 41.6 36.42 41.7 36.42 41.9 34.92 43.7 32.42 41.2 30.52" fill="#c07560"/><g><path d="m40,14.02c.6-3.3,2.3-6.4,4.9-8.8,3.2-3,7.4-4.6,11.8-4.4,4.4.1,8.5,2,11.5,5.2,6.2,6.6,5.9,17.1-.8,23.3h0c-3.2,3-7.4,4.6-11.8,4.4-4.4-.1-8.5-2-11.5-5.2-3.7-4.1-5.1-9.5-4.1-14.5Zm31.2,6.2c.9-4.7-.3-9.8-3.8-13.5-2.8-3-6.6-4.7-10.7-4.9-4.1-.1-8,1.3-11,4.1s-4.7,6.6-4.9,10.7c-.1,4.1,1.3,8,4.1,11,2.8,3,6.6,4.7,10.7,4.9,4.1.1,8-1.3,11-4.1,2.5-2.3,4-5.2,4.6-8.2Z" fill="#375a64"/><path d="m40,14.02c.6-3.3,2.3-6.4,4.9-8.8,3.2-3,7.4-4.6,11.8-4.4,4.4.1,8.5,2,11.5,5.2,6.2,6.6,5.9,17.1-.8,23.3h0c-3.2,3-7.4,4.6-11.8,4.4-4.4-.1-8.5-2-11.5-5.2-3.7-4.1-5.1-9.5-4.1-14.5Zm31.2,6.2c.9-4.7-.3-9.8-3.8-13.5-2.8-3-6.6-4.7-10.7-4.9-4.1-.1-8,1.3-11,4.1s-4.7,6.6-4.9,10.7c-.1,4.1,1.3,8,4.1,11,2.8,3,6.6,4.7,10.7,4.9,4.1.1,8-1.3,11-4.1,2.5-2.3,4-5.2,4.6-8.2Z" fill="#1a2e35"/><path d="m39.6,13.22c.6-3.3,2.3-6.4,4.9-8.8C47.7,1.42,51.9-.18,56.3.02c4.4.1,8.5,2,11.5,5.2,6.2,6.6,5.9,17.1-.8,23.3h0c-3.2,3-7.4,4.6-11.8,4.4-4.4-.1-8.5-2-11.5-5.2-3.7-4.1-5.1-9.5-4.1-14.5Zm31.2,6.2c.9-4.7-.3-9.8-3.8-13.5-2.8-3-6.7-4.7-10.8-4.9-4.1-.1-8,1.3-11,4.1s-4.7,6.6-4.9,10.7c-.1,4.1,1.3,8,4.1,11,2.8,3,6.6,4.7,10.7,4.9,4.1.1,8-1.3,11-4.1,2.6-2.3,4.1-5.1,4.7-8.2Z" fill="#375a64"/></g><path d="m25.4,48.42l-.5-.5c-.5-.5-.2-1.5.3-2l18.4-19,2.5,2.4-18.4,19c-.6.6-1.7.7-2.3.1Z" fill="#375a64"/><g><path d="m42.4,29.22c.1-.1.3-.1.4-.1s.2.1.3.2c.6.6.9,1.5.9,2.3,0,.4-.1.8-.4,1l-.4-.2c-.1-.1-.5-.4-.5-.6-.2-.8.1-.7-.4-2.1,0-.1-.1-.3.1-.5Z" fill="#c07560"/><path d="m42.5,30.32c-.1-.2-.2-.4-.4-.5-.1-.1-.3-.2-.5-.1-.3.1-.4.4-.4.8,0,.3.2.7.3,1,.3.7.6,1.3.9,2l.2-.1c.1.1.3.1.4-.1.1-.1.1-.3.1-.5,0-1-.2-1.8-.6-2.5Z" fill="#c07560"/><path d="m42,32.32c-.2-.5-.6-.8-.9-1.2-.1-.1-.3-.3-.4-.3-.2-.1-.4,0-.5.1s0,.3.1.5c.5.9,1,1.9,1.6,2.7l.5-.5c.3-.5-.2-.9-.4-1.3Z" fill="#c07560"/></g><g><g><g><path d="m27.4,38.42l.5-.1,2.6-2.2,1.4-1.2c.1-.1.3-.2.4-.2l1.4-.2s.2.6-.4,1l-.8.4-.7.8.1.2s4.6.7,4.9,1.1c.3.4,0,.7-.1.7-.1.1-.4,0-.4,0,0,0,.2.5-.5,1,0,0,.5.7-.4,1,0,0-.3.5-.8.7s-3.3.5-3.6.5h-3.8l.2-3.5Z" fill="#c07560"/><path d="m36.5,38.62s-.6.1-1.3.1c-.7-.1-1.3-.2-1.3-.2h1.3c.7.1,1.3.1,1.3.1Z" fill="#7c4236"/><path d="m35.9,39.62s-.1,0-.3.1c-.2,0-.5.1-.8.1h-1.1s.1-.1.3-.1h1.6c.2-.1.3-.1.3-.1Z" fill="#7c4236"/><path d="m35.6,40.62s-.6.1-1.3.2c-.3,0-.7,0-.9.1s-.3.2-.3.2c0,0,.1-.2.3-.3s.5-.2.9-.2h1.3Z" fill="#7c4236"/></g><g><path d="m20.4,24.02s-2,.3-3.5,3.3c-.8,1.6-4.6,11.3-4.8,12.2-1,3.6.9,6,2.7,6.2,2,.2,12.4-3.2,12.4-3.2l.2-4.4-9.4,1.4,4.5-8.8s.2-5.9-2.1-6.7Z" fill="#ff735d"/><path d="m14.8,41.92s0-.2.3-.6c.2-.3.6-.8,1.1-1.1.5-.4,1-.6,1.4-.6.4-.1.6-.1.6,0,0,0-.2,0-.6.1s-.9.3-1.4.7c-.5.3-.8.7-1.1,1.1-.2.2-.3.4-.3.4Z" fill="#1a2e35"/></g></g><path d="m17.4,45.22h.2c.1,0,.3-.1.5-.1.5-.1,1.2-.3,2-.6,1.7-.6,4.2-1.4,7-2.3h0c.1-1.3.1-2.7.2-4.1v-.1h-.1c-.7.1-1.5.2-2.3.4-2.6.4-5,.8-7.1,1.2l.1.1c1.3-2.5,2.4-4.6,3.1-6.1.4-.7.7-1.3.9-1.7.1-.2.2-.4.2-.5.1-.1.1-.2.1-.2,0,0,0,.1-.1.2-.1.1-.1.3-.2.5-.2.4-.5,1-.9,1.7-.8,1.5-1.9,3.6-3.2,6.1l-.1.1h.1c2.1-.3,4.6-.7,7.1-1.1.8-.1,1.6-.3,2.3-.4l.1-.4c-.1,1.4-.1,2.8-.2,4.1v-.1c-2.9,1-5.3,1.8-7,2.4-.9.3-1.5.5-2,.7-.2.1-.4.1-.5.2q-.1,0-.2,0h0Z" fill="#1a2e35"/><path d="m20,24.22s.3.2.7.5c.4.3.9.9,1.3,1.6s.6,1.4.6,1.9c.1.5.1.8.1.8v-.8c0-.3-.1-.6-.2-.9s-.2-.7-.4-1.1c-.2-.4-.4-.7-.6-.9-.2-.3-.5-.5-.7-.6-.2-.2-.4-.3-.5-.3-.2-.2-.3-.2-.3-.2Z" fill="#1a2e35"/></g></g></g><g><path d="m63.8,74.92l-17.2,18" fill="none" stroke="#fff" stroke-linecap="round" stroke-width="5"/><path d="m46.2,75.32l18,17.2" fill="none" stroke="#fff" stroke-linecap="round" stroke-width="5"/></g><g><path d="m49.1,44.02h-1l-.5-1c-.1-.2-.2-.3-.3-.4-.1-.1-.2-.1-.3-.1h-.2v1.5h-.9v-4h1.4c.5,0,.9.1,1.1.3.2.2.4.5.4.9,0,.3-.1.5-.2.7-.2.2-.4.3-.6.4h0c.1,0,.2.1.3.2.1.1.2.2.3.4l.5,1.1Zm-2.3-3.3v1.2h.4c.2,0,.4-.1.5-.2s.2-.3.2-.4c0-.2-.1-.3-.2-.4s-.3-.1-.5-.1h-.4v-.1Z" fill="#df2900"/><path d="m52.1,42.82h-1.9c0,.2.1.4.2.5.1.1.3.2.5.2.1,0,.2,0,.3-.1.1,0,.3-.1.4-.2l.4.5c-.2.2-.4.3-.6.3s-.4.1-.7.1c-.5,0-.8-.1-1.1-.4-.3-.3-.4-.6-.4-1.1s.1-.8.4-1.1c.3-.3.6-.4,1-.4s.7.1,1,.4c.2.2.4.6.4,1v.3h.1Zm-.8-.5c0-.2,0-.4-.1-.5s-.2-.1-.4-.1c-.1,0-.3.1-.4.2-.1,0-.1.2-.2.4h1.1Z" fill="#df2900"/><path d="m52.4,43.82l.4-.6c.1.1.2.1.3.2.1.1.3.1.4.1s.2,0,.3-.1c.1,0,.1-.1.1-.2s0-.1-.1-.2c-.1,0-.2-.1-.3-.1-.4-.1-.6-.2-.8-.3s-.2-.3-.2-.6.1-.5.3-.7.5-.3.9-.3c.2,0,.3,0,.5.1s.3.1.4.2l-.3.6c-.1-.1-.2-.1-.3-.2-.1,0-.2-.1-.3-.1s-.2,0-.3.1-.1.2-.1.2q0,.1.1.2c.1.1.2.1.4.1.3.1.6.2.7.3.1.1.2.3.2.6s-.1.5-.3.7-.5.3-.9.3c-.2,0-.4,0-.6-.1-.2,0-.4-.1-.5-.2Z" fill="#df2900"/><path d="m57.9,44.02h-.9v-.4h0c-.1.2-.2.3-.4.4-.1.1-.3.1-.5.1-.3,0-.6-.1-.8-.3s-.2-.5-.2-.9v-1.7h.9v1.7c0,.2,0,.4.1.5s.2.2.4.2.3-.1.4-.2.1-.3.1-.5v-1.6h.9v2.7Z" fill="#df2900"/><path d="m58.7,44.02v-4.3h.9v4.3h-.9Z" fill="#df2900"/><path d="m62.1,44.02c-.1,0-.2.1-.3.1h-.3c-.3,0-.6-.1-.7-.2-.2-.2-.2-.4-.2-.7v-1.4h-.5v-.7h.5v-.7l.9-.3v.9h.6v.7h-.6v1.3c0,.1,0,.2.1.2s.1.1.2.1h.2l.1.7Z" fill="#df2900"/><path d="m67.8,44.02h-.9l-1.6-2.5c0-.1-.1-.1-.1-.2s-.1-.1-.1-.1h0v2.9h-.9v-4h1l1.6,2.5c0,.1.1.1.1.2s.1.1.1.2h0v-2.7h.9v3.7h-.1Z" fill="#df2900"/><path d="m70,44.12c-.5,0-.9-.1-1.1-.4-.3-.3-.4-.6-.4-1.1s.1-.8.4-1.1.7-.4,1.2-.4.9.1,1.1.4.4.6.4,1.1-.1.9-.4,1.1c-.3.2-.7.4-1.2.4Zm.1-.7c.2,0,.4-.1.5-.2.1-.1.2-.4.2-.6,0-.3-.1-.5-.2-.6s-.3-.2-.5-.2-.4.1-.5.2-.2.3-.2.6.1.5.2.6.2.2.5.2Z" fill="#df2900"/><path d="m74,44.02c-.1,0-.2.1-.3.1h-.3c-.3,0-.6-.1-.7-.2-.2-.2-.2-.4-.2-.7v-1.4h-.5v-.7h.5v-.7l.9-.3v.9h.6v.7h-.7v1.3c0,.1,0,.2.1.2s.1.1.2.1h.2l.2.7Z" fill="#df2900"/><path d="m78.4,40.72h-1.4v1h1.3v.7h-1.3v1.6h-.9v-4h2.3v.7Z" fill="#df2900"/><path d="m80.4,44.12c-.5,0-.9-.1-1.1-.4-.3-.3-.4-.6-.4-1.1s.1-.8.4-1.1.7-.4,1.2-.4.9.1,1.1.4.4.6.4,1.1-.1.9-.4,1.1c-.4.2-.7.4-1.2.4Zm0-.7c.2,0,.4-.1.5-.2.1-.1.2-.4.2-.6,0-.3-.1-.5-.2-.6s-.3-.2-.5-.2-.4.1-.5.2-.2.3-.2.6.1.5.2.6.3.2.5.2Z" fill="#df2900"/><path d="m85.3,44.02h-.9v-.4h0c-.1.2-.2.3-.4.4-.1.1-.3.1-.5.1-.3,0-.6-.1-.8-.3-.2-.2-.2-.5-.2-.9v-1.7h.9v1.7c0,.2,0,.4.1.5s.2.2.4.2.3-.1.4-.2.1-.3.1-.5v-1.6h.9v2.7Z" fill="#df2900"/><path d="m88.8,44.02h-.9v-1.6c0-.2,0-.4-.1-.5s-.2-.2-.4-.2-.3.1-.4.2c-.1.1-.1.3-.1.4v1.6h-.9v-2.9h.9v.5h0c.1-.2.2-.3.4-.4s.3-.1.5-.1c.3,0,.6.1.7.3.2.2.2.5.2.9v1.8h.1Z" fill="#df2900"/><path d="m91.4,43.62c-.1.2-.2.3-.4.3-.1.1-.3.1-.5.1-.4,0-.6-.1-.9-.4-.2-.3-.3-.6-.3-1.1s.1-.9.4-1.1c.2-.3.6-.4.9-.4.2,0,.3,0,.5.1.1.1.2.2.3.3h0v-1.7h.9v4.3h-.9v-.4h0Zm-1.2-1c0,.3.1.4.2.6s.3.2.4.2c.2,0,.3-.1.4-.2.1-.1.2-.3.2-.6v-.2c0-.2-.1-.3-.2-.5-.1-.1-.2-.2-.4-.2s-.4.1-.5.2c0,.2-.1.4-.1.7Z" fill="#df2900"/></g></svg>