<svg width="25" height="25" viewBox="0 0 25 25" fill="none" xmlns="http://www.w3.org/2000/svg">
<circle cx="12.5" cy="12.5" r="12.5" fill="#016EFD"/>
<path d="M18.462 6.24883C15.958 5.19032 12.507 5.12451 12.507 5.12451C12.507 5.12451 9.0459 5.19032 6.54265 6.24883C6.54265 6.24883 5.90922 7.89612 5 8.56861L6.25128 16.2674C6.25128 16.2674 7.46651 20.3047 12.507 21.9936C17.5212 20.3047 18.7557 16.2674 18.7557 16.2674L20 8.56861C19.0903 7.89612 18.462 6.24883 18.462 6.24883Z" fill="white"/>
<path d="M16.923 16.2273C16.923 16.3836 16.7886 16.632 16.3677 16.632C16.1796 16.632 15.9826 16.6136 15.3292 16.6043C14.8279 16.6043 14.6307 16.632 14.4425 16.632C14.0128 16.632 13.8872 16.3836 13.8872 16.2273C13.8872 15.9146 14.4335 15.8137 14.4067 15.5007L14.29 13.3211C14.2633 13.0174 14.093 13.0358 13.9947 13.229L12.3381 16.4759C12.2218 16.6964 11.9977 16.715 11.8726 16.4759L10.1085 13.22C10.0281 13.0544 9.85785 13.0269 9.84902 13.2106L9.78623 15.5009C9.76833 15.8139 10.3055 15.9148 10.3055 16.2276C10.3055 16.3838 10.1711 16.6231 9.75042 16.6231C9.64276 16.6231 9.50859 16.6138 9.25768 16.6138C9.06979 16.6138 8.81911 16.6322 8.62216 16.6322C8.20127 16.6322 8.07593 16.3838 8.07593 16.2276C8.07593 15.9148 8.67587 15.8139 8.68471 15.5009L8.80098 11.6013C8.81911 11.2883 8.18336 11.1876 8.18336 10.8746C8.18336 10.7183 8.3087 10.47 8.73842 10.47C8.92678 10.47 9.36534 10.5158 9.71461 10.5158C10.0816 10.5158 10.2787 10.47 10.4576 10.47C10.6994 10.47 10.798 10.5618 10.9322 10.8288L12.3111 13.5785C12.4004 13.7441 12.499 13.7441 12.5795 13.5785L13.9763 10.8288C14.0928 10.5988 14.2093 10.47 14.433 10.47C14.6211 10.47 15.0597 10.5158 15.409 10.5158C15.7761 10.5158 16.0089 10.47 16.188 10.47C16.6179 10.47 16.7521 10.7183 16.7521 10.8746C16.7521 11.1876 16.1254 11.2883 16.1345 11.6013L16.3045 15.5009C16.3231 15.8137 16.923 15.9146 16.923 16.2273Z" fill="#016EFD"/>
</svg>
