<svg width="19" height="18" viewBox="0 0 19 18" fill="none" xmlns="http://www.w3.org/2000/svg">
<path fill-rule="evenodd" clip-rule="evenodd" d="M3.91681 3.92139H7.62075V7.60108H3.91681V3.92139ZM5.23661 2.1738e-06H3.38684C2.94489 -0.000501815 2.50725 0.0866351 2.09934 0.25635C1.68826 0.426249 1.31466 0.675105 0.999759 0.988772C0.685491 1.30305 0.436099 1.67582 0.265725 2.08594C0.091657 2.49512 0.00131374 2.93488 4.19212e-06 3.3794V5.66016H1.50184V3.3794C1.50338 3.13287 1.55325 2.88904 1.64865 2.66162C1.74227 2.43312 1.88051 2.22548 2.0553 2.05078C2.40864 1.69883 2.88757 1.50125 3.38684 1.50147H5.23661V2.1738e-06ZM14.6132 2.1738e-06H13.4049V1.49854H14.6132C14.8602 1.50023 15.1046 1.54998 15.3325 1.64502C15.5607 1.73994 15.7685 1.87769 15.9447 2.05078L15.9961 2.10352C16.1478 2.26769 16.2695 2.45706 16.3558 2.66309C16.4518 2.88978 16.5017 3.13328 16.5026 3.3794V5.66016H18.0044V3.3794C18.0048 2.50916 17.6669 1.6727 17.0619 1.0459L17.0076 0.991701C16.6926 0.678124 16.319 0.429279 15.908 0.25928C15.498 0.087795 15.0578 -0.00035073 14.6132 2.1738e-06ZM18 14.6206V12.0879H16.4982V14.6206C16.4973 14.8667 16.4474 15.1102 16.3514 15.3369C16.2552 15.5651 16.1156 15.7726 15.9403 15.9478C15.766 16.1228 15.5588 16.2619 15.3306 16.3569C15.1023 16.4519 14.8575 16.501 14.6102 16.5015H13.4049V18H14.6132C15.0577 17.9997 15.4978 17.9118 15.9082 17.7413C16.3185 17.5709 16.6912 17.3213 17.0047 17.0068C17.3184 16.6921 17.5677 16.3195 17.7387 15.9097C17.9083 15.501 17.9956 15.063 17.9956 14.6206H18ZM3.38684 18H5.23661V16.5015H3.38684C3.13928 16.5012 2.89421 16.4522 2.6657 16.3572C2.43719 16.2622 2.22975 16.123 2.0553 15.9478L2.01713 15.9126C1.85254 15.7395 1.7225 15.5366 1.63397 15.3149C1.54536 15.0941 1.50001 14.8584 1.50037 14.6206V12.0879H4.19212e-06V14.6206C-0.000680815 15.051 0.0825899 15.4774 0.245172 15.876C0.407209 16.2784 0.646033 16.6455 0.948377 16.957L0.993887 17.0083C1.30939 17.3219 1.68346 17.5708 2.09494 17.7407C2.50435 17.9106 2.94346 17.9977 3.38684 17.9971V18ZM13.1524 13.1514H14.0935V14.0786H13.1524V13.1514ZM11.3379 13.1514H12.2833V14.0303H10.3939V12.2271H11.3041V11.3115H12.2349V9.48633H13.1833V10.3828H14.0817V11.3101H13.1833V12.2373H11.3379V13.1499V13.1514ZM8.53536 11.2969H9.44997V10.3696H8.56913V9.44238H9.44997V8.51514H8.55004V9.44238H7.6046V8.51514H8.53389V5.76123H9.47786V8.51367H10.3925V9.44092H11.2924V8.51367H12.2364V9.44092H11.3379V10.3682H10.3939V12.1934H9.47933V14.0347H8.53536V11.2969ZM13.1378 8.51367H14.0817V9.44092H13.1378V8.51367ZM5.76218 8.51367H6.70614V9.44092H5.76218V8.51367ZM3.91681 8.51367H4.86078V9.44092H3.91681V8.51367ZM8.53536 3.92139H9.47933V4.84863H8.53536V3.92139ZM3.90213 10.3828H7.6046V14.0625H3.90213V10.3828ZM4.80206 11.2793H6.71055V13.1704H4.80206V11.2793ZM10.3807 3.92285H14.0817V7.60108H10.3793V3.92139L10.3807 3.92285ZM11.2806 4.81641H13.1891V6.70752H11.2806V4.81494V4.81641ZM4.82114 4.81641H6.72963V6.70752H4.82114V4.81494V4.81641Z" fill="#FEFEFE"/>
</svg>
