<svg width="19" height="21" viewBox="0 0 19 21" fill="none" xmlns="http://www.w3.org/2000/svg">
<mask id="path-1-inside-1_584_1701" fill="white">
<path fill-rule="evenodd" clip-rule="evenodd" d="M9.49996 0.083252C7.77407 0.083252 6.37496 1.48237 6.37496 3.20826V3.90995C6.01858 4.07925 5.6781 4.27661 5.35639 4.49918L4.74759 4.14768C3.25293 3.28474 1.34171 3.79685 0.478764 5.29151C-0.384181 6.78618 0.127931 8.6974 1.6226 9.56034L2.23166 9.91199C2.21618 10.1059 2.2083 10.302 2.2083 10.4999C2.2083 10.6978 2.21618 10.8938 2.23165 11.0877L1.62259 11.4394C0.127928 12.3023 -0.384182 14.2135 0.478763 15.7082C1.34171 17.2028 3.25293 17.715 4.7476 16.852L5.35628 16.5006C5.67802 16.7232 6.01853 16.9206 6.37496 17.0899V17.7916C6.37496 19.5175 7.77407 20.9166 9.49996 20.9166C11.2259 20.9166 12.625 19.5175 12.625 17.7916V17.0899C12.9814 16.9206 13.3218 16.7232 13.6436 16.5006L14.2521 16.852C15.7468 17.715 17.658 17.2028 18.521 15.7082C19.3839 14.2135 18.8718 12.3023 17.3771 11.4393L16.7683 11.0878C16.7837 10.8939 16.7916 10.6978 16.7916 10.4999C16.7916 10.302 16.7837 10.1058 16.7683 9.91187L17.3771 9.56034C18.8718 8.6974 19.3839 6.78618 18.521 5.29151C17.658 3.79685 15.7468 3.28474 14.2521 4.14769L13.6434 4.49911C13.3218 4.27657 12.9813 4.07924 12.625 3.90995V3.20825C12.625 1.48236 11.2259 0.083252 9.49996 0.083252Z"/>
</mask>
<path d="M6.37496 3.90987L7.0186 5.26476L7.87496 4.85795V3.90987H6.37496ZM5.35639 4.49909L4.60639 5.79813L5.42882 6.27296L6.2098 5.73266L5.35639 4.49909ZM4.74759 4.1476L5.49759 2.84856L4.74759 4.1476ZM0.478758 5.29143L-0.82028 4.54143H-0.82028L0.478758 5.29143ZM1.62259 9.56026L2.37259 8.26123H2.37259L1.62259 9.56026ZM2.23165 9.9119L3.7269 10.0312L3.80226 9.08665L2.98165 8.61287L2.23165 9.9119ZM2.23164 11.0876L2.98164 12.3867L3.80223 11.9129L3.72689 10.9684L2.23164 11.0876ZM1.62259 11.4393L0.872587 10.1402L0.872586 10.1402L1.62259 11.4393ZM0.478757 15.7081L-0.820281 16.4581H-0.820281L0.478757 15.7081ZM4.74759 16.8519L5.49759 18.151L4.74759 16.8519ZM5.35628 16.5005L6.20971 15.2669L5.42872 14.7266L4.60628 15.2015L5.35628 16.5005ZM6.37496 17.0898H7.87496V16.1417L7.0186 15.7349L6.37496 17.0898ZM12.625 17.0898L11.9813 15.7349L11.125 16.1417V17.0898H12.625ZM13.6435 16.5006L14.3935 15.2015L13.5711 14.7267L12.7901 15.267L13.6435 16.5006ZM14.2521 16.8519L15.0021 15.5529L14.2521 16.8519ZM17.3771 11.4393L16.6271 12.7383L17.3771 11.4393ZM16.7683 11.0877L15.273 10.9685L15.1977 11.913L16.0183 12.3868L16.7683 11.0877ZM16.7683 9.91179L16.0183 8.61276L15.1976 9.08654L15.273 10.0311L16.7683 9.91179ZM17.3771 9.56026L18.1271 10.8593L17.3771 9.56026ZM18.521 5.29143L19.82 4.54143V4.54143L18.521 5.29143ZM14.2521 4.1476L13.5021 2.84857V2.84857L14.2521 4.1476ZM13.6434 4.49903L12.79 5.73261L13.571 6.27289L14.3934 5.79807L13.6434 4.49903ZM12.625 3.90987H11.125V4.85795L11.9813 5.26476L12.625 3.90987ZM7.87496 3.20817C7.87496 2.31071 8.6025 1.58317 9.49996 1.58317V-1.41683C6.94564 -1.41683 4.87496 0.653859 4.87496 3.20817H7.87496ZM7.87496 3.90987V3.20817H4.87496V3.90987H7.87496ZM6.2098 5.73266C6.46549 5.55577 6.73586 5.39907 7.0186 5.26476L5.73132 2.55498C5.30128 2.75927 4.8907 2.99729 4.50298 3.26552L6.2098 5.73266ZM3.99759 5.44664L4.60639 5.79813L6.10639 3.20006L5.49759 2.84856L3.99759 5.44664ZM1.7778 6.04143C2.22653 5.26421 3.22036 4.99791 3.99759 5.44664L5.49759 2.84856C3.28548 1.57141 0.456879 2.32933 -0.82028 4.54143L1.7778 6.04143ZM2.37259 8.26123C1.59536 7.81249 1.32907 6.81866 1.7778 6.04143L-0.82028 4.54143C-2.09744 6.75354 -1.33951 9.58214 0.87259 10.8593L2.37259 8.26123ZM2.98165 8.61287L2.37259 8.26123L0.87259 10.8593L1.48165 11.2109L2.98165 8.61287ZM3.70829 10.4998C3.70829 10.3418 3.71459 10.1855 3.7269 10.0312L0.736402 9.7926C0.717766 10.0262 0.708292 10.2621 0.708292 10.4998H3.70829ZM3.72689 10.9684C3.71459 10.8141 3.70829 10.6579 3.70829 10.4998H0.708292C0.708292 10.7376 0.717761 10.9734 0.736389 11.2069L3.72689 10.9684ZM2.37259 12.7383L2.98164 12.3867L1.48164 9.78859L0.872587 10.1402L2.37259 12.7383ZM1.7778 14.9581C1.32906 14.1809 1.59536 13.187 2.37259 12.7383L0.872586 10.1402C-1.33952 11.4174 -2.09744 14.246 -0.820281 16.4581L1.7778 14.9581ZM3.99759 15.5529C3.22036 16.0016 2.22653 15.7353 1.7778 14.9581L-0.820281 16.4581C0.456879 18.6702 3.28549 19.4281 5.49759 18.151L3.99759 15.5529ZM4.60628 15.2015L3.99759 15.5529L5.49759 18.151L6.10628 17.7995L4.60628 15.2015ZM7.0186 15.7349C6.73583 15.6006 6.46543 15.4439 6.20971 15.2669L4.50285 17.7341C4.89061 18.0023 5.30123 18.2404 5.73132 18.4447L7.0186 15.7349ZM7.87496 17.7915V17.0898H4.87496V17.7915H7.87496ZM9.49996 19.4165C8.6025 19.4165 7.87496 18.689 7.87496 17.7915H4.87496C4.87496 20.3458 6.94564 22.4165 9.49996 22.4165V19.4165ZM11.125 17.7915C11.125 18.689 10.3974 19.4165 9.49996 19.4165V22.4165C12.0543 22.4165 14.125 20.3458 14.125 17.7915H11.125ZM11.125 17.0898V17.7915H14.125V17.0898H11.125ZM12.7901 15.267C12.5344 15.4439 12.2641 15.6006 11.9813 15.7349L13.2686 18.4447C13.6986 18.2404 14.1092 18.0024 14.497 17.7341L12.7901 15.267ZM15.0021 15.5529L14.3935 15.2015L12.8935 17.7996L13.5021 18.151L15.0021 15.5529ZM17.2219 14.9581C16.7732 15.7353 15.7794 16.0016 15.0021 15.5529L13.5021 18.151C15.7142 19.4281 18.5428 18.6702 19.82 16.4581L17.2219 14.9581ZM16.6271 12.7383C17.4044 13.187 17.6706 14.1809 17.2219 14.9581L19.82 16.4581C21.0972 14.246 20.3392 11.4174 18.1271 10.1402L16.6271 12.7383ZM16.0183 12.3868L16.6271 12.7383L18.1271 10.1402L17.5183 9.78871L16.0183 12.3868ZM15.2916 10.4998C15.2916 10.6579 15.2853 10.8142 15.273 10.9685L18.2635 11.207C18.2822 10.9735 18.2916 10.7376 18.2916 10.4998H15.2916ZM15.273 10.0311C15.2853 10.1854 15.2916 10.3417 15.2916 10.4998H18.2916C18.2916 10.262 18.2821 10.0261 18.2635 9.79247L15.273 10.0311ZM16.6271 8.26122L16.0183 8.61276L17.5183 11.2108L18.1271 10.8593L16.6271 8.26122ZM17.2219 6.04143C17.6706 6.81866 17.4044 7.81249 16.6271 8.26122L18.1271 10.8593C20.3392 9.58214 21.0972 6.75354 19.82 4.54143L17.2219 6.04143ZM15.0021 5.44664C15.7793 4.99791 16.7732 5.26421 17.2219 6.04143L19.82 4.54143C18.5428 2.32933 15.7142 1.57141 13.5021 2.84857L15.0021 5.44664ZM14.3934 5.79807L15.0021 5.44664L13.5021 2.84857L12.8934 3.19999L14.3934 5.79807ZM11.9813 5.26476C12.264 5.39906 12.5344 5.55574 12.79 5.73261L14.4968 3.26545C14.1091 2.99725 13.6986 2.75925 13.2686 2.55498L11.9813 5.26476ZM11.125 3.20817V3.90987H14.125V3.20817H11.125ZM9.49996 1.58317C10.3974 1.58317 11.125 2.31071 11.125 3.20817H14.125C14.125 0.653854 12.0543 -1.41683 9.49996 -1.41683V1.58317Z" fill="white" mask="url(#path-1-inside-1_584_1701)"/>
<circle cx="9.5" cy="10.5" r="2.375" stroke="white" stroke-width="1.5"/>
</svg>
