<svg width="31" height="30" viewBox="0 0 31 30" fill="none" xmlns="http://www.w3.org/2000/svg">
<path d="M0.815186 7.99999C0.815186 3.58171 4.39691 0 8.81519 0H22.5175C26.9357 0 30.5175 3.58172 30.5175 8V21.0458C30.5175 25.464 26.9357 29.0457 22.5175 29.0457H8.81519C4.39691 29.0457 0.815186 25.464 0.815186 21.0457V7.99999Z" fill="#8391A1"/>
<path d="M17.5487 29.0424V18.2139H21.2844L21.8396 13.9742H17.5487V11.2736C17.5487 10.0502 17.8972 9.21258 19.6928 9.21258H21.968V5.43264C20.8615 5.31637 19.7482 5.26088 18.6349 5.26485C15.3329 5.26485 13.0659 7.23607 13.0659 10.8548V13.9662H9.35449V18.206H13.074V29.0424H17.5487Z" fill="white"/>
</svg>
