<svg width="31" height="30" viewBox="0 0 31 30" fill="none" xmlns="http://www.w3.org/2000/svg">
<path d="M15.4882 7.27222C11.144 7.27222 7.62476 10.7153 7.62476 14.9618C7.62476 19.21 11.144 22.6531 15.4882 22.6531C19.829 22.6531 23.3516 19.21 23.3516 14.9618C23.3516 10.7153 19.829 7.27222 15.4882 7.27222ZM15.4882 19.9585C12.6663 19.9585 10.3786 17.7213 10.3786 14.9635C10.3786 12.204 12.6663 9.96849 15.4882 9.96849C18.31 9.96849 20.5944 12.204 20.5944 14.9635C20.5944 17.7213 18.31 19.9585 15.4882 19.9585Z" fill="#8391A1"/>
<path d="M23.6647 8.78245C24.6773 8.78245 25.4983 7.97966 25.4983 6.98937C25.4983 5.99908 24.6773 5.19629 23.6647 5.19629C22.652 5.19629 21.8311 5.99908 21.8311 6.98937C21.8311 7.97966 22.652 8.78245 23.6647 8.78245Z" fill="#8391A1"/>
<path d="M30.0039 5.16633C29.2062 3.15536 27.5818 1.5652 25.5254 0.788423C24.3364 0.350965 23.0794 0.116434 21.8071 0.0898202C20.1691 0.0199599 19.6503 0 15.4966 0C11.343 0 10.8106 -1.67303e-07 9.18617 0.0898202C7.91727 0.11477 6.66028 0.349301 5.47133 0.788423C3.41319 1.5652 1.7888 3.15536 0.992759 5.16633C0.545413 6.33067 0.305581 7.55822 0.280067 8.8024C0.206927 10.4025 0.184814 10.9098 0.184814 14.9734C0.184814 19.0353 0.184814 19.5526 0.280067 21.1444C0.305581 22.3886 0.545413 23.6161 0.992759 24.7821C1.7905 26.7914 3.41489 28.3816 5.47303 29.16C6.65688 29.6124 7.91387 29.8686 9.18957 29.9085C10.8276 29.9784 11.3464 30 15.5001 30C19.6537 30 20.1861 30 21.8105 29.9085C23.0811 29.8836 24.3381 29.6474 25.5288 29.2116C27.5852 28.4315 29.2096 26.843 30.0073 24.832C30.4547 23.6677 30.6945 22.4401 30.72 21.1959C30.7932 19.5958 30.8153 19.0885 30.8153 15.025C30.8153 10.9614 30.8153 10.4458 30.72 8.85396C30.6979 7.59315 30.4598 6.34398 30.0039 5.16633ZM27.9322 21.0213C27.9203 21.9794 27.7434 22.9291 27.4032 23.829C26.8844 25.1381 25.8281 26.1727 24.4912 26.675C23.5812 27.006 22.6219 27.179 21.6506 27.1923C20.0347 27.2655 19.5789 27.2838 15.4354 27.2838C11.2885 27.2838 10.865 27.2838 9.21849 27.1923C8.25066 27.1806 7.28793 27.006 6.37963 26.675C5.03759 26.1743 3.9745 25.1397 3.45572 23.829C3.12233 22.9408 2.94203 22.001 2.92672 21.0529C2.85358 19.4727 2.83657 19.0269 2.83657 14.9751C2.83657 10.9215 2.83657 10.5073 2.92672 8.89554C2.93863 7.93746 3.11553 6.98935 3.45572 6.08949C3.9745 4.77711 5.03759 3.74418 6.37963 3.24185C7.28793 2.91251 8.25066 2.73786 9.21849 2.72455C10.8361 2.65303 11.2902 2.63307 15.4354 2.63307C19.5806 2.63307 20.0058 2.63307 21.6506 2.72455C22.6219 2.73619 23.5812 2.91085 24.4912 3.24185C25.8281 3.74584 26.8844 4.78044 27.4032 6.08949C27.7366 6.97771 27.9169 7.9175 27.9322 8.8656C28.0053 10.4474 28.024 10.8916 28.024 14.9451C28.024 18.997 28.024 19.4328 27.9509 21.023H27.9322V21.0213Z" fill="#8391A1"/>
</svg>
