<svg width="31" height="30" viewBox="0 0 31 30" fill="none" xmlns="http://www.w3.org/2000/svg">
<rect x="0.482422" width="29.7023" height="29.0457" rx="8" fill="#8492A3"/>
<path d="M22.9776 7.87402C22.8172 7.79296 22.6609 7.70411 22.5096 7.60778C22.0694 7.32337 21.6658 6.98824 21.3075 6.60963C20.411 5.60711 20.0762 4.59008 19.9529 3.87801H19.9579C19.8548 3.28696 19.8974 2.90454 19.9039 2.90454H15.8207V18.3358C15.8207 18.543 15.8207 18.7477 15.8118 18.9501C15.8118 18.9752 15.8093 18.9985 15.8079 19.0256C15.8079 19.0367 15.8079 19.0483 15.8054 19.0599C15.8054 19.0629 15.8054 19.0658 15.8054 19.0687C15.7623 19.6223 15.5807 20.1572 15.2766 20.6262C14.9724 21.0951 14.555 21.4839 14.061 21.7582C13.5461 22.0444 12.9639 22.1946 12.3716 22.1938C10.4692 22.1938 8.92733 20.6777 8.92733 18.8053C8.92733 16.9329 10.4692 15.4168 12.3716 15.4168C12.7317 15.4165 13.0896 15.4719 13.432 15.5809L13.4369 11.5176C12.3975 11.3864 11.3415 11.4671 10.3356 11.7547C9.32971 12.0424 8.39571 12.5306 7.59254 13.1886C6.88877 13.7863 6.2971 14.4994 5.84417 15.2958C5.67181 15.5862 5.0215 16.7533 4.94275 18.6475C4.89322 19.7226 5.22358 20.8365 5.38108 21.2968V21.3065C5.48014 21.5776 5.86399 22.5027 6.48953 23.2825C6.99395 23.9081 7.5899 24.4576 8.2582 24.9133V24.9037L8.26811 24.9133C10.2448 26.2261 12.4364 26.14 12.4364 26.14C12.8158 26.125 14.0867 26.14 15.53 25.4715C17.1308 24.7304 18.0421 23.6262 18.0421 23.6262C18.6243 22.9664 19.0872 22.2146 19.4111 21.4029C19.7805 20.4536 19.9039 19.3151 19.9039 18.86V10.6734C19.9534 10.7025 20.6131 11.1289 20.6131 11.1289C20.6131 11.1289 21.5636 11.7243 23.0465 12.1121C24.1103 12.388 25.5437 12.4461 25.5437 12.4461V8.48443C25.0415 8.53768 24.0217 8.38278 22.9776 7.87402Z" fill="white"/>
</svg>
