<svg width="25" height="26" viewBox="0 0 25 26" fill="none" xmlns="http://www.w3.org/2000/svg">
<path fill-rule="evenodd" clip-rule="evenodd" d="M21.3575 3.65086C19.0072 1.29784 15.8819 0.00138658 12.5527 0C5.6919 0 0.106767 5.58375 0.103993 12.4473C0.103993 14.6409 0.67665 16.7817 1.76511 18.6703L0 25.1192L6.59872 23.3874C8.41791 24.3788 10.4645 24.9015 12.5471 24.9029H12.5527C19.4121 24.9029 24.9972 19.3192 25 12.4556C25 9.13061 23.7077 6.00388 21.3575 3.65086ZM12.5527 22.8023H12.5485C10.6919 22.8009 8.87132 22.3031 7.28231 21.3588L6.90516 21.1342L2.98946 22.1617L4.03356 18.3444L3.78813 17.9534C2.75236 16.3062 2.20605 14.4024 2.20605 12.4473C2.20882 6.74293 6.84969 2.10205 12.5568 2.10205C15.3203 2.10344 17.9174 3.18081 19.871 5.13588C21.8233 7.09235 22.8993 9.69079 22.8979 12.4556C22.8952 18.16 18.2543 22.8023 12.5527 22.8023ZM18.228 15.0527C17.916 14.896 16.388 14.1445 16.1023 14.0405C15.8181 13.9365 15.6115 13.8852 15.4035 14.1958C15.1955 14.5064 14.5993 15.2066 14.4176 15.4146C14.236 15.6226 14.0544 15.6475 13.7438 15.4922C13.4332 15.3369 12.4307 15.0083 11.2424 13.949C10.3175 13.124 9.69357 12.1062 9.51192 11.7942C9.33028 11.4822 9.49251 11.3145 9.64919 11.1592C9.78924 11.0205 9.95979 10.7959 10.1151 10.6143C10.2704 10.4326 10.3217 10.3037 10.4257 10.0957C10.5297 9.88769 10.4784 9.70604 10.3993 9.55075C10.3217 9.39406 9.69911 7.86328 9.43982 7.24071C9.18885 6.63755 8.93233 6.71797 8.74099 6.70965C8.56073 6.70133 8.35275 6.69856 8.14614 6.69856C7.93816 6.69856 7.60122 6.77621 7.31558 7.0868C7.02995 7.39878 6.22712 8.1503 6.22712 9.68109C6.22712 11.2119 7.34193 12.6913 7.49723 12.8993C7.65252 13.1073 9.69079 16.2479 12.8106 17.5957C13.5538 17.916 14.1334 18.1073 14.584 18.2515C15.3286 18.4886 16.0067 18.454 16.5433 18.3749C17.1409 18.2862 18.3832 17.6234 18.6425 16.8968C18.9018 16.1703 18.9018 15.5477 18.8242 15.4174C18.7465 15.287 18.5372 15.208 18.228 15.0527Z" fill="#8391A1"/>
</svg>
